G04*
G04 #@! TF.GenerationSoftware,Altium Limited,Altium Designer,20.2.6 (244)*
G04*
G04 Layer_Physical_Order=1*
G04 Layer_Color=255*
%FSTAX24Y24*%
%MOIN*%
G70*
G04*
G04 #@! TF.SameCoordinates,210E5C92-376B-490F-B415-5E6AA8125FEF*
G04*
G04*
G04 #@! TF.FilePolarity,Positive*
G04*
G01*
G75*
%ADD24R,0.0980X0.1260*%
%ADD25R,0.0980X0.0350*%
%ADD26R,0.0374X0.0354*%
G04:AMPARAMS|DCode=27|XSize=59.1mil|YSize=47.2mil|CornerRadius=4.7mil|HoleSize=0mil|Usage=FLASHONLY|Rotation=0.000|XOffset=0mil|YOffset=0mil|HoleType=Round|Shape=RoundedRectangle|*
%AMROUNDEDRECTD27*
21,1,0.0591,0.0378,0,0,0.0*
21,1,0.0496,0.0472,0,0,0.0*
1,1,0.0094,0.0248,-0.0189*
1,1,0.0094,-0.0248,-0.0189*
1,1,0.0094,-0.0248,0.0189*
1,1,0.0094,0.0248,0.0189*
%
%ADD27ROUNDEDRECTD27*%
G04:AMPARAMS|DCode=28|XSize=59.1mil|YSize=13.8mil|CornerRadius=1.4mil|HoleSize=0mil|Usage=FLASHONLY|Rotation=0.000|XOffset=0mil|YOffset=0mil|HoleType=Round|Shape=RoundedRectangle|*
%AMROUNDEDRECTD28*
21,1,0.0591,0.0110,0,0,0.0*
21,1,0.0563,0.0138,0,0,0.0*
1,1,0.0028,0.0282,-0.0055*
1,1,0.0028,-0.0282,-0.0055*
1,1,0.0028,-0.0282,0.0055*
1,1,0.0028,0.0282,0.0055*
%
%ADD28ROUNDEDRECTD28*%
%ADD29R,0.0600X0.0650*%
%ADD30R,0.1882X0.1240*%
%ADD31R,0.0551X0.0433*%
%ADD32O,0.0236X0.0728*%
%ADD33R,0.0433X0.0551*%
%ADD34R,0.0472X0.0315*%
%ADD35R,0.0650X0.0600*%
%ADD36R,0.0575X0.0210*%
%ADD37R,0.2205X0.0827*%
%ADD38O,0.0512X0.0177*%
%ADD39O,0.0177X0.0512*%
%ADD64C,0.0150*%
%ADD65C,0.0200*%
%ADD66O,0.0600X0.0900*%
%ADD67R,0.0700X0.0700*%
%ADD68C,0.0700*%
G04:AMPARAMS|DCode=69|XSize=94.5mil|YSize=63mil|CornerRadius=15.7mil|HoleSize=0mil|Usage=FLASHONLY|Rotation=0.000|XOffset=0mil|YOffset=0mil|HoleType=Round|Shape=RoundedRectangle|*
%AMROUNDEDRECTD69*
21,1,0.0945,0.0315,0,0,0.0*
21,1,0.0630,0.0630,0,0,0.0*
1,1,0.0315,0.0315,-0.0157*
1,1,0.0315,-0.0315,-0.0157*
1,1,0.0315,-0.0315,0.0157*
1,1,0.0315,0.0315,0.0157*
%
%ADD69ROUNDEDRECTD69*%
%ADD70C,0.0600*%
%ADD71R,0.0591X0.0591*%
%ADD72C,0.0591*%
%ADD73O,0.0787X0.1200*%
%ADD74C,0.0709*%
%ADD75C,0.0315*%
G36*
X04425Y01D02*
X01005D01*
X01Y01D01*
Y010993D01*
X01005Y011013D01*
X01008Y011D01*
X010393D01*
X010395Y010951D01*
X010314Y010935D01*
X010245Y010889D01*
X0102Y010821D01*
X010183Y01074D01*
Y010425D01*
X0102Y010344D01*
X010245Y010275D01*
X010314Y010229D01*
X010395Y010213D01*
X011025D01*
X011106Y010229D01*
X011174Y010275D01*
X01122Y010344D01*
X011236Y010425D01*
Y01074D01*
X01122Y010821D01*
X011174Y010889D01*
X011106Y010935D01*
X011025Y010951D01*
X011027Y011D01*
X011606D01*
X011611Y011003D01*
X011616Y011001D01*
X011677Y011014D01*
X011682Y011017D01*
X011687D01*
X011745Y01104D01*
X011749Y011044D01*
X011754Y011045D01*
X011806Y01108D01*
X011809Y011084D01*
X011814Y011087D01*
X011858Y01113D01*
X01186Y011136D01*
X011864Y011139D01*
X011899Y01119D01*
X0119Y011196D01*
X011904Y0112D01*
X011928Y011257D01*
Y011262D01*
X011931Y011267D01*
X011943Y011328D01*
X011942Y011333D01*
X011944Y011339D01*
Y011361D01*
X011962Y011376D01*
X011994Y011388D01*
X011999Y011384D01*
X012037Y011377D01*
X012533D01*
X012571Y011384D01*
X012603Y011406D01*
X012624Y011438D01*
X012632Y011476D01*
Y011854D01*
X012624Y011892D01*
X012618Y011901D01*
X012645Y011951D01*
X015008D01*
X015057Y01196D01*
X015098Y011988D01*
X015474Y012364D01*
X0155Y012358D01*
X015581Y012375D01*
X01565Y01242D01*
X015695Y012489D01*
X015712Y01257D01*
X015695Y012651D01*
X01565Y01272D01*
X015627Y012734D01*
Y01385D01*
X015618Y013899D01*
X01559Y01394D01*
X013776Y015754D01*
X013782Y01578D01*
X013765Y015861D01*
X01372Y01593D01*
X013697Y015944D01*
Y017273D01*
X013965D01*
Y017372D01*
X014276D01*
X01429Y01735D01*
X014359Y017305D01*
X01444Y017288D01*
X014521Y017305D01*
X01459Y01735D01*
X014623Y0174D01*
X014673Y017385D01*
Y01521D01*
X014682Y015161D01*
X01471Y01512D01*
X015404Y014426D01*
X015398Y0144D01*
X015415Y014319D01*
X01546Y01425D01*
X015529Y014205D01*
X01561Y014188D01*
X015691Y014205D01*
X01576Y01425D01*
X015805Y014319D01*
X015822Y0144D01*
X015805Y014481D01*
X01576Y01455D01*
X015691Y014595D01*
X01561Y014612D01*
X015584Y014606D01*
X014927Y015263D01*
Y028995D01*
X014977Y029D01*
X014982Y028976D01*
X015013Y02893D01*
X015059Y028899D01*
X015113Y028889D01*
X015142D01*
Y025571D01*
X01511Y02555D01*
X015065Y025481D01*
X015048Y0254D01*
X015065Y025319D01*
X01511Y02525D01*
X015179Y025205D01*
X01526Y025188D01*
X015341Y025205D01*
X01541Y02525D01*
X015455Y025319D01*
X015472Y0254D01*
X015455Y025481D01*
X01541Y02555D01*
X015397Y025558D01*
Y028889D01*
X015447D01*
X015501Y028899D01*
X015547Y02893D01*
X015578Y028976D01*
X015589Y02903D01*
X015578Y029084D01*
X015547Y02913D01*
X015501Y02916D01*
X015494Y029162D01*
Y029213D01*
X015501Y029214D01*
X015547Y029245D01*
X015578Y029291D01*
X015589Y029345D01*
X015578Y029399D01*
X015547Y029445D01*
X015501Y029475D01*
X015494Y029477D01*
Y029528D01*
X015501Y029529D01*
X015547Y02956D01*
X015578Y029606D01*
X015589Y02966D01*
X015578Y029714D01*
X015547Y02976D01*
X015501Y02979D01*
X015494Y029792D01*
Y029843D01*
X015501Y029844D01*
X015547Y029875D01*
X015578Y029921D01*
X015589Y029975D01*
X015578Y030029D01*
X015547Y030075D01*
X015501Y030105D01*
X015494Y030107D01*
Y030158D01*
X015501Y030159D01*
X015547Y03019D01*
X015578Y030236D01*
X015589Y03029D01*
X015578Y030344D01*
X015547Y03039D01*
X015532Y0304D01*
X015526Y030462D01*
X015542Y030477D01*
X015702D01*
X016454Y029726D01*
X016448Y0297D01*
X016465Y029619D01*
X01651Y02955D01*
X016579Y029505D01*
X01666Y029488D01*
X016741Y029505D01*
X01681Y02955D01*
X016827Y029577D01*
X016877Y029562D01*
Y028521D01*
X016827Y028501D01*
X016817Y028512D01*
Y02867D01*
X016808Y028719D01*
X01678Y02876D01*
X01655Y02899D01*
X016509Y029018D01*
X01646Y029027D01*
X01601D01*
X015961Y029018D01*
X01592Y02899D01*
X01562Y02869D01*
X015592Y028649D01*
X015583Y0286D01*
Y022906D01*
X015592Y022857D01*
X01562Y022815D01*
X016489Y021947D01*
Y021463D01*
X016502Y021398D01*
X016539Y021342D01*
X016594Y021305D01*
X01666Y021292D01*
X016726Y021305D01*
X016781Y021342D01*
X016818Y021398D01*
X016831Y021463D01*
Y021956D01*
X016818Y022021D01*
X016781Y022077D01*
X016726Y022114D01*
X016671Y022125D01*
X015837Y022958D01*
Y02527D01*
X015887Y025285D01*
X01591Y02525D01*
X015979Y025205D01*
X01606Y025188D01*
X016141Y025205D01*
X01621Y02525D01*
X016224Y025273D01*
X016489D01*
Y025144D01*
X016502Y025079D01*
X016539Y025023D01*
X016594Y024986D01*
X01666Y024973D01*
X016726Y024986D01*
X016781Y025023D01*
X016818Y025079D01*
X016831Y025144D01*
Y025637D01*
X016818Y025702D01*
X016781Y025758D01*
X016726Y025795D01*
X01666Y025808D01*
X016594Y025795D01*
X016539Y025758D01*
X016502Y025702D01*
X016489Y025637D01*
Y025527D01*
X016224D01*
X01621Y02555D01*
X016141Y025595D01*
X01606Y025612D01*
X015979Y025595D01*
X01591Y02555D01*
X015887Y025515D01*
X015837Y02553D01*
Y028547D01*
X016063Y028773D01*
X016407D01*
X016562Y028617D01*
Y028476D01*
X016559Y028471D01*
X016558Y028464D01*
X016507D01*
X016506Y028471D01*
X016475Y028517D01*
X016429Y028548D01*
X016375Y028559D01*
X016321Y028548D01*
X016275Y028517D01*
X016244Y028471D01*
X016243Y028464D01*
X016192D01*
X016191Y028471D01*
X01616Y028517D01*
X016114Y028548D01*
X01606Y028559D01*
X016006Y028548D01*
X01596Y028517D01*
X015929Y028471D01*
X015919Y028417D01*
Y028083D01*
X015929Y028029D01*
X015933Y028024D01*
Y02675D01*
X015942Y026701D01*
X01597Y02666D01*
X01633Y0263D01*
X016371Y026272D01*
X01642Y026263D01*
X017959D01*
X017986Y026213D01*
X017965Y026181D01*
X017948Y0261D01*
X017965Y026019D01*
X01801Y02595D01*
X018033Y025936D01*
Y025748D01*
X018002Y025702D01*
X017989Y025637D01*
Y025144D01*
X018002Y025079D01*
X018033Y025033D01*
Y024664D01*
X01801Y02465D01*
X017965Y024581D01*
X017948Y0245D01*
X017965Y024419D01*
X01801Y02435D01*
X018079Y024305D01*
X01816Y024288D01*
X018241Y024305D01*
X01831Y02435D01*
X018355Y024419D01*
X018372Y0245D01*
X018355Y024581D01*
X01831Y02465D01*
X018287Y024664D01*
Y025033D01*
X018318Y025079D01*
X018331Y025144D01*
Y025628D01*
X018501Y025797D01*
X018508Y025796D01*
X018512Y025791D01*
X018527Y02574D01*
X018502Y025702D01*
X018489Y025637D01*
Y025144D01*
X018502Y025079D01*
X018533Y025033D01*
Y0238D01*
X018542Y023751D01*
X01857Y02371D01*
X019544Y022736D01*
X01955Y02268D01*
X019505Y022611D01*
X019488Y02253D01*
X019505Y022449D01*
X01955Y02238D01*
X019619Y022335D01*
X0197Y022318D01*
X019781Y022335D01*
X01985Y02238D01*
X019895Y022449D01*
X019912Y02253D01*
X019895Y022611D01*
X01985Y02268D01*
X019827Y022694D01*
Y02276D01*
X019818Y022809D01*
X01979Y02285D01*
X018787Y023853D01*
Y025033D01*
X018818Y025079D01*
X018831Y025144D01*
Y025637D01*
X018818Y025702D01*
X018781Y025758D01*
X018759Y025773D01*
X018774Y025823D01*
X019046D01*
X019061Y025773D01*
X019039Y025758D01*
X019002Y025702D01*
X018989Y025637D01*
Y025144D01*
X019002Y025079D01*
X019033Y025033D01*
Y02452D01*
X019042Y024471D01*
X01907Y02443D01*
X019727Y023772D01*
X019769Y023745D01*
X019818Y023735D01*
X019964D01*
X019991Y023685D01*
X019975Y023661D01*
X019958Y02358D01*
X019975Y023499D01*
X02002Y02343D01*
X020089Y023385D01*
X02017Y023368D01*
X020251Y023385D01*
X02032Y02343D01*
X020334Y023453D01*
X025158D01*
X025165Y023419D01*
X02521Y02335D01*
X025279Y023305D01*
X02536Y023288D01*
X025441Y023305D01*
X02551Y02335D01*
X025555Y023419D01*
X025572Y0235D01*
X025555Y023581D01*
X02551Y02365D01*
X025441Y023695D01*
X02536Y023712D01*
X02531Y023702D01*
X02528Y023707D01*
X024305D01*
X02429Y023757D01*
X024313Y023772D01*
X02595Y02541D01*
X025978Y025451D01*
X025987Y0255D01*
Y026924D01*
X026037Y026944D01*
X02611Y027D01*
X026166Y027073D01*
X026201Y027159D01*
X026213Y02725D01*
Y02755D01*
X026201Y027641D01*
X026166Y027727D01*
X02611Y0278D01*
X026037Y027856D01*
X025951Y027891D01*
X02586Y027903D01*
X025769Y027891D01*
X025683Y027856D01*
X02561Y0278D01*
X025554Y027727D01*
X025519Y027641D01*
X025507Y02755D01*
Y02725D01*
X025519Y027159D01*
X025554Y027073D01*
X02561Y027D01*
X025683Y026944D01*
X025733Y026924D01*
Y025553D01*
X02417Y02399D01*
X022682D01*
X022674Y024D01*
X022663Y02404D01*
X02402Y025397D01*
X024048Y025438D01*
X024057Y025487D01*
Y03135D01*
X024107Y031355D01*
X024115Y031319D01*
X02416Y03125D01*
X024229Y031205D01*
X02431Y031188D01*
X024345Y031195D01*
X024395Y031154D01*
Y030945D01*
X02507D01*
Y031075D01*
X025418Y031423D01*
X038119D01*
Y03134D01*
X040101D01*
Y03268D01*
X038119D01*
Y031677D01*
X025365D01*
X025316Y031668D01*
X025275Y03164D01*
X02512Y031485D01*
X02507Y031506D01*
Y031755D01*
X024395D01*
Y031638D01*
X024354Y031603D01*
X02431Y031612D01*
X024229Y031595D01*
X02416Y03155D01*
X024115Y031481D01*
X024107Y031445D01*
X024057Y03145D01*
Y032367D01*
X025663Y033973D01*
X026257D01*
X026539Y03369D01*
X026519Y033641D01*
X026507Y03355D01*
Y03325D01*
X026519Y033159D01*
X026554Y033073D01*
X02661Y033D01*
X026683Y032944D01*
X026769Y032909D01*
X02686Y032897D01*
X026951Y032909D01*
X027037Y032944D01*
X02711Y033D01*
X027166Y033073D01*
X027201Y033159D01*
X027213Y03325D01*
Y03355D01*
X027201Y033641D01*
X027166Y033727D01*
X02711Y0338D01*
X027037Y033856D01*
X026951Y033891D01*
X02686Y033903D01*
X026769Y033891D01*
X02672Y033871D01*
X026418Y034173D01*
X026438Y034223D01*
X027007D01*
X027539Y03369D01*
X027519Y033641D01*
X027507Y03355D01*
Y03325D01*
X027519Y033159D01*
X027554Y033073D01*
X02761Y033D01*
X027683Y032944D01*
X027769Y032909D01*
X02786Y032897D01*
X027951Y032909D01*
X028037Y032944D01*
X02811Y033D01*
X028166Y033073D01*
X028201Y033159D01*
X028213Y03325D01*
Y03355D01*
X028201Y033641D01*
X028166Y033727D01*
X02811Y0338D01*
X028037Y033856D01*
X027951Y033891D01*
X02786Y033903D01*
X027769Y033891D01*
X02772Y033871D01*
X02715Y03444D01*
X027109Y034468D01*
X027085Y034473D01*
X02709Y034523D01*
X029707D01*
X030539Y03369D01*
X030519Y033641D01*
X030507Y03355D01*
Y03325D01*
X030519Y033159D01*
X030554Y033073D01*
X03061Y033D01*
X030683Y032944D01*
X030724Y032927D01*
X030714Y032877D01*
X030413D01*
X030181Y03311D01*
X030201Y033159D01*
X030213Y03325D01*
Y03355D01*
X030201Y033641D01*
X030166Y033727D01*
X03011Y0338D01*
X030037Y033856D01*
X029951Y033891D01*
X02986Y033903D01*
X029769Y033891D01*
X029683Y033856D01*
X02961Y0338D01*
X029554Y033727D01*
X029519Y033641D01*
X029507Y03355D01*
Y03325D01*
X029519Y033159D01*
X029554Y033073D01*
X02961Y033D01*
X029683Y032944D01*
X029769Y032909D01*
X02986Y032897D01*
X029951Y032909D01*
X03Y032929D01*
X03027Y03266D01*
X030311Y032632D01*
X03036Y032623D01*
X03178D01*
X031795Y032573D01*
X03176Y03255D01*
X031746Y032527D01*
X029763D01*
X029181Y03311D01*
X029201Y033159D01*
X029213Y03325D01*
Y03355D01*
X029201Y033641D01*
X029166Y033727D01*
X02911Y0338D01*
X029037Y033856D01*
X028951Y033891D01*
X02886Y033903D01*
X028769Y033891D01*
X028683Y033856D01*
X02861Y0338D01*
X028554Y033727D01*
X028519Y033641D01*
X028507Y03355D01*
Y03325D01*
X028519Y033159D01*
X028554Y033073D01*
X02861Y033D01*
X028683Y032944D01*
X028769Y032909D01*
X02886Y032897D01*
X028951Y032909D01*
X029Y032929D01*
X02962Y03231D01*
X029661Y032282D01*
X02971Y032273D01*
X031746D01*
X03176Y03225D01*
X031829Y032205D01*
X03191Y032188D01*
X031991Y032205D01*
X03206Y03225D01*
X032105Y032319D01*
X032122Y0324D01*
X032105Y032481D01*
X03206Y03255D01*
X032025Y032573D01*
X03204Y032623D01*
X032857D01*
X033315Y032164D01*
X033317Y032154D01*
X033363Y032085D01*
X033432Y03204D01*
X033513Y032023D01*
X033594Y03204D01*
X033663Y032085D01*
X033708Y032154D01*
X033724Y032235D01*
X033708Y032316D01*
X033663Y032385D01*
X033594Y03243D01*
X033513Y032447D01*
X033432Y03243D01*
X033419Y032422D01*
X033Y03284D01*
X032959Y032868D01*
X03291Y032877D01*
X031006D01*
X030996Y032927D01*
X031037Y032944D01*
X03111Y033D01*
X031166Y033073D01*
X031201Y033159D01*
X031213Y03325D01*
Y03355D01*
X031201Y033641D01*
X031166Y033727D01*
X03111Y0338D01*
X031037Y033856D01*
X030951Y033891D01*
X03086Y033903D01*
X030769Y033891D01*
X03072Y033871D01*
X02985Y03474D01*
X029809Y034768D01*
X02976Y034777D01*
X02536D01*
X025311Y034768D01*
X02527Y03474D01*
X02328Y03275D01*
X023252Y032709D01*
X023243Y03266D01*
Y028883D01*
X023193Y028861D01*
X02314Y028897D01*
X023059Y028913D01*
X022978Y028897D01*
X022936Y028868D01*
X022886Y028895D01*
Y028971D01*
X022234D01*
Y028438D01*
X022886D01*
Y028507D01*
X022936Y028534D01*
X022978Y028506D01*
X023059Y02849D01*
X02314Y028506D01*
X023193Y028541D01*
X023243Y02852D01*
Y028381D01*
X02321Y02836D01*
X023165Y028291D01*
X023148Y02821D01*
X023165Y028129D01*
X02321Y02806D01*
X023279Y028015D01*
X02336Y027998D01*
X023441Y028015D01*
X023483Y028042D01*
X023533Y028016D01*
Y027903D01*
X022477Y026847D01*
X017344D01*
X017326Y026873D01*
X01735Y026923D01*
X018093D01*
X018142Y026932D01*
X018183Y02696D01*
X01898Y027756D01*
X019007Y027797D01*
X019017Y027846D01*
Y028016D01*
X019025Y028029D01*
X019027Y028036D01*
X019078D01*
X019079Y028029D01*
X01911Y027983D01*
X019115Y027979D01*
X019125Y027965D01*
X01946Y02763D01*
X019501Y027602D01*
X01955Y027593D01*
X022706D01*
X02272Y02757D01*
X022789Y027525D01*
X02287Y027508D01*
X022951Y027525D01*
X02302Y02757D01*
X023065Y027639D01*
X023082Y02772D01*
X023065Y027801D01*
X02302Y02787D01*
X022951Y027915D01*
X02287Y027932D01*
X022789Y027915D01*
X02272Y02787D01*
X022706Y027847D01*
X019603D01*
X019351Y028099D01*
Y028417D01*
X01934Y028471D01*
X01931Y028517D01*
X019264Y028548D01*
X01921Y028559D01*
X019156Y028548D01*
X01911Y028517D01*
X019079Y028471D01*
X019078Y028464D01*
X019027D01*
X019025Y028471D01*
X018995Y028517D01*
X018949Y028548D01*
X018895Y028559D01*
X018841Y028548D01*
X018795Y028517D01*
X018764Y028471D01*
X018763Y028464D01*
X018712D01*
X01871Y028471D01*
X01868Y028517D01*
X018634Y028548D01*
X01858Y028559D01*
X018526Y028548D01*
X01848Y028517D01*
X01847Y028502D01*
X018407Y028496D01*
X018392Y028512D01*
Y031852D01*
X018634Y032094D01*
X01866Y032088D01*
X018741Y032105D01*
X01881Y03215D01*
X018855Y032219D01*
X018872Y0323D01*
X018855Y032381D01*
X01881Y03245D01*
X018741Y032495D01*
X01866Y032512D01*
X018579Y032495D01*
X01851Y03245D01*
X018465Y032381D01*
X018448Y0323D01*
X018454Y032274D01*
X018358Y032179D01*
X018312Y032203D01*
X018322Y03225D01*
X018305Y032331D01*
X01826Y0324D01*
X018191Y032445D01*
X01811Y032462D01*
X018084Y032456D01*
X017938Y032602D01*
X017944Y032626D01*
X017958Y032653D01*
X018004Y032662D01*
X01805Y032692D01*
X01808Y032738D01*
X018082Y032745D01*
X018133D01*
X018134Y032738D01*
X018165Y032692D01*
X018211Y032662D01*
X018265Y032651D01*
X018319Y032662D01*
X018365Y032692D01*
X018395Y032738D01*
X018397Y032745D01*
X018448D01*
X018449Y032738D01*
X01848Y032692D01*
X018526Y032662D01*
X01858Y032651D01*
X018634Y032662D01*
X01868Y032692D01*
X01871Y032738D01*
X018712Y032745D01*
X018763D01*
X018764Y032738D01*
X018795Y032692D01*
X018841Y032662D01*
X018895Y032651D01*
X018949Y032662D01*
X018995Y032692D01*
X019025Y032738D01*
X019027Y032745D01*
X019078D01*
X019079Y032738D01*
X01911Y032692D01*
X019156Y032662D01*
X01921Y032651D01*
X019264Y032662D01*
X01931Y032692D01*
X019333Y032727D01*
X019383Y032714D01*
Y03183D01*
X019333Y031815D01*
X01931Y03185D01*
X019241Y031895D01*
X01916Y031912D01*
X019079Y031895D01*
X01901Y03185D01*
X018965Y031781D01*
X018948Y0317D01*
X018965Y031619D01*
X01901Y03155D01*
X019033Y031536D01*
Y030952D01*
X019042Y030904D01*
X01907Y030862D01*
X019156Y030776D01*
X019137Y03073D01*
X018873D01*
X01886Y03075D01*
X018791Y030795D01*
X01871Y030812D01*
X018629Y030795D01*
X01856Y03075D01*
X018515Y030681D01*
X018498Y0306D01*
X018515Y030519D01*
X01856Y03045D01*
X018629Y030405D01*
X01871Y030388D01*
X018791Y030405D01*
X01886Y03045D01*
X018876Y030475D01*
X01972D01*
X019729Y030461D01*
X019711Y030422D01*
X018985D01*
X018936Y030413D01*
X018895Y030385D01*
X018776Y030266D01*
X01875Y030272D01*
X018669Y030255D01*
X0186Y03021D01*
X018555Y030141D01*
X018538Y03006D01*
X018555Y029979D01*
X0186Y02991D01*
X018669Y029865D01*
X01875Y029848D01*
X018831Y029865D01*
X0189Y02991D01*
X018945Y029979D01*
X018962Y03006D01*
X018956Y030086D01*
X019038Y030167D01*
X019756D01*
X019768Y030159D01*
X019775Y030158D01*
Y030107D01*
X019768Y030105D01*
X019722Y030075D01*
X019692Y030029D01*
X019681Y029975D01*
X019692Y029921D01*
X019722Y029875D01*
X019768Y029844D01*
X019775Y029843D01*
Y029792D01*
X019768Y02979D01*
X019722Y02976D01*
X019692Y029714D01*
X019681Y02966D01*
X019692Y029606D01*
X019722Y02956D01*
X019768Y029529D01*
X019775Y029528D01*
Y029477D01*
X019768Y029475D01*
X019722Y029445D01*
X019692Y029399D01*
X019681Y029345D01*
X019692Y029291D01*
X019722Y029245D01*
X019768Y029214D01*
X019775Y029213D01*
Y029162D01*
X019768Y02916D01*
X019722Y02913D01*
X019692Y029084D01*
X019681Y02903D01*
X019692Y028976D01*
X019722Y02893D01*
X019768Y028899D01*
X019822Y028889D01*
X020157D01*
X020211Y028899D01*
X020216Y028902D01*
X020312D01*
X020327Y02888D01*
X020395Y028834D01*
X020476Y028818D01*
X020557Y028834D01*
X020626Y02888D01*
X020672Y028949D01*
X020688Y02903D01*
X020672Y029111D01*
X020626Y02918D01*
X020557Y029225D01*
X020476Y029241D01*
X020395Y029225D01*
X020327Y02918D01*
X020312Y029157D01*
X020216D01*
X020211Y02916D01*
X020204Y029162D01*
Y029213D01*
X020211Y029214D01*
X020257Y029245D01*
X020287Y029291D01*
X020298Y029345D01*
X020287Y029399D01*
X020257Y029445D01*
X020211Y029475D01*
X020204Y029477D01*
Y029528D01*
X020211Y029529D01*
X020257Y02956D01*
X020287Y029606D01*
X020298Y02966D01*
X020287Y029714D01*
X020257Y02976D01*
X020211Y02979D01*
X020204Y029792D01*
Y029843D01*
X020211Y029844D01*
X020257Y029875D01*
X020287Y029921D01*
X020298Y029975D01*
X020287Y030029D01*
X020257Y030075D01*
X020211Y030105D01*
X020204Y030107D01*
Y030158D01*
X020211Y030159D01*
X020257Y03019D01*
X020287Y030236D01*
X020298Y03029D01*
X020287Y030344D01*
X020257Y03039D01*
X020242Y0304D01*
X020236Y030462D01*
X020252Y030477D01*
X020427D01*
X021085Y02982D01*
Y0293D01*
X021673D01*
X021685Y029298D01*
X021877D01*
X021969Y029205D01*
X022011Y029178D01*
X022059Y029168D01*
X022234D01*
Y029029D01*
X022886D01*
Y029562D01*
X022687D01*
Y029945D01*
X022925D01*
Y030255D01*
X02225D01*
Y029945D01*
X022433D01*
Y029562D01*
X022234D01*
Y029423D01*
X022112D01*
X02202Y029515D01*
X021978Y029543D01*
X02193Y029552D01*
X021835D01*
Y03D01*
X021265D01*
X020589Y030676D01*
X020589Y030737D01*
X02061Y03075D01*
X020655Y030819D01*
X020672Y0309D01*
X020655Y030981D01*
X020622Y031032D01*
X020645Y031082D01*
X021085D01*
Y0306D01*
X021835D01*
Y030947D01*
X02225D01*
Y030945D01*
X022925D01*
Y031255D01*
X02225D01*
Y031253D01*
X021835D01*
Y0313D01*
X021301D01*
X021258Y031343D01*
X021222Y031367D01*
X021215Y03141D01*
X021218Y031425D01*
X021243Y031441D01*
X021301Y0315D01*
X021619D01*
X021627Y031492D01*
X021676Y031459D01*
X021735Y031447D01*
X02225D01*
Y031445D01*
X022925D01*
Y031755D01*
X02225D01*
Y031753D01*
X021835D01*
Y0322D01*
X021085D01*
Y031716D01*
X021071Y031703D01*
X020254D01*
X020239Y031753D01*
X020257Y031765D01*
X020287Y03181D01*
X020298Y031865D01*
X020287Y031919D01*
X020257Y031964D01*
X020211Y031995D01*
X020204Y031997D01*
Y032048D01*
X020211Y032049D01*
X020257Y03208D01*
X020287Y032125D01*
X020298Y03218D01*
X020287Y032234D01*
X020257Y032279D01*
X020211Y03231D01*
X020157Y032321D01*
X019822D01*
X019768Y03231D01*
X019722Y032279D01*
X019692Y032234D01*
X019687Y032212D01*
X019637Y032217D01*
Y03252D01*
X019687Y032535D01*
X01971Y0325D01*
X019779Y032455D01*
X01986Y032438D01*
X019941Y032455D01*
X02001Y0325D01*
X020055Y032569D01*
X020072Y03265D01*
X020066Y032676D01*
X020413Y033023D01*
X021085D01*
Y0328D01*
X021835D01*
Y0335D01*
X021085D01*
Y033277D01*
X02036D01*
X020311Y033268D01*
X02027Y03324D01*
X019886Y032856D01*
X01986Y032862D01*
X019779Y032845D01*
X01971Y0328D01*
X019687Y032765D01*
X019637Y03278D01*
Y03335D01*
X019628Y033399D01*
X0196Y03344D01*
X019383Y033658D01*
Y033824D01*
X019522D01*
Y034476D01*
X018989D01*
Y033824D01*
X019128D01*
Y033605D01*
X019138Y033556D01*
X019165Y033515D01*
X019383Y033297D01*
Y033204D01*
X019333Y033192D01*
X01931Y033227D01*
X019264Y033257D01*
X01921Y033268D01*
X019156Y033257D01*
X01911Y033227D01*
X019079Y033181D01*
X019078Y033174D01*
X019027D01*
X019025Y033181D01*
X018995Y033227D01*
X018949Y033257D01*
X018895Y033268D01*
X018841Y033257D01*
X018795Y033227D01*
X018764Y033181D01*
X018763Y033174D01*
X018712D01*
X01871Y033181D01*
X01868Y033227D01*
X018634Y033257D01*
X01858Y033268D01*
X018526Y033257D01*
X01848Y033227D01*
X018449Y033181D01*
X018448Y033174D01*
X018397D01*
X018395Y033181D01*
X018365Y033227D01*
X018319Y033257D01*
X018265Y033268D01*
X018211Y033257D01*
X018165Y033227D01*
X018134Y033181D01*
X018133Y033174D01*
X018082D01*
X01808Y033181D01*
X01805Y033227D01*
X018004Y033257D01*
X01795Y033268D01*
X017896Y033257D01*
X01785Y033227D01*
X017819Y033181D01*
X017818Y033174D01*
X017767D01*
X017765Y033181D01*
X017735Y033227D01*
X017689Y033257D01*
X017635Y033268D01*
X017581Y033257D01*
X017535Y033227D01*
X017504Y033181D01*
X017503Y033174D01*
X017452D01*
X01745Y033181D01*
X01742Y033227D01*
X017374Y033257D01*
X01732Y033268D01*
X017266Y033257D01*
X01722Y033227D01*
X017189Y033181D01*
X017188Y033174D01*
X017137D01*
X017135Y033181D01*
X017105Y033227D01*
X017059Y033257D01*
X017005Y033268D01*
X016951Y033257D01*
X016905Y033227D01*
X016874Y033181D01*
X016873Y033174D01*
X016822D01*
X01682Y033181D01*
X01679Y033227D01*
X016744Y033257D01*
X01669Y033268D01*
X016636Y033257D01*
X01659Y033227D01*
X016559Y033181D01*
X016558Y033174D01*
X016507D01*
X016506Y033181D01*
X016475Y033227D01*
X016429Y033257D01*
X016375Y033268D01*
X016321Y033257D01*
X016275Y033227D01*
X016244Y033181D01*
X016243Y033174D01*
X016192D01*
X016191Y033181D01*
X01616Y033227D01*
X016114Y033257D01*
X01606Y033268D01*
X016006Y033257D01*
X01596Y033227D01*
X015929Y033181D01*
X015919Y033127D01*
Y032792D01*
X015929Y032738D01*
X01596Y032692D01*
X016006Y032662D01*
X01606Y032651D01*
X016114Y032662D01*
X01616Y032692D01*
X016191Y032738D01*
X016192Y032745D01*
X016243D01*
X016244Y032738D01*
X016275Y032692D01*
X016321Y032662D01*
X016375Y032651D01*
X016429Y032662D01*
X016475Y032692D01*
X016506Y032738D01*
X016507Y032745D01*
X016558D01*
X016559Y032738D01*
X01659Y032692D01*
X016636Y032662D01*
X01669Y032651D01*
X016744Y032662D01*
X01679Y032692D01*
X01682Y032738D01*
X016822Y032745D01*
X016873D01*
X016874Y032738D01*
X016905Y032692D01*
X016951Y032662D01*
X017005Y032651D01*
X017059Y032662D01*
X017105Y032692D01*
X017135Y032738D01*
X017137Y032745D01*
X017188D01*
X017189Y032738D01*
X01722Y032692D01*
X017266Y032662D01*
X01732Y032651D01*
X017374Y032662D01*
X01742Y032692D01*
X01745Y032738D01*
X0175Y032729D01*
X017507Y032725D01*
X017517Y032676D01*
X017545Y032635D01*
X017631Y032548D01*
X017607Y032502D01*
X01756Y032512D01*
X017479Y032495D01*
X01741Y03245D01*
X017365Y032381D01*
X017348Y0323D01*
X017365Y032219D01*
X01741Y03215D01*
X017479Y032105D01*
X01756Y032088D01*
X017586Y032094D01*
X017822Y031857D01*
Y028896D01*
X017772Y028881D01*
X01776Y0289D01*
X017691Y028945D01*
X01761Y028962D01*
X017529Y028945D01*
X01746Y0289D01*
X017415Y028831D01*
X017398Y02875D01*
X017415Y028669D01*
X01746Y0286D01*
X017507Y028569D01*
Y028476D01*
X017504Y028471D01*
X017503Y028464D01*
X017452D01*
X01745Y028471D01*
X01742Y028517D01*
X017374Y028548D01*
X01732Y028559D01*
X017266Y028548D01*
X01722Y028517D01*
X01721Y028502D01*
X017147Y028496D01*
X017132Y028512D01*
Y031055D01*
X017123Y031104D01*
X017095Y031145D01*
X01615Y03209D01*
X016109Y032118D01*
X01606Y032127D01*
X015974D01*
X01596Y03215D01*
X015891Y032195D01*
X01581Y032212D01*
X015729Y032195D01*
X01566Y03215D01*
X015615Y032081D01*
X015598Y032D01*
X015605Y031969D01*
X015558Y031949D01*
X015547Y031964D01*
X015501Y031995D01*
X015494Y031997D01*
Y032048D01*
X015501Y032049D01*
X015547Y03208D01*
X015578Y032125D01*
X015589Y03218D01*
X015578Y032234D01*
X015547Y032279D01*
X015501Y03231D01*
X015447Y032321D01*
X015113D01*
X015059Y03231D01*
X015013Y032279D01*
X014982Y032234D01*
X014971Y03218D01*
X014982Y032125D01*
X015013Y03208D01*
X015059Y032049D01*
X015066Y032048D01*
Y031997D01*
X015059Y031995D01*
X015013Y031964D01*
X014982Y031919D01*
X014971Y031865D01*
X014982Y03181D01*
X015013Y031765D01*
X015059Y031734D01*
X015066Y031733D01*
Y031682D01*
X015059Y03168D01*
X015013Y03165D01*
X014982Y031604D01*
X014971Y03155D01*
X014982Y031496D01*
X015013Y03145D01*
X015059Y031419D01*
X015066Y031418D01*
Y031367D01*
X015059Y031365D01*
X015013Y031335D01*
X014982Y031289D01*
X014971Y031235D01*
X014982Y031181D01*
X015013Y031135D01*
X015028Y031125D01*
X015034Y031062D01*
X015018Y031047D01*
X013572D01*
Y031476D01*
X01333D01*
Y031558D01*
X013326Y031575D01*
X013363Y031625D01*
X013364Y031625D01*
X01401D01*
Y031873D01*
X014546D01*
X01456Y03185D01*
X014629Y031805D01*
X01471Y031788D01*
X014791Y031805D01*
X01486Y03185D01*
X014905Y031919D01*
X014922Y032D01*
X014905Y032081D01*
X01486Y03215D01*
X014791Y032195D01*
X01471Y032212D01*
X014629Y032195D01*
X01456Y03215D01*
X014546Y032127D01*
X01401D01*
Y032375D01*
X013787D01*
Y032798D01*
X014282Y033293D01*
X014674D01*
Y033707D01*
X014102D01*
Y033473D01*
X01357Y032941D01*
X013542Y0329D01*
X013533Y032851D01*
Y032375D01*
X01331D01*
Y031701D01*
X01326Y03168D01*
X012887Y032053D01*
X012846Y032081D01*
X012797Y03209D01*
X01271D01*
Y032375D01*
X01201D01*
Y031625D01*
X01271D01*
Y031799D01*
X01276Y03182D01*
X013054Y031526D01*
X013039Y031476D01*
X013039D01*
Y030824D01*
X013394D01*
X013428Y030802D01*
X013477Y030792D01*
X014583D01*
Y030303D01*
X01457Y030295D01*
X014563Y030295D01*
X014517Y030321D01*
X014505Y030381D01*
X01446Y03045D01*
X014391Y030495D01*
X01431Y030512D01*
X014229Y030495D01*
X01416Y03045D01*
X014146Y030427D01*
X01401D01*
Y030625D01*
X01331D01*
Y029875D01*
X01401D01*
Y030173D01*
X014146D01*
X01416Y03015D01*
X014229Y030105D01*
X01431Y030088D01*
X014329Y030092D01*
X014354Y030046D01*
X013609Y029301D01*
X013315D01*
Y028847D01*
X013609D01*
X014333Y028123D01*
Y027864D01*
X01431Y02785D01*
X014265Y027781D01*
X014248Y0277D01*
X014265Y027619D01*
X01431Y02755D01*
X014379Y027505D01*
X01446Y027488D01*
X014541Y027505D01*
X01461Y02755D01*
X014623Y02757D01*
X014673Y027555D01*
Y01844D01*
X014623Y018435D01*
X014615Y018471D01*
X01457Y01854D01*
X014501Y018585D01*
X01442Y018602D01*
X014339Y018585D01*
X01427Y01854D01*
X014259Y018522D01*
X013965D01*
Y018625D01*
X012885D01*
Y018175D01*
X013965D01*
Y018268D01*
X014252D01*
X01427Y01824D01*
X014339Y018195D01*
X01442Y018178D01*
X014501Y018195D01*
X01457Y01824D01*
X014615Y018309D01*
X014623Y018345D01*
X014673Y01834D01*
Y017615D01*
X014623Y0176D01*
X01459Y01765D01*
X014521Y017695D01*
X01444Y017712D01*
X014359Y017695D01*
X01429Y01765D01*
X014275Y017627D01*
X013965D01*
Y017723D01*
X012885D01*
Y017273D01*
X013443D01*
Y015944D01*
X01342Y01593D01*
X013375Y015861D01*
X013358Y01578D01*
X013375Y015699D01*
X01342Y01563D01*
X013489Y015585D01*
X01357Y015568D01*
X013596Y015574D01*
X015373Y013797D01*
Y012734D01*
X01535Y01272D01*
X015305Y012651D01*
X015288Y01257D01*
X015294Y012544D01*
X014955Y012206D01*
X012654D01*
X012626Y012254D01*
X012627Y012256D01*
X012631Y012279D01*
Y012389D01*
X012626Y012414D01*
X012613Y012434D01*
X012612Y012436D01*
Y012489D01*
X012613Y01249D01*
X012626Y01251D01*
X012631Y012535D01*
Y012645D01*
X012626Y01267D01*
X012613Y01269D01*
X012612Y012691D01*
Y012744D01*
X012613Y012746D01*
X012626Y012766D01*
X012631Y012791D01*
Y012901D01*
X012627Y012924D01*
X012626Y012926D01*
X012654Y012974D01*
X013212D01*
X013261Y012984D01*
X013302Y013012D01*
X01405Y01376D01*
X014078Y013801D01*
X014087Y01385D01*
Y01429D01*
X014078Y014339D01*
X01405Y01438D01*
X012457Y015973D01*
Y018937D01*
X012694Y019174D01*
X012885D01*
Y019077D01*
X013965D01*
Y019527D01*
X012885D01*
Y019429D01*
X012642D01*
X012593Y019419D01*
X012551Y019392D01*
X01224Y01908D01*
X012212Y019039D01*
X012203Y01899D01*
Y01592D01*
X012212Y015871D01*
X01224Y01583D01*
X013833Y014237D01*
Y013903D01*
X013159Y013229D01*
X012645D01*
X012618Y013279D01*
X012624Y013288D01*
X012632Y013326D01*
Y013704D01*
X012624Y013742D01*
X012603Y013774D01*
X012571Y013796D01*
X012533Y013803D01*
X012037D01*
X011999Y013796D01*
X011994Y013792D01*
X011962Y013804D01*
X011944Y013819D01*
Y013841D01*
X011942Y013847D01*
X011943Y013852D01*
X011931Y013913D01*
X011928Y013918D01*
Y013923D01*
X011904Y01398D01*
X0119Y013984D01*
X011899Y01399D01*
X011864Y014041D01*
X01186Y014044D01*
X011858Y01405D01*
X011814Y014093D01*
X011809Y014096D01*
X011806Y0141D01*
X011754Y014135D01*
X011749Y014136D01*
X011745Y01414D01*
X011687Y014163D01*
X011682D01*
X011677Y014166D01*
X011616Y014179D01*
X011611Y014177D01*
X011606Y01418D01*
X011027D01*
X011025Y014229D01*
X011106Y014245D01*
X011174Y014291D01*
X01122Y014359D01*
X011236Y01444D01*
Y014755D01*
X01122Y014836D01*
X011174Y014905D01*
X011106Y014951D01*
X011025Y014967D01*
X010395D01*
X010314Y014951D01*
X010245Y014905D01*
X0102Y014836D01*
X010183Y014755D01*
Y01444D01*
X0102Y014359D01*
X010245Y014291D01*
X010314Y014245D01*
X010395Y014229D01*
X010393Y01418D01*
X01008D01*
X01005Y014167D01*
X01Y014187D01*
Y03685D01*
X04425D01*
Y01D01*
D02*
G37*
G36*
X01566Y03185D02*
X015729Y031805D01*
X01581Y031788D01*
X015891Y031805D01*
X01596Y03185D01*
X015964Y031857D01*
X016019Y031861D01*
X016877Y031002D01*
Y029838D01*
X016827Y029823D01*
X01681Y02985D01*
X016741Y029895D01*
X01666Y029912D01*
X016634Y029906D01*
X015887Y030653D01*
X015889Y030672D01*
X0159Y030711D01*
X01596Y03075D01*
X016005Y030819D01*
X016022Y0309D01*
X016005Y030981D01*
X01596Y03105D01*
X015891Y031095D01*
X01581Y031112D01*
X015729Y031095D01*
X01566Y03105D01*
X015659Y031047D01*
X015506D01*
X015501Y03105D01*
X015494Y031052D01*
Y031103D01*
X015501Y031104D01*
X015547Y031135D01*
X015578Y031181D01*
X015589Y031235D01*
X015578Y031289D01*
X015547Y031335D01*
X015501Y031365D01*
X015494Y031367D01*
Y031418D01*
X015501Y031419D01*
X015547Y03145D01*
X015578Y031496D01*
X015589Y03155D01*
X015578Y031604D01*
X015547Y03165D01*
X015501Y03168D01*
X015494Y031682D01*
Y031733D01*
X015501Y031734D01*
X015547Y031765D01*
X015578Y03181D01*
X015589Y031865D01*
X015588Y031869D01*
X015635Y031889D01*
X01566Y03185D01*
D02*
G37*
G36*
X018134Y028029D02*
X018165Y027983D01*
X018211Y027952D01*
X018265Y027941D01*
X018319Y027952D01*
X018365Y027983D01*
X018375Y027998D01*
X018437Y028004D01*
X018452Y027988D01*
Y027904D01*
X017986Y027437D01*
X017304D01*
X017277Y027487D01*
X017293Y027512D01*
X017309Y027592D01*
X017304Y027619D01*
X0174Y027715D01*
X01742Y027712D01*
X017449Y027696D01*
X017465Y027619D01*
X01751Y02755D01*
X017579Y027505D01*
X01766Y027488D01*
X017741Y027505D01*
X01781Y02755D01*
X017855Y027619D01*
X017872Y0277D01*
X017855Y027781D01*
X01781Y02785D01*
X017762Y027881D01*
Y028024D01*
X017765Y028029D01*
X017767Y028036D01*
X017818D01*
X017819Y028029D01*
X01785Y027983D01*
X017896Y027952D01*
X01795Y027941D01*
X018004Y027952D01*
X01805Y027983D01*
X01808Y028029D01*
X018082Y028036D01*
X018133D01*
X018134Y028029D01*
D02*
G37*
G36*
X015059Y030789D02*
X015066Y030788D01*
Y030737D01*
X015059Y030735D01*
X015013Y030705D01*
X014982Y030659D01*
X014971Y030605D01*
X014982Y030551D01*
X015013Y030505D01*
X015059Y030474D01*
X015066Y030473D01*
Y030422D01*
X015059Y03042D01*
X015013Y03039D01*
X014982Y030344D01*
X014971Y03029D01*
X014982Y030236D01*
X015013Y03019D01*
X015059Y030159D01*
X015066Y030158D01*
Y030107D01*
X015059Y030105D01*
X015013Y030075D01*
X014982Y030029D01*
X014971Y029975D01*
X014982Y029921D01*
X015013Y029875D01*
X015059Y029844D01*
X015066Y029843D01*
Y029792D01*
X015059Y02979D01*
X015013Y02976D01*
X014982Y029714D01*
X014979Y029699D01*
X01471Y02943D01*
X014682Y029389D01*
X014673Y02934D01*
Y027845D01*
X014623Y02783D01*
X01461Y02785D01*
X014587Y027864D01*
Y028176D01*
X014578Y028225D01*
X01455Y028266D01*
X013789Y029027D01*
Y029121D01*
X0148Y030132D01*
X014828Y030173D01*
X014837Y030222D01*
Y030792D01*
X015054D01*
X015059Y030789D01*
D02*
G37*
G36*
X016244Y028029D02*
X016275Y027983D01*
X016321Y027952D01*
X016375Y027941D01*
X016429Y027952D01*
X016475Y027983D01*
X016506Y028029D01*
X016507Y028036D01*
X016558D01*
X016559Y028029D01*
X01659Y027983D01*
X016636Y027952D01*
X01669Y027941D01*
X016744Y027952D01*
X01679Y027983D01*
X01682Y028029D01*
X016822Y028036D01*
X016873D01*
X016874Y028029D01*
X016905Y027983D01*
X016951Y027952D01*
X017005Y027941D01*
X017059Y027952D01*
X017105Y027983D01*
X017117Y028001D01*
X017179Y02801D01*
X017187Y028002D01*
Y027863D01*
X017124Y027799D01*
X017098Y027804D01*
X017017Y027788D01*
X016948Y027742D01*
X016902Y027673D01*
X016886Y027592D01*
X016902Y027512D01*
X016918Y027487D01*
X016891Y027437D01*
X016564D01*
X01655Y02746D01*
X016481Y027505D01*
X0164Y027522D01*
X016319Y027505D01*
X01625Y02746D01*
X016237Y02744D01*
X016187Y027455D01*
Y028024D01*
X016191Y028029D01*
X016192Y028036D01*
X016243D01*
X016244Y028029D01*
D02*
G37*
G36*
X023803Y027748D02*
Y02554D01*
X02251Y024247D01*
X020183D01*
X019787Y024643D01*
Y025033D01*
X019818Y025079D01*
X019831Y025144D01*
Y025637D01*
X019818Y025702D01*
X019781Y025758D01*
X019759Y025773D01*
X019774Y025823D01*
X020046D01*
X020061Y025773D01*
X020039Y025758D01*
X020002Y025702D01*
X019989Y025637D01*
Y025144D01*
X020002Y025079D01*
X020039Y025023D01*
X020041Y025022D01*
Y024796D01*
X020019Y024781D01*
X019973Y024712D01*
X019957Y024631D01*
X019973Y02455D01*
X020019Y024482D01*
X020088Y024436D01*
X020169Y02442D01*
X02025Y024436D01*
X020318Y024482D01*
X020364Y02455D01*
X02038Y024631D01*
X020364Y024712D01*
X020318Y024781D01*
X020296Y024796D01*
Y025046D01*
X020318Y025079D01*
X020331Y025144D01*
Y025637D01*
X020318Y025702D01*
X020293Y02574D01*
X020308Y025791D01*
X020312Y025796D01*
X020319Y025797D01*
X020489Y025628D01*
Y025144D01*
X020502Y025079D01*
X020539Y025023D01*
X020594Y024986D01*
X02066Y024973D01*
X020726Y024986D01*
X020781Y025023D01*
X020818Y025079D01*
X020831Y025144D01*
Y025637D01*
X020818Y025702D01*
X020781Y025758D01*
X020726Y025795D01*
X020671Y025806D01*
X020437Y02604D01*
X020395Y026068D01*
X020347Y026077D01*
X018473D01*
X018425Y026068D01*
X018415Y026061D01*
X01837Y026091D01*
X018372Y0261D01*
X018355Y026181D01*
X018334Y026213D01*
X018361Y026263D01*
X021667D01*
X022033Y025897D01*
Y025748D01*
X022002Y025702D01*
X021989Y025637D01*
Y025144D01*
X022002Y025079D01*
X022039Y025023D01*
X022094Y024986D01*
X02216Y024973D01*
X022226Y024986D01*
X022281Y025023D01*
X022318Y025079D01*
X022331Y025144D01*
Y025637D01*
X022318Y025702D01*
X022287Y025748D01*
Y02595D01*
X022278Y025999D01*
X02225Y02604D01*
X02181Y02648D01*
X021769Y026508D01*
X02172Y026517D01*
X01735D01*
X017326Y026567D01*
X017344Y026593D01*
X02253D01*
X022579Y026602D01*
X02262Y02663D01*
X02375Y02776D01*
X023753Y027764D01*
X023803Y027748D01*
D02*
G37*
G36*
X019561Y025773D02*
X019539Y025758D01*
X019502Y025702D01*
X019489Y025637D01*
Y025144D01*
X019502Y025079D01*
X019533Y025033D01*
Y02459D01*
X019542Y024541D01*
X01957Y0245D01*
X02003Y02404D01*
X020019Y024D01*
X020011Y02399D01*
X01987D01*
X019287Y024573D01*
Y025033D01*
X019318Y025079D01*
X019331Y025144D01*
Y025637D01*
X019318Y025702D01*
X019281Y025758D01*
X019259Y025773D01*
X019274Y025823D01*
X019546D01*
X019561Y025773D01*
D02*
G37*
%LPC*%
G36*
X04216Y036593D02*
X042015Y036578D01*
X041876Y036536D01*
X041747Y036467D01*
X041635Y036375D01*
X041543Y036263D01*
X041474Y036134D01*
X041432Y035995D01*
X041417Y03585D01*
X041432Y035705D01*
X041474Y035566D01*
X041543Y035437D01*
X041635Y035325D01*
X041747Y035233D01*
X041876Y035164D01*
X042015Y035122D01*
X04216Y035107D01*
X042305Y035122D01*
X042444Y035164D01*
X042573Y035233D01*
X042685Y035325D01*
X042777Y035437D01*
X042846Y035566D01*
X042888Y035705D01*
X042903Y03585D01*
X042888Y035995D01*
X042846Y036134D01*
X042777Y036263D01*
X042685Y036375D01*
X042573Y036467D01*
X042444Y036536D01*
X042305Y036578D01*
X04216Y036593D01*
D02*
G37*
G36*
X01356D02*
X013415Y036578D01*
X013276Y036536D01*
X013147Y036467D01*
X013035Y036375D01*
X012943Y036263D01*
X012874Y036134D01*
X012832Y035995D01*
X012817Y03585D01*
X012832Y035705D01*
X012874Y035566D01*
X012943Y035437D01*
X013035Y035325D01*
X013147Y035233D01*
X013276Y035164D01*
X013415Y035122D01*
X01356Y035107D01*
X013705Y035122D01*
X013844Y035164D01*
X013973Y035233D01*
X014085Y035325D01*
X014177Y035437D01*
X014246Y035566D01*
X014288Y035705D01*
X014303Y03585D01*
X014288Y035995D01*
X014246Y036134D01*
X014177Y036263D01*
X014085Y036375D01*
X013973Y036467D01*
X013844Y036536D01*
X013705Y036578D01*
X01356Y036593D01*
D02*
G37*
G36*
X017392Y036063D02*
X015088D01*
Y035137D01*
X017176D01*
X017407Y034906D01*
Y034476D01*
X017293D01*
Y033824D01*
X017433D01*
Y033764D01*
X01741Y03375D01*
X017365Y033681D01*
X017348Y0336D01*
X017365Y033519D01*
X01741Y03345D01*
X017479Y033405D01*
X01756Y033388D01*
X017641Y033405D01*
X01771Y03345D01*
X017755Y033519D01*
X017772Y0336D01*
X017755Y033681D01*
X01771Y03375D01*
X017687Y033764D01*
Y033824D01*
X017827D01*
Y034476D01*
X017713D01*
Y034969D01*
X017701Y035027D01*
X017668Y035077D01*
X017392Y035353D01*
Y036063D01*
D02*
G37*
G36*
X017236Y034476D02*
X016703D01*
Y033824D01*
X016822D01*
Y033727D01*
X016785Y033671D01*
X016768Y03359D01*
X016785Y033509D01*
X01683Y03344D01*
X016899Y033395D01*
X01698Y033378D01*
X017061Y033395D01*
X01713Y03344D01*
X017175Y033509D01*
X017192Y03359D01*
X017175Y033671D01*
X01713Y03374D01*
X017128Y033741D01*
Y033824D01*
X017236D01*
Y034476D01*
D02*
G37*
G36*
X021132Y036063D02*
X018828D01*
Y035334D01*
X018557Y035063D01*
X018523Y035013D01*
X018512Y034955D01*
Y034476D01*
X018398D01*
Y033824D01*
X018543D01*
Y033684D01*
X01852Y03367D01*
X018475Y033601D01*
X018458Y03352D01*
X018475Y033439D01*
X01852Y03337D01*
X018589Y033325D01*
X01867Y033308D01*
X018751Y033325D01*
X01882Y03337D01*
X018865Y033439D01*
X018882Y03352D01*
X018865Y033601D01*
X01882Y03367D01*
X018797Y033684D01*
Y033824D01*
X018931D01*
Y034476D01*
X018818D01*
Y034891D01*
X019063Y035137D01*
X021132D01*
Y036063D01*
D02*
G37*
G36*
X02586Y033903D02*
X025769Y033891D01*
X025683Y033856D01*
X02561Y0338D01*
X025554Y033727D01*
X025519Y033641D01*
X025507Y03355D01*
Y03325D01*
X025519Y033159D01*
X025554Y033073D01*
X02561Y033D01*
X025683Y032944D01*
X025733Y032924D01*
Y0327D01*
X025742Y032651D01*
X02577Y03261D01*
X0265Y03188D01*
X026541Y031852D01*
X02659Y031843D01*
X029826D01*
X02984Y03182D01*
X029909Y031775D01*
X02999Y031758D01*
X030071Y031775D01*
X03014Y03182D01*
X030185Y031889D01*
X030202Y03197D01*
X030185Y032051D01*
X03014Y03212D01*
X030071Y032165D01*
X02999Y032182D01*
X029909Y032165D01*
X02984Y03212D01*
X029826Y032097D01*
X026643D01*
X025987Y032753D01*
Y032924D01*
X026037Y032944D01*
X02611Y033D01*
X026166Y033073D01*
X026201Y033159D01*
X026213Y03325D01*
Y03355D01*
X026201Y033641D01*
X026166Y033727D01*
X02611Y0338D01*
X026037Y033856D01*
X025951Y033891D01*
X02586Y033903D01*
D02*
G37*
G36*
X011918Y033707D02*
X011346D01*
Y033293D01*
X011505D01*
Y031678D01*
X011514Y031629D01*
X011542Y031588D01*
X01203Y0311D01*
X01172Y03079D01*
X011692Y030749D01*
X011683Y0307D01*
Y0231D01*
X011692Y023051D01*
X01172Y02301D01*
X012702Y022027D01*
X012682Y021977D01*
X01179D01*
X011741Y021968D01*
X0117Y02194D01*
X01028Y02052D01*
X010252Y020479D01*
X010243Y02043D01*
Y01726D01*
X010252Y017211D01*
X01028Y01717D01*
X011624Y015826D01*
X011618Y0158D01*
X011635Y015719D01*
X01168Y01565D01*
X011749Y015605D01*
X01183Y015588D01*
X011911Y015605D01*
X01198Y01565D01*
X012025Y015719D01*
X012042Y0158D01*
X012025Y015881D01*
X01198Y01595D01*
X011911Y015995D01*
X01183Y016012D01*
X011804Y016006D01*
X010497Y017313D01*
Y020377D01*
X011843Y021723D01*
X012739D01*
X012758Y021676D01*
X012814Y021604D01*
X012886Y021548D01*
X01297Y021514D01*
X01306Y021502D01*
X01315Y021514D01*
X013234Y021548D01*
X013306Y021604D01*
X013362Y021676D01*
X013396Y02176D01*
X013408Y02185D01*
X013396Y02194D01*
X013362Y022024D01*
X013306Y022096D01*
X013234Y022152D01*
X013187Y022171D01*
Y022497D01*
X014284Y023594D01*
X01431Y023588D01*
X014391Y023605D01*
X01446Y02365D01*
X014505Y023719D01*
X014522Y0238D01*
X014505Y023881D01*
X01446Y02395D01*
X014391Y023995D01*
X01431Y024012D01*
X014229Y023995D01*
X01416Y02395D01*
X014115Y023881D01*
X014098Y0238D01*
X014104Y023774D01*
X01297Y02264D01*
X012942Y022599D01*
X012933Y02255D01*
Y022228D01*
X012883Y022208D01*
X011937Y023153D01*
Y030647D01*
X012313Y031023D01*
X012448D01*
Y030824D01*
X012981D01*
Y031476D01*
X012448D01*
Y031277D01*
X012213D01*
X011759Y031731D01*
Y033293D01*
X011918D01*
Y033707D01*
D02*
G37*
G36*
X02576Y031308D02*
X025654Y031294D01*
X025556Y031253D01*
X025472Y031188D01*
X025407Y031104D01*
X025366Y031006D01*
X025352Y0309D01*
X025365Y0308D01*
X025358Y030786D01*
X025329Y030753D01*
X02507D01*
Y030755D01*
X024395D01*
Y030445D01*
X02507D01*
Y030447D01*
X025422D01*
X025481Y030459D01*
X025531Y030492D01*
X025577Y030538D01*
X025654Y030506D01*
X02576Y030492D01*
X025866Y030506D01*
X025964Y030547D01*
X026048Y030612D01*
X026113Y030696D01*
X026154Y030794D01*
X026168Y0309D01*
X026154Y031006D01*
X026113Y031104D01*
X026048Y031188D01*
X025964Y031253D01*
X025866Y031294D01*
X02576Y031308D01*
D02*
G37*
G36*
X022925Y030755D02*
X02225D01*
Y030445D01*
X022925D01*
Y030755D01*
D02*
G37*
G36*
X02576Y030308D02*
X025654Y030294D01*
X025556Y030253D01*
X025472Y030188D01*
X025452Y030187D01*
X025431Y030208D01*
X025381Y030241D01*
X025322Y030253D01*
X02507D01*
Y030255D01*
X024395D01*
Y029945D01*
X02507D01*
Y029947D01*
X025259D01*
X025359Y029847D01*
X025366Y029794D01*
X025407Y029696D01*
X025472Y029612D01*
X025556Y029547D01*
X025654Y029506D01*
X02576Y029492D01*
X025866Y029506D01*
X025964Y029547D01*
X026048Y029612D01*
X026113Y029696D01*
X026154Y029794D01*
X026168Y0299D01*
X026154Y030006D01*
X026113Y030104D01*
X026048Y030188D01*
X025964Y030253D01*
X025866Y030294D01*
X02576Y030308D01*
D02*
G37*
G36*
X01271Y030625D02*
X01201D01*
Y029875D01*
X012233D01*
Y029508D01*
X012242Y029459D01*
X01227Y029418D01*
X012715Y028973D01*
X012696Y028927D01*
X012331D01*
Y028473D01*
X01244D01*
Y025337D01*
X01245Y025288D01*
X012478Y025247D01*
X01271Y025015D01*
Y024505D01*
X0134D01*
Y025195D01*
X01289D01*
X012695Y02539D01*
Y02769D01*
X012745Y027699D01*
X01279Y02763D01*
X012859Y027585D01*
X01294Y027568D01*
X013021Y027585D01*
X01309Y02763D01*
X013104Y027653D01*
X013417D01*
X014034Y027036D01*
X014028Y02701D01*
X01404Y026952D01*
X014022Y026925D01*
X014005Y026909D01*
X014002Y026907D01*
X013144D01*
X01313Y02693D01*
X013061Y026975D01*
X01298Y026992D01*
X012899Y026975D01*
X01283Y02693D01*
X012785Y026861D01*
X012768Y02678D01*
X012785Y026699D01*
X01283Y02663D01*
X012899Y026585D01*
X01298Y026568D01*
X013061Y026585D01*
X01313Y02663D01*
X013144Y026653D01*
X013957D01*
X014014Y026596D01*
X014008Y02657D01*
X014025Y026489D01*
X01407Y02642D01*
X014139Y026375D01*
X01422Y026358D01*
X014301Y026375D01*
X01437Y02642D01*
X014415Y026489D01*
X014432Y02657D01*
X014415Y026651D01*
X01437Y02672D01*
X014308Y026761D01*
X014307Y026788D01*
X014313Y026813D01*
X014321Y026815D01*
X01439Y02686D01*
X014435Y026929D01*
X014452Y02701D01*
X014435Y027091D01*
X01439Y02716D01*
X014321Y027205D01*
X01424Y027222D01*
X014214Y027216D01*
X01356Y02787D01*
X013519Y027898D01*
X01347Y027907D01*
X013104D01*
X01309Y02793D01*
X013021Y027975D01*
X01294Y027992D01*
X012859Y027975D01*
X01279Y02793D01*
X012745Y027861D01*
X012695Y02787D01*
Y028473D01*
X012805D01*
Y028818D01*
X012851Y028837D01*
X013315Y028373D01*
Y028099D01*
X013789D01*
Y028553D01*
X013495D01*
X012487Y029561D01*
Y029875D01*
X01271D01*
Y030625D01*
D02*
G37*
G36*
X03146Y028512D02*
X031379Y028495D01*
X03131Y02845D01*
X031296Y028427D01*
X03061D01*
X030561Y028418D01*
X03052Y02839D01*
X03Y027871D01*
X029951Y027891D01*
X02986Y027903D01*
X029769Y027891D01*
X029683Y027856D01*
X02961Y0278D01*
X029554Y027727D01*
X029519Y027641D01*
X029507Y02755D01*
Y02725D01*
X029519Y027159D01*
X029554Y027073D01*
X02961Y027D01*
X029683Y026944D01*
X029769Y026909D01*
X02986Y026897D01*
X029951Y026909D01*
X030037Y026944D01*
X03011Y027D01*
X030166Y027073D01*
X030201Y027159D01*
X030213Y02725D01*
Y02755D01*
X030201Y027641D01*
X030181Y02769D01*
X030663Y028173D01*
X031296D01*
X03131Y02815D01*
X031379Y028105D01*
X03146Y028088D01*
X031541Y028105D01*
X03161Y02815D01*
X031655Y028219D01*
X031672Y0283D01*
X031655Y028381D01*
X03161Y02845D01*
X031541Y028495D01*
X03146Y028512D01*
D02*
G37*
G36*
X01126Y02818D02*
X01046D01*
Y02738D01*
X01126D01*
Y02818D01*
D02*
G37*
G36*
X03194Y031292D02*
X031859Y031275D01*
X03179Y03123D01*
X031745Y031161D01*
X031728Y03108D01*
X031745Y030999D01*
X03179Y03093D01*
X031813Y030916D01*
Y027183D01*
X031057Y026427D01*
X03099D01*
X030975Y026477D01*
X03101Y0265D01*
X031055Y026569D01*
X031072Y02665D01*
X031055Y026731D01*
X03101Y0268D01*
X030987Y026814D01*
Y026924D01*
X031037Y026944D01*
X03111Y027D01*
X031166Y027073D01*
X031201Y027159D01*
X031213Y02725D01*
Y02755D01*
X031201Y027641D01*
X031166Y027727D01*
X03111Y0278D01*
X031037Y027856D01*
X030951Y027891D01*
X03086Y027903D01*
X030769Y027891D01*
X030683Y027856D01*
X03061Y0278D01*
X030554Y027727D01*
X030519Y027641D01*
X030507Y02755D01*
Y02725D01*
X030519Y027159D01*
X030554Y027073D01*
X03061Y027D01*
X030683Y026944D01*
X030733Y026924D01*
Y026814D01*
X03071Y0268D01*
X030665Y026731D01*
X030648Y02665D01*
X030665Y026569D01*
X03071Y0265D01*
X030745Y026477D01*
X03073Y026427D01*
X029924D01*
X02991Y02645D01*
X029841Y026495D01*
X02976Y026512D01*
X029679Y026495D01*
X02961Y02645D01*
X029565Y026381D01*
X029548Y0263D01*
X029565Y026219D01*
X029592Y026177D01*
X029566Y026127D01*
X029363D01*
X028987Y026503D01*
Y026924D01*
X029037Y026944D01*
X02911Y027D01*
X029166Y027073D01*
X029201Y027159D01*
X029213Y02725D01*
Y02755D01*
X029201Y027641D01*
X029166Y027727D01*
X02911Y0278D01*
X029037Y027856D01*
X028951Y027891D01*
X02886Y027903D01*
X028769Y027891D01*
X028683Y027856D01*
X02861Y0278D01*
X028554Y027727D01*
X028519Y027641D01*
X028507Y02755D01*
Y02725D01*
X028519Y027159D01*
X028554Y027073D01*
X02861Y027D01*
X028683Y026944D01*
X028733Y026924D01*
Y02645D01*
X028742Y026401D01*
X02877Y02636D01*
X02922Y02591D01*
X029261Y025882D01*
X029285Y025877D01*
X02928Y025827D01*
X028363D01*
X027987Y026203D01*
Y026924D01*
X028037Y026944D01*
X02811Y027D01*
X028166Y027073D01*
X028201Y027159D01*
X028213Y02725D01*
Y02755D01*
X028201Y027641D01*
X028166Y027727D01*
X02811Y0278D01*
X028037Y027856D01*
X027951Y027891D01*
X02786Y027903D01*
X027769Y027891D01*
X027683Y027856D01*
X02761Y0278D01*
X027554Y027727D01*
X027519Y027641D01*
X027507Y02755D01*
Y02725D01*
X027519Y027159D01*
X027554Y027073D01*
X02761Y027D01*
X027683Y026944D01*
X027733Y026924D01*
Y02615D01*
X027742Y026101D01*
X02777Y02606D01*
X02822Y02561D01*
X028261Y025582D01*
X02831Y025573D01*
X031307D01*
X032383Y024497D01*
Y02443D01*
X032333Y024425D01*
X032328Y024449D01*
X0323Y02449D01*
X03135Y02544D01*
X031309Y025468D01*
X03126Y025477D01*
X027363D01*
X026987Y025853D01*
Y026924D01*
X027037Y026944D01*
X02711Y027D01*
X027166Y027073D01*
X027201Y027159D01*
X027213Y02725D01*
Y02755D01*
X027201Y027641D01*
X027166Y027727D01*
X02711Y0278D01*
X027037Y027856D01*
X026951Y027891D01*
X02686Y027903D01*
X026769Y027891D01*
X026683Y027856D01*
X02661Y0278D01*
X026554Y027727D01*
X026519Y027641D01*
X026507Y02755D01*
Y02725D01*
X026519Y027159D01*
X026554Y027073D01*
X02661Y027D01*
X026683Y026944D01*
X026733Y026924D01*
Y0258D01*
X026742Y025751D01*
X02677Y02571D01*
X02722Y02526D01*
X027261Y025232D01*
X02731Y025223D01*
X031207D01*
X032083Y024347D01*
Y018553D01*
X031207Y017677D01*
X027613D01*
X027181Y01811D01*
X027201Y018159D01*
X027213Y01825D01*
Y01855D01*
X027201Y018641D01*
X027166Y018727D01*
X02711Y0188D01*
X02708Y018823D01*
X027097Y018873D01*
X027307D01*
X027525Y018655D01*
X027519Y018641D01*
X027507Y01855D01*
Y01825D01*
X027519Y018159D01*
X027554Y018073D01*
X02761Y018D01*
X027683Y017944D01*
X027769Y017909D01*
X02786Y017897D01*
X027951Y017909D01*
X028037Y017944D01*
X02811Y018D01*
X028166Y018073D01*
X028201Y018159D01*
X028213Y01825D01*
Y01855D01*
X028201Y018641D01*
X028166Y018727D01*
X02811Y0188D01*
X028037Y018856D01*
X027951Y018891D01*
X02786Y018903D01*
X027769Y018891D01*
X027684Y018856D01*
X02745Y01909D01*
X027409Y019118D01*
X027385Y019123D01*
X02739Y019173D01*
X030557D01*
X030733Y018997D01*
Y018876D01*
X030683Y018856D01*
X03061Y0188D01*
X030554Y018727D01*
X030519Y018641D01*
X030507Y01855D01*
Y01825D01*
X030519Y018159D01*
X030554Y018073D01*
X03061Y018D01*
X030683Y017944D01*
X030769Y017909D01*
X03086Y017897D01*
X030951Y017909D01*
X031037Y017944D01*
X03111Y018D01*
X031166Y018073D01*
X031201Y018159D01*
X031213Y01825D01*
Y01855D01*
X031201Y018641D01*
X031166Y018727D01*
X03111Y0188D01*
X031037Y018856D01*
X030987Y018876D01*
Y01905D01*
X030978Y019099D01*
X03095Y01914D01*
X0307Y01939D01*
X030659Y019418D01*
X03061Y019427D01*
X029054D01*
X029028Y019477D01*
X029055Y019519D01*
X029072Y0196D01*
X029055Y019681D01*
X02901Y01975D01*
X029005Y019753D01*
X02902Y019803D01*
X029696D01*
X02971Y01978D01*
X029779Y019735D01*
X02986Y019718D01*
X029941Y019735D01*
X03001Y01978D01*
X030055Y019849D01*
X030072Y01993D01*
X030055Y020011D01*
X03001Y02008D01*
X029941Y020125D01*
X02986Y020142D01*
X029779Y020125D01*
X02971Y02008D01*
X029696Y020057D01*
X021861D01*
X02185Y020073D01*
X021875Y020123D01*
X02836D01*
X028409Y020132D01*
X02845Y02016D01*
X02995Y02166D01*
X029978Y021701D01*
X029987Y02175D01*
Y023924D01*
X030037Y023944D01*
X03011Y024D01*
X030166Y024073D01*
X030201Y024159D01*
X030213Y02425D01*
Y02455D01*
X030201Y024641D01*
X030166Y024727D01*
X03011Y0248D01*
X030037Y024856D01*
X029951Y024891D01*
X02986Y024903D01*
X029769Y024891D01*
X029683Y024856D01*
X02961Y0248D01*
X029554Y024727D01*
X029519Y024641D01*
X029507Y02455D01*
Y02425D01*
X029519Y024159D01*
X029554Y024073D01*
X02961Y024D01*
X029683Y023944D01*
X029733Y023924D01*
Y021803D01*
X028307Y020377D01*
X028146D01*
X028141Y020427D01*
X028165Y020432D01*
X028206Y02046D01*
X02895Y021204D01*
X028978Y021245D01*
X028987Y021294D01*
Y023924D01*
X029037Y023944D01*
X02911Y024D01*
X029166Y024073D01*
X029201Y024159D01*
X029213Y02425D01*
Y02455D01*
X029201Y024641D01*
X029166Y024727D01*
X02911Y0248D01*
X029037Y024856D01*
X028951Y024891D01*
X02886Y024903D01*
X028769Y024891D01*
X028683Y024856D01*
X02861Y0248D01*
X028554Y024727D01*
X028519Y024641D01*
X028507Y02455D01*
Y02425D01*
X028519Y024159D01*
X028554Y024073D01*
X02861Y024D01*
X028683Y023944D01*
X028733Y023924D01*
Y021347D01*
X028063Y020677D01*
X025285D01*
X02528Y020727D01*
X025304Y020732D01*
X025345Y02076D01*
X025995Y02141D01*
X026023Y021451D01*
X026033Y0215D01*
Y023943D01*
X026037Y023944D01*
X02611Y024D01*
X026166Y024073D01*
X026201Y024159D01*
X026213Y02425D01*
Y02455D01*
X026201Y024641D01*
X026166Y024727D01*
X02611Y0248D01*
X026037Y024856D01*
X025951Y024891D01*
X02586Y024903D01*
X025769Y024891D01*
X025683Y024856D01*
X02561Y0248D01*
X025554Y024727D01*
X025519Y024641D01*
X025507Y02455D01*
Y02425D01*
X025519Y024159D01*
X025554Y024073D01*
X02561Y024D01*
X025683Y023944D01*
X025769Y023909D01*
X025778Y023908D01*
Y021553D01*
X025202Y020977D01*
X021854D01*
X021828Y021027D01*
X021855Y021069D01*
X021872Y02115D01*
X021855Y021231D01*
X02181Y0213D01*
X021801Y021305D01*
X021793Y02136D01*
X021818Y021398D01*
X021831Y021463D01*
Y021956D01*
X021818Y022021D01*
X021781Y022077D01*
X021726Y022114D01*
X02166Y022127D01*
X021594Y022114D01*
X021539Y022077D01*
X021502Y022021D01*
X021489Y021956D01*
Y021463D01*
X021502Y021398D01*
X021527Y02136D01*
X021519Y021305D01*
X02151Y0213D01*
X021465Y021231D01*
X021448Y02115D01*
X021465Y021069D01*
X021492Y021027D01*
X021466Y020977D01*
X021354D01*
X021328Y021027D01*
X021355Y021069D01*
X021372Y02115D01*
X021355Y021231D01*
X02131Y0213D01*
X021301Y021305D01*
X021293Y02136D01*
X021318Y021398D01*
X021331Y021463D01*
Y021956D01*
X021318Y022021D01*
X021281Y022077D01*
X021226Y022114D01*
X02116Y022127D01*
X021094Y022114D01*
X021039Y022077D01*
X021002Y022021D01*
X020989Y021956D01*
Y021463D01*
X021002Y021398D01*
X021027Y02136D01*
X021019Y021305D01*
X02101Y0213D01*
X020965Y021231D01*
X020948Y02115D01*
X020965Y021069D01*
X020992Y021027D01*
X020966Y020977D01*
X020854D01*
X020828Y021027D01*
X020855Y021069D01*
X020872Y02115D01*
X020855Y021231D01*
X02081Y0213D01*
X020801Y021305D01*
X020793Y02136D01*
X020818Y021398D01*
X020831Y021463D01*
Y021956D01*
X020818Y022021D01*
X020781Y022077D01*
X020726Y022114D01*
X02066Y022127D01*
X020594Y022114D01*
X020539Y022077D01*
X020502Y022021D01*
X020489Y021956D01*
Y021463D01*
X020502Y021398D01*
X020527Y02136D01*
X020519Y021305D01*
X02051Y0213D01*
X020465Y021231D01*
X020448Y02115D01*
X020465Y021069D01*
X020492Y021027D01*
X020466Y020977D01*
X020354D01*
X020328Y021027D01*
X020355Y021069D01*
X020372Y02115D01*
X020355Y021231D01*
X02031Y0213D01*
X020301Y021305D01*
X020293Y02136D01*
X020318Y021398D01*
X020331Y021463D01*
Y021956D01*
X020318Y022021D01*
X020281Y022077D01*
X020226Y022114D01*
X02016Y022127D01*
X020094Y022114D01*
X020039Y022077D01*
X020002Y022021D01*
X019989Y021956D01*
Y021463D01*
X020002Y021398D01*
X020027Y02136D01*
X020019Y021305D01*
X02001Y0213D01*
X019965Y021231D01*
X019948Y02115D01*
X019965Y021069D01*
X019992Y021027D01*
X019966Y020977D01*
X019502D01*
X019479Y021027D01*
X019514Y021079D01*
X019528Y021151D01*
X019671Y021294D01*
X019726Y021305D01*
X019781Y021342D01*
X019818Y021398D01*
X019831Y021463D01*
Y021956D01*
X019818Y022021D01*
X019781Y022077D01*
X019726Y022114D01*
X01966Y022127D01*
X019594Y022114D01*
X019539Y022077D01*
X019502Y022021D01*
X019489Y021956D01*
Y021472D01*
X019376Y02136D01*
X019356Y021364D01*
X01932Y021396D01*
X019322Y021418D01*
X019331Y021463D01*
Y021956D01*
X019318Y022021D01*
X019287Y022067D01*
Y022336D01*
X01931Y02235D01*
X019355Y022419D01*
X019372Y0225D01*
X019355Y022581D01*
X01931Y02265D01*
X019241Y022695D01*
X01916Y022712D01*
X019079Y022695D01*
X01901Y02265D01*
X018965Y022581D01*
X018948Y0225D01*
X018965Y022419D01*
X01901Y02235D01*
X019033Y022336D01*
Y022067D01*
X019002Y022021D01*
X018989Y021956D01*
Y021463D01*
X019002Y021398D01*
X019039Y021342D01*
X019094Y021305D01*
X019113Y021301D01*
X019132Y021255D01*
X019123Y021241D01*
X019107Y02116D01*
X019123Y021079D01*
X019157Y021027D01*
X019135Y020977D01*
X018854D01*
X018828Y021027D01*
X018855Y021069D01*
X018872Y02115D01*
X018855Y021231D01*
X01881Y0213D01*
X018801Y021305D01*
X018793Y02136D01*
X018818Y021398D01*
X018831Y021463D01*
Y021956D01*
X018818Y022021D01*
X018781Y022077D01*
X018726Y022114D01*
X01866Y022127D01*
X018594Y022114D01*
X018539Y022077D01*
X018502Y022021D01*
X018489Y021956D01*
Y021463D01*
X018502Y021398D01*
X018527Y02136D01*
X018519Y021305D01*
X01851Y0213D01*
X018465Y021231D01*
X018451Y021161D01*
X018404Y021138D01*
X018287Y021254D01*
Y021352D01*
X018318Y021398D01*
X018331Y021463D01*
Y021956D01*
X018318Y022021D01*
X018281Y022077D01*
X018226Y022114D01*
X01816Y022127D01*
X018094Y022114D01*
X018039Y022077D01*
X018002Y022021D01*
X017989Y021956D01*
Y021463D01*
X018002Y021398D01*
X018033Y021352D01*
Y021201D01*
X018042Y021152D01*
X01807Y021111D01*
X018421Y02076D01*
X018462Y020732D01*
X018487Y020727D01*
X018482Y020677D01*
X018413D01*
X017798Y021292D01*
Y021368D01*
X017818Y021398D01*
X017831Y021463D01*
Y021956D01*
X017818Y022021D01*
X017781Y022077D01*
X017726Y022114D01*
X01766Y022127D01*
X017594Y022114D01*
X017539Y022077D01*
X017502Y022021D01*
X017489Y021956D01*
Y021463D01*
X017502Y021398D01*
X017539Y021342D01*
X017543Y021339D01*
Y021239D01*
X017553Y02119D01*
X017581Y021149D01*
X01827Y02046D01*
X018311Y020432D01*
X018335Y020427D01*
X01833Y020377D01*
X018163D01*
X017287Y021253D01*
Y021352D01*
X017318Y021398D01*
X017331Y021463D01*
Y021956D01*
X017318Y022021D01*
X017281Y022077D01*
X017226Y022114D01*
X01716Y022127D01*
X017094Y022114D01*
X017039Y022077D01*
X017002Y022021D01*
X016989Y021956D01*
Y021463D01*
X017002Y021398D01*
X017033Y021352D01*
Y0212D01*
X017042Y021151D01*
X01707Y02111D01*
X01802Y02016D01*
X018061Y020132D01*
X01811Y020123D01*
X018466D01*
X018492Y020073D01*
X018465Y020031D01*
X018448Y01995D01*
X018465Y019869D01*
X01851Y0198D01*
X018533Y019786D01*
Y01805D01*
X018542Y018001D01*
X01857Y01796D01*
X01902Y01751D01*
X019061Y017482D01*
X01911Y017473D01*
X02621D01*
X026259Y017482D01*
X0263Y01751D01*
X02672Y017929D01*
X026769Y017909D01*
X02686Y017897D01*
X026951Y017909D01*
X027Y017929D01*
X02747Y01746D01*
X027511Y017432D01*
X02756Y017423D01*
X027666D01*
X027692Y017373D01*
X027665Y017331D01*
X027648Y01725D01*
X027665Y017169D01*
X02771Y0171D01*
X027779Y017055D01*
X02786Y017038D01*
X027941Y017055D01*
X02801Y0171D01*
X028024Y017123D01*
X028666D01*
X028692Y017073D01*
X028665Y017031D01*
X028648Y01695D01*
X028665Y016869D01*
X02871Y0168D01*
X028779Y016755D01*
X02886Y016738D01*
X028941Y016755D01*
X02901Y0168D01*
X029024Y016823D01*
X02973D01*
X029745Y016773D01*
X02971Y01675D01*
X029665Y016681D01*
X029648Y0166D01*
X029665Y016519D01*
X02971Y01645D01*
X029779Y016405D01*
X02986Y016388D01*
X029941Y016405D01*
X03001Y01645D01*
X030055Y016519D01*
X030057Y016524D01*
X030667D01*
X030694Y016474D01*
X030665Y016431D01*
X030648Y01635D01*
X030665Y016269D01*
X03071Y0162D01*
X030779Y016155D01*
X03086Y016138D01*
X030941Y016155D01*
X03101Y0162D01*
X031024Y016223D01*
X03166D01*
X031709Y016232D01*
X03175Y01626D01*
X03355Y01806D01*
X033578Y018101D01*
X033587Y01815D01*
Y02495D01*
X033578Y024999D01*
X03355Y02504D01*
X032887Y025703D01*
Y026486D01*
X03291Y0265D01*
X032955Y026569D01*
X032972Y02665D01*
X032955Y026731D01*
X03291Y0268D01*
X032841Y026845D01*
X03276Y026862D01*
X032679Y026845D01*
X032637Y026818D01*
X032587Y026844D01*
Y028136D01*
X03261Y02815D01*
X032655Y028219D01*
X032672Y0283D01*
X032655Y028381D01*
X03261Y02845D01*
X032541Y028495D01*
X03246Y028512D01*
X032379Y028495D01*
X03231Y02845D01*
X032265Y028381D01*
X032248Y0283D01*
X032265Y028219D01*
X03231Y02815D01*
X032333Y028136D01*
Y025535D01*
X032342Y025486D01*
X03237Y025445D01*
X033033Y024782D01*
Y02473D01*
X032983Y024725D01*
X032978Y024749D01*
X03295Y02479D01*
X03165Y02609D01*
X031609Y026118D01*
X03156Y026127D01*
X03114D01*
X031135Y026177D01*
X031159Y026182D01*
X0312Y02621D01*
X03203Y02704D01*
X032058Y027081D01*
X032067Y02713D01*
Y030916D01*
X03209Y03093D01*
X032135Y030999D01*
X032152Y03108D01*
X032135Y031161D01*
X03209Y03123D01*
X032021Y031275D01*
X03194Y031292D01*
D02*
G37*
G36*
X01086Y027183D02*
X010756Y02717D01*
X010658Y027129D01*
X010575Y027065D01*
X010511Y026982D01*
X01047Y026884D01*
X010457Y02678D01*
X01047Y026676D01*
X010511Y026578D01*
X010575Y026495D01*
X010658Y026431D01*
X010756Y02639D01*
X01086Y026377D01*
X010964Y02639D01*
X011062Y026431D01*
X011145Y026495D01*
X011209Y026578D01*
X01125Y026676D01*
X011263Y02678D01*
X01125Y026884D01*
X011209Y026982D01*
X011145Y027065D01*
X011062Y027129D01*
X010964Y02717D01*
X01086Y027183D01*
D02*
G37*
G36*
X03Y031232D02*
X029919Y031215D01*
X02985Y03117D01*
X029805Y031101D01*
X029788Y03102D01*
X029805Y030939D01*
X02985Y03087D01*
X029873Y030856D01*
Y029543D01*
X029257Y028927D01*
X02586D01*
X025811Y028918D01*
X02577Y02889D01*
X02467Y02779D01*
X024642Y027749D01*
X024633Y0277D01*
Y025864D01*
X02461Y02585D01*
X024565Y025781D01*
X024548Y0257D01*
X024565Y025619D01*
X02461Y02555D01*
X024679Y025505D01*
X02476Y025488D01*
X024841Y025505D01*
X02491Y02555D01*
X024955Y025619D01*
X024972Y0257D01*
X024955Y025781D01*
X02491Y02585D01*
X024887Y025864D01*
Y027647D01*
X025913Y028673D01*
X02931D01*
X029359Y028682D01*
X0294Y02871D01*
X03009Y0294D01*
X030118Y029441D01*
X030127Y02949D01*
Y030856D01*
X03015Y03087D01*
X030195Y030939D01*
X030212Y03102D01*
X030195Y031101D01*
X03015Y03117D01*
X030081Y031215D01*
X03Y031232D01*
D02*
G37*
G36*
X01716Y026112D02*
X017079Y026095D01*
X01701Y02605D01*
X016965Y025981D01*
X016948Y0259D01*
X016965Y025819D01*
X01701Y02575D01*
X017016Y025723D01*
X017002Y025702D01*
X016989Y025637D01*
Y025144D01*
X017002Y025079D01*
X017039Y025023D01*
X017094Y024986D01*
X01716Y024973D01*
X017226Y024986D01*
X017281Y025023D01*
X017318Y025079D01*
X017331Y025144D01*
Y025637D01*
X017318Y025702D01*
X017304Y025723D01*
X01731Y02575D01*
X017355Y025819D01*
X017372Y0259D01*
X017355Y025981D01*
X01731Y02605D01*
X017241Y026095D01*
X01716Y026112D01*
D02*
G37*
G36*
X03086Y024903D02*
X030769Y024891D01*
X030683Y024856D01*
X03061Y0248D01*
X030554Y024727D01*
X030519Y024641D01*
X030507Y02455D01*
Y02425D01*
X030519Y024159D01*
X030554Y024073D01*
X03061Y024D01*
X030683Y023944D01*
X030769Y023909D01*
X03086Y023897D01*
X030951Y023909D01*
X031037Y023944D01*
X03111Y024D01*
X031166Y024073D01*
X031201Y024159D01*
X031213Y02425D01*
Y02455D01*
X031201Y024641D01*
X031166Y024727D01*
X03111Y0248D01*
X031037Y024856D01*
X030951Y024891D01*
X03086Y024903D01*
D02*
G37*
G36*
X02786D02*
X027769Y024891D01*
X027683Y024856D01*
X02761Y0248D01*
X027554Y024727D01*
X027519Y024641D01*
X027507Y02455D01*
Y02425D01*
X027519Y024159D01*
X027554Y024073D01*
X02761Y024D01*
X027683Y023944D01*
X027769Y023909D01*
X02786Y023897D01*
X027951Y023909D01*
X028037Y023944D01*
X02811Y024D01*
X028166Y024073D01*
X028201Y024159D01*
X028213Y02425D01*
Y02455D01*
X028201Y024641D01*
X028166Y024727D01*
X02811Y0248D01*
X028037Y024856D01*
X027951Y024891D01*
X02786Y024903D01*
D02*
G37*
G36*
X02686D02*
X026769Y024891D01*
X026683Y024856D01*
X02661Y0248D01*
X026554Y024727D01*
X026519Y024641D01*
X026507Y02455D01*
Y02425D01*
X026519Y024159D01*
X026554Y024073D01*
X02661Y024D01*
X026683Y023944D01*
X026769Y023909D01*
X02686Y023897D01*
X026951Y023909D01*
X027037Y023944D01*
X02711Y024D01*
X027166Y024073D01*
X027201Y024159D01*
X027213Y02425D01*
Y02455D01*
X027201Y024641D01*
X027166Y024727D01*
X02711Y0248D01*
X027037Y024856D01*
X026951Y024891D01*
X02686Y024903D01*
D02*
G37*
G36*
X01766Y025808D02*
X017594Y025795D01*
X017539Y025758D01*
X017502Y025702D01*
X017489Y025637D01*
Y025144D01*
X017502Y025079D01*
X017533Y025033D01*
Y0242D01*
X017542Y024151D01*
X01757Y02411D01*
X018592Y023088D01*
X018578Y02302D01*
X018595Y022939D01*
X01864Y02287D01*
X018709Y022825D01*
X01879Y022808D01*
X018871Y022825D01*
X01894Y02287D01*
X018985Y022939D01*
X019002Y02302D01*
X018985Y023101D01*
X01894Y02317D01*
X018871Y023215D01*
X018813Y023227D01*
X017787Y024253D01*
Y025033D01*
X017818Y025079D01*
X017831Y025144D01*
Y025637D01*
X017818Y025702D01*
X017781Y025758D01*
X017726Y025795D01*
X01766Y025808D01*
D02*
G37*
G36*
X02015Y023242D02*
X020069Y023225D01*
X02Y02318D01*
X019955Y023111D01*
X019938Y02303D01*
X019955Y022949D01*
X02Y02288D01*
X020069Y022835D01*
X02015Y022818D01*
X020231Y022835D01*
X0203Y02288D01*
X020314Y022903D01*
X025169D01*
X02519Y02287D01*
X025259Y022825D01*
X025305Y022815D01*
Y022765D01*
X025259Y022755D01*
X02519Y02271D01*
X025156Y022657D01*
X021324D01*
X02131Y02268D01*
X021241Y022725D01*
X02116Y022742D01*
X021079Y022725D01*
X02101Y02268D01*
X020965Y022611D01*
X020948Y02253D01*
X020965Y022449D01*
X02101Y02238D01*
X021079Y022335D01*
X02116Y022318D01*
X021241Y022335D01*
X02131Y02238D01*
X021324Y022403D01*
X025202D01*
X025259Y022365D01*
X02534Y022348D01*
X025421Y022365D01*
X02549Y02241D01*
X025535Y022479D01*
X025552Y02256D01*
X025535Y022641D01*
X02549Y02271D01*
X025421Y022755D01*
X025375Y022765D01*
Y022815D01*
X025421Y022825D01*
X02549Y02287D01*
X025535Y022939D01*
X025552Y02302D01*
X025535Y023101D01*
X02549Y02317D01*
X025421Y023215D01*
X02534Y023232D01*
X025259Y023215D01*
X02519Y02317D01*
X025182Y023157D01*
X020314D01*
X0203Y02318D01*
X020231Y023225D01*
X02015Y023242D01*
D02*
G37*
G36*
X02216Y022127D02*
X022094Y022114D01*
X022039Y022077D01*
X022002Y022021D01*
X021989Y021956D01*
Y021463D01*
X022002Y021398D01*
X022039Y021342D01*
X022094Y021305D01*
X02216Y021292D01*
X022226Y021305D01*
X022281Y021342D01*
X022318Y021398D01*
X022331Y021463D01*
Y021956D01*
X022318Y022021D01*
X022281Y022077D01*
X022226Y022114D01*
X02216Y022127D01*
D02*
G37*
G36*
X02986Y018903D02*
X029769Y018891D01*
X029683Y018856D01*
X02961Y0188D01*
X029554Y018727D01*
X029519Y018641D01*
X029507Y01855D01*
Y01825D01*
X029519Y018159D01*
X029554Y018073D01*
X02961Y018D01*
X029683Y017944D01*
X029769Y017909D01*
X02986Y017897D01*
X029951Y017909D01*
X030037Y017944D01*
X03011Y018D01*
X030166Y018073D01*
X030201Y018159D01*
X030213Y01825D01*
Y01855D01*
X030201Y018641D01*
X030166Y018727D01*
X03011Y0188D01*
X030037Y018856D01*
X029951Y018891D01*
X02986Y018903D01*
D02*
G37*
G36*
X02886D02*
X028769Y018891D01*
X028683Y018856D01*
X02861Y0188D01*
X028554Y018727D01*
X028519Y018641D01*
X028507Y01855D01*
Y01825D01*
X028519Y018159D01*
X028554Y018073D01*
X02861Y018D01*
X028683Y017944D01*
X028769Y017909D01*
X02886Y017897D01*
X028951Y017909D01*
X029037Y017944D01*
X02911Y018D01*
X029166Y018073D01*
X029201Y018159D01*
X029213Y01825D01*
Y01855D01*
X029201Y018641D01*
X029166Y018727D01*
X02911Y0188D01*
X029037Y018856D01*
X028951Y018891D01*
X02886Y018903D01*
D02*
G37*
G36*
X011795Y01908D02*
X010715D01*
Y01772D01*
X011795D01*
Y01908D01*
D02*
G37*
G36*
X01556Y022692D02*
X015479Y022675D01*
X01541Y02263D01*
X015365Y022561D01*
X015348Y02248D01*
X015365Y022399D01*
X01541Y02233D01*
X015433Y022316D01*
Y018102D01*
X015442Y018053D01*
X01547Y018011D01*
X015928Y017553D01*
Y013453D01*
X015938Y013404D01*
X015965Y013363D01*
X018754Y010574D01*
X018796Y010546D01*
X018844Y010536D01*
X037424D01*
X037472Y010546D01*
X037514Y010574D01*
X042382Y015441D01*
X042415Y015427D01*
X042427Y015416D01*
X042412Y015306D01*
Y014894D01*
X042428Y014778D01*
X042472Y01467D01*
X042544Y014577D01*
X042636Y014506D01*
X042744Y014461D01*
X04286Y014446D01*
X042976Y014461D01*
X043084Y014506D01*
X043176Y014577D01*
X043248Y01467D01*
X043292Y014778D01*
X043308Y014894D01*
Y015306D01*
X043292Y015422D01*
X043248Y01553D01*
X043176Y015623D01*
X043084Y015694D01*
X042976Y015739D01*
X04286Y015754D01*
X04275Y015739D01*
X042739Y015751D01*
X042725Y015785D01*
X042864Y015924D01*
X042892Y015966D01*
X042902Y016014D01*
Y016062D01*
X042976Y016071D01*
X043084Y016116D01*
X043176Y016187D01*
X043248Y01628D01*
X043292Y016388D01*
X043308Y016504D01*
Y016916D01*
X043292Y017032D01*
X043248Y01714D01*
X043176Y017233D01*
X043084Y017304D01*
X042976Y017349D01*
X04286Y017364D01*
X042744Y017349D01*
X042636Y017304D01*
X042544Y017233D01*
X042472Y01714D01*
X042428Y017032D01*
X042412Y016916D01*
Y016504D01*
X042428Y016388D01*
X042472Y01628D01*
X042544Y016187D01*
X042636Y016116D01*
X04264Y016114D01*
X042645Y016066D01*
X037371Y010791D01*
X018897D01*
X01786Y011829D01*
X017879Y011875D01*
X01841D01*
Y012625D01*
X01789D01*
X016981Y013534D01*
X016983Y013545D01*
X016967Y013626D01*
X016921Y013695D01*
X016852Y01374D01*
X016771Y013757D01*
X01669Y01374D01*
X016622Y013695D01*
X016576Y013626D01*
X01656Y013545D01*
X016576Y013464D01*
X016622Y013395D01*
X01669Y01335D01*
X016771Y013333D01*
X016813Y013342D01*
X01771Y012445D01*
Y012044D01*
X017664Y012025D01*
X016183Y013506D01*
Y017606D01*
X016173Y017655D01*
X016146Y017696D01*
X015687Y018154D01*
Y022316D01*
X01571Y02233D01*
X015755Y022399D01*
X015772Y02248D01*
X015755Y022561D01*
X01571Y02263D01*
X015641Y022675D01*
X01556Y022692D01*
D02*
G37*
G36*
X012482Y014967D02*
X011852D01*
X011771Y014951D01*
X011702Y014905D01*
X011656Y014836D01*
X01164Y014755D01*
Y01444D01*
X011656Y014359D01*
X011702Y014291D01*
X011771Y014245D01*
X011852Y014229D01*
X012482D01*
X012563Y014245D01*
X012631Y014291D01*
X012677Y014359D01*
X012693Y01444D01*
Y014755D01*
X012677Y014836D01*
X012631Y014905D01*
X012563Y014951D01*
X012482Y014967D01*
D02*
G37*
G36*
X02291Y017272D02*
X022829Y017255D01*
X02276Y01721D01*
X022715Y017141D01*
X022698Y01706D01*
X022715Y016979D01*
X02276Y01691D01*
X022829Y016865D01*
X022904Y01685D01*
X025142Y014612D01*
X025191Y014579D01*
X02525Y014567D01*
X033027D01*
X0332Y014394D01*
X033215Y014319D01*
X03326Y01425D01*
X033329Y014205D01*
X03341Y014188D01*
X033491Y014205D01*
X03356Y01425D01*
X033605Y014319D01*
X033622Y0144D01*
X033605Y014481D01*
X03356Y01455D01*
X033491Y014595D01*
X033416Y01461D01*
X033198Y014828D01*
X033149Y014861D01*
X03309Y014873D01*
X025313D01*
X02312Y017066D01*
X023105Y017141D01*
X02306Y01721D01*
X022991Y017255D01*
X02291Y017272D01*
D02*
G37*
G36*
X02206Y017212D02*
X021979Y017195D01*
X02191Y01715D01*
X021865Y017081D01*
X021848Y017D01*
X021865Y016919D01*
X02191Y01685D01*
X021979Y016805D01*
X022027Y016795D01*
X024428Y014394D01*
X024443Y014319D01*
X024489Y01425D01*
X024557Y014205D01*
X024638Y014188D01*
X024719Y014205D01*
X024788Y01425D01*
X024834Y014319D01*
X02485Y0144D01*
X024834Y014481D01*
X024788Y01455D01*
X024719Y014595D01*
X024644Y01461D01*
X022269Y016986D01*
X022272Y017D01*
X022255Y017081D01*
X02221Y01715D01*
X022141Y017195D01*
X02206Y017212D01*
D02*
G37*
G36*
X03591Y015862D02*
X035829Y015845D01*
X03576Y0158D01*
X035715Y015731D01*
X035698Y01565D01*
X035715Y015569D01*
X03576Y0155D01*
X035783Y015486D01*
Y014125D01*
X03556D01*
Y013375D01*
X03626D01*
Y014125D01*
X036037D01*
Y015486D01*
X03606Y0155D01*
X036105Y015569D01*
X036122Y01565D01*
X036105Y015731D01*
X03606Y0158D01*
X035991Y015845D01*
X03591Y015862D01*
D02*
G37*
G36*
X040111Y02144D02*
X038129D01*
Y0201D01*
X038993D01*
Y018613D01*
X037336Y016956D01*
X03731Y016962D01*
X037229Y016945D01*
X03716Y0169D01*
X037115Y016831D01*
X037098Y01675D01*
X037115Y016669D01*
X03716Y0166D01*
X037229Y016555D01*
X03731Y016538D01*
X037391Y016555D01*
X03746Y0166D01*
X037505Y016669D01*
X037522Y01675D01*
X037516Y016776D01*
X03921Y01847D01*
X039238Y018511D01*
X039247Y01856D01*
Y0201D01*
X039931D01*
X041831Y0182D01*
X041872Y018172D01*
X041921Y018163D01*
X042412D01*
Y018084D01*
X042428Y017968D01*
X042472Y01786D01*
X042544Y017767D01*
X042636Y017696D01*
X042744Y017651D01*
X04286Y017636D01*
X042976Y017651D01*
X043084Y017696D01*
X043176Y017767D01*
X043248Y01786D01*
X043292Y017968D01*
X043308Y018084D01*
Y018138D01*
X043358Y018152D01*
X043833Y017677D01*
Y013341D01*
X04321Y012718D01*
X040779D01*
X040765Y01274D01*
X040696Y012786D01*
X040615Y012802D01*
X040534Y012786D01*
X040465Y01274D01*
X04042Y012671D01*
X040403Y01259D01*
X04042Y012509D01*
X040465Y012441D01*
X040534Y012395D01*
X040615Y012379D01*
X040696Y012395D01*
X040765Y012441D01*
X040779Y012463D01*
X043263D01*
X043311Y012473D01*
X043353Y0125D01*
X04405Y013198D01*
X044078Y013239D01*
X044087Y013288D01*
Y01773D01*
X044078Y017779D01*
X04405Y01782D01*
X04349Y01838D01*
X043449Y018408D01*
X0434Y018417D01*
X043308D01*
Y018496D01*
X043292Y018612D01*
X043248Y01872D01*
X043176Y018813D01*
X043084Y018884D01*
X042976Y018929D01*
X04286Y018944D01*
X042744Y018929D01*
X042636Y018884D01*
X042544Y018813D01*
X042472Y01872D01*
X042428Y018612D01*
X042412Y018496D01*
Y018417D01*
X041974D01*
X040111Y02028D01*
Y02144D01*
D02*
G37*
G36*
X02581Y013662D02*
X025729Y013645D01*
X02566Y0136D01*
X025615Y013531D01*
X025598Y01345D01*
X025615Y013369D01*
X02566Y0133D01*
X025729Y013255D01*
X02581Y013238D01*
X025857Y013248D01*
X02656Y012545D01*
Y011975D01*
X02726D01*
Y012725D01*
X02674D01*
X026021Y013445D01*
X026022Y01345D01*
X026005Y013531D01*
X02596Y0136D01*
X025891Y013645D01*
X02581Y013662D01*
D02*
G37*
G36*
X03463Y013671D02*
X034549Y013655D01*
X034481Y013609D01*
X034435Y013541D01*
X034419Y01346D01*
X034435Y013379D01*
X034481Y01331D01*
X034549Y013264D01*
X03463Y013248D01*
X034656Y013253D01*
X0355Y01241D01*
X035541Y012382D01*
X03556Y012378D01*
Y011875D01*
X03626D01*
Y012625D01*
X035697D01*
X035685Y012627D01*
X035642D01*
X034837Y013433D01*
X034842Y01346D01*
X034826Y013541D01*
X03478Y013609D01*
X034711Y013655D01*
X03463Y013671D01*
D02*
G37*
G36*
X01614Y018592D02*
X016059Y018575D01*
X01599Y01853D01*
X015945Y018461D01*
X015928Y01838D01*
X015945Y018299D01*
X01599Y01823D01*
X016059Y018185D01*
X01614Y018168D01*
X016166Y018174D01*
X019233Y015107D01*
Y012625D01*
X01901D01*
Y011875D01*
X019555D01*
X02012Y01131D01*
X020161Y011282D01*
X02021Y011273D01*
X02726D01*
X027309Y011282D01*
X02735Y01131D01*
X028015Y011975D01*
X028405D01*
X02907Y01131D01*
X029111Y011282D01*
X02916Y011273D01*
X03636D01*
X036409Y011282D01*
X03645Y01131D01*
X037015Y011875D01*
X037083D01*
Y011264D01*
X03706Y01125D01*
X037015Y011181D01*
X036998Y0111D01*
X037015Y011019D01*
X03706Y01095D01*
X037129Y010905D01*
X03721Y010888D01*
X037291Y010905D01*
X03736Y01095D01*
X037405Y011019D01*
X037422Y0111D01*
X037405Y011181D01*
X03736Y01125D01*
X037337Y011264D01*
Y011875D01*
X03756D01*
Y012625D01*
X037337D01*
Y013375D01*
X03756D01*
Y014125D01*
X03686D01*
Y013375D01*
X037083D01*
Y012625D01*
X03686D01*
Y01208D01*
X036307Y011527D01*
X029213D01*
X02856Y01218D01*
Y012725D01*
X02786D01*
Y01218D01*
X027207Y011527D01*
X020263D01*
X01971Y01208D01*
Y012625D01*
X019487D01*
Y01516D01*
X019478Y015209D01*
X01945Y01525D01*
X016346Y018354D01*
X016352Y01838D01*
X016335Y018461D01*
X01629Y01853D01*
X016221Y018575D01*
X01614Y018592D01*
D02*
G37*
G36*
X04216Y011743D02*
X042015Y011728D01*
X041876Y011686D01*
X041747Y011617D01*
X041635Y011525D01*
X041543Y011413D01*
X041474Y011284D01*
X041432Y011145D01*
X041417Y011D01*
X041432Y010855D01*
X041474Y010716D01*
X041543Y010587D01*
X041635Y010475D01*
X041747Y010383D01*
X041876Y010314D01*
X042015Y010272D01*
X04216Y010257D01*
X042305Y010272D01*
X042444Y010314D01*
X042573Y010383D01*
X042685Y010475D01*
X042777Y010587D01*
X042846Y010716D01*
X042888Y010855D01*
X042903Y011D01*
X042888Y011145D01*
X042846Y011284D01*
X042777Y011413D01*
X042685Y011525D01*
X042573Y011617D01*
X042444Y011686D01*
X042305Y011728D01*
X04216Y011743D01*
D02*
G37*
G36*
X01426D02*
X014115Y011728D01*
X013976Y011686D01*
X013847Y011617D01*
X013735Y011525D01*
X013643Y011413D01*
X013574Y011284D01*
X013532Y011145D01*
X013517Y011D01*
X013532Y010855D01*
X013574Y010716D01*
X013643Y010587D01*
X013735Y010475D01*
X013847Y010383D01*
X013976Y010314D01*
X014115Y010272D01*
X01426Y010257D01*
X014405Y010272D01*
X014544Y010314D01*
X014673Y010383D01*
X014785Y010475D01*
X014877Y010587D01*
X014946Y010716D01*
X014988Y010855D01*
X015003Y011D01*
X014988Y011145D01*
X014946Y011284D01*
X014877Y011413D01*
X014785Y011525D01*
X014673Y011617D01*
X014544Y011686D01*
X014405Y011728D01*
X01426Y011743D01*
D02*
G37*
G36*
X012482Y010951D02*
X011852D01*
X011771Y010935D01*
X011702Y010889D01*
X011656Y010821D01*
X01164Y01074D01*
Y010425D01*
X011656Y010344D01*
X011702Y010275D01*
X011771Y010229D01*
X011852Y010213D01*
X012482D01*
X012563Y010229D01*
X012631Y010275D01*
X012677Y010344D01*
X012693Y010425D01*
Y01074D01*
X012677Y010821D01*
X012631Y010889D01*
X012563Y010935D01*
X012482Y010951D01*
D02*
G37*
%LPD*%
G36*
X028694Y019753D02*
X028676Y019727D01*
X02185D01*
X021826Y019777D01*
X021844Y019803D01*
X02867D01*
X028694Y019753D01*
D02*
G37*
G36*
X021506Y020073D02*
X021465Y020011D01*
X021448Y01993D01*
X021465Y019849D01*
X02151Y01978D01*
X021515Y019777D01*
X0215Y019727D01*
X021324D01*
X02131Y01975D01*
X021241Y019795D01*
X02116Y019812D01*
X021079Y019795D01*
X02101Y01975D01*
X020965Y019681D01*
X020948Y0196D01*
X020965Y019519D01*
X020992Y019477D01*
X020966Y019427D01*
X020824D01*
X02081Y01945D01*
X020741Y019495D01*
X02066Y019512D01*
X020579Y019495D01*
X02051Y01945D01*
X020465Y019381D01*
X020448Y0193D01*
X020465Y019219D01*
X020492Y019177D01*
X020466Y019127D01*
X020324D01*
X02031Y01915D01*
X020241Y019195D01*
X02016Y019212D01*
X020079Y019195D01*
X02001Y01915D01*
X019965Y019081D01*
X019948Y019D01*
X019958Y018953D01*
X019912Y018929D01*
X019787Y019053D01*
Y019786D01*
X01981Y0198D01*
X019855Y019869D01*
X019872Y01995D01*
X019855Y020031D01*
X019828Y020073D01*
X019854Y020123D01*
X021492D01*
X021506Y020073D01*
D02*
G37*
G36*
X02564Y018823D02*
X02561Y0188D01*
X025554Y018727D01*
X025519Y018641D01*
X025509Y018568D01*
X020272D01*
X020089Y018752D01*
X020113Y018798D01*
X02016Y018788D01*
X020241Y018805D01*
X02031Y01885D01*
X020324Y018873D01*
X025623D01*
X02564Y018823D01*
D02*
G37*
G36*
X032733Y024647D02*
Y018403D01*
X032678Y018348D01*
X032632Y018373D01*
X032637Y0184D01*
Y02455D01*
X032628Y024599D01*
X0326Y02464D01*
X03145Y02579D01*
X031409Y025818D01*
X031385Y025823D01*
X03139Y025873D01*
X031507D01*
X032733Y024647D01*
D02*
G37*
G36*
X019483Y019029D02*
X019486Y019029D01*
X019533Y019021D01*
Y019D01*
X019542Y018951D01*
X01957Y01891D01*
X020129Y01835D01*
X020171Y018323D01*
X02022Y018313D01*
X025507D01*
Y01825D01*
X025519Y018159D01*
X025554Y018073D01*
X02561Y018D01*
X025683Y017944D01*
X025769Y017909D01*
X02586Y017897D01*
X025951Y017909D01*
X026037Y017944D01*
X02611Y018D01*
X026166Y018073D01*
X026201Y018159D01*
X026213Y01825D01*
Y01855D01*
X026201Y018641D01*
X026166Y018727D01*
X02611Y0188D01*
X02608Y018823D01*
X026097Y018873D01*
X026623D01*
X02664Y018823D01*
X02661Y0188D01*
X026554Y018727D01*
X026519Y018641D01*
X026507Y01855D01*
Y01825D01*
X026519Y018159D01*
X026539Y01811D01*
X026157Y017727D01*
X019163D01*
X018787Y018103D01*
Y018431D01*
X018834Y018438D01*
X018837Y018438D01*
X019033D01*
Y018264D01*
X01901Y01825D01*
X018965Y018181D01*
X018948Y0181D01*
X018965Y018019D01*
X01901Y01795D01*
X019079Y017905D01*
X01916Y017888D01*
X019241Y017905D01*
X01931Y01795D01*
X019355Y018019D01*
X019372Y0181D01*
X019355Y018181D01*
X01931Y01825D01*
X019287Y018264D01*
Y018438D01*
X019486D01*
Y018971D01*
X018837D01*
X018834Y018971D01*
X018812Y018975D01*
Y018989D01*
X018861Y019029D01*
X019483D01*
D02*
G37*
%LPC*%
G36*
X02336Y027124D02*
X023279Y027108D01*
X02321Y027062D01*
X023165Y026993D01*
X023148Y026913D01*
X023165Y026832D01*
X02321Y026763D01*
X023233Y026748D01*
Y025453D01*
X022557Y024777D01*
X021963D01*
X021787Y024953D01*
Y025033D01*
X021818Y025079D01*
X021831Y025144D01*
Y025637D01*
X021818Y025702D01*
X021781Y025758D01*
X021726Y025795D01*
X02166Y025808D01*
X021594Y025795D01*
X021539Y025758D01*
X021502Y025702D01*
X021489Y025637D01*
Y025144D01*
X021502Y025079D01*
X021533Y025033D01*
Y0249D01*
X021542Y024851D01*
X02157Y02481D01*
X02182Y02456D01*
X021861Y024532D01*
X02191Y024523D01*
X02261D01*
X022659Y024532D01*
X0227Y02456D01*
X02345Y02531D01*
X023478Y025351D01*
X023487Y0254D01*
Y026748D01*
X02351Y026763D01*
X023555Y026832D01*
X023572Y026913D01*
X023555Y026993D01*
X02351Y027062D01*
X023441Y027108D01*
X02336Y027124D01*
D02*
G37*
G36*
X02116Y025808D02*
X021094Y025795D01*
X021039Y025758D01*
X021002Y025702D01*
X020989Y025637D01*
Y025144D01*
X021002Y025079D01*
X021033Y025033D01*
Y024714D01*
X02101Y0247D01*
X020965Y024631D01*
X020948Y02455D01*
X020965Y024469D01*
X02101Y0244D01*
X021079Y024355D01*
X02116Y024338D01*
X021241Y024355D01*
X02131Y0244D01*
X021355Y024469D01*
X021372Y02455D01*
X021355Y024631D01*
X02131Y0247D01*
X021287Y024714D01*
Y025033D01*
X021318Y025079D01*
X021331Y025144D01*
Y025637D01*
X021318Y025702D01*
X021281Y025758D01*
X021226Y025795D01*
X02116Y025808D01*
D02*
G37*
%LPD*%
D24*
X011255Y0184D02*
D03*
D25*
X013425Y019302D02*
D03*
Y0184D02*
D03*
Y017498D02*
D03*
D26*
X013552Y028326D02*
D03*
X012568Y0287D02*
D03*
X013552Y029074D02*
D03*
D27*
X012285Y013515D02*
D03*
Y011665D02*
D03*
D28*
Y013102D02*
D03*
Y012846D02*
D03*
Y01259D02*
D03*
Y012334D02*
D03*
Y012078D02*
D03*
D29*
X03721Y01375D02*
D03*
X03591D02*
D03*
X01366Y032D02*
D03*
X01236D02*
D03*
X01366Y03025D02*
D03*
X01236D02*
D03*
X01936Y01225D02*
D03*
X01806D02*
D03*
X02821Y01235D02*
D03*
X02691D02*
D03*
X03721Y01225D02*
D03*
X03591D02*
D03*
D30*
X03911Y03201D02*
D03*
X03912Y02077D02*
D03*
D31*
X01916Y018705D02*
D03*
Y019295D02*
D03*
X02256Y028705D02*
D03*
Y029295D02*
D03*
D32*
X01666Y021709D02*
D03*
X01716D02*
D03*
X01766D02*
D03*
X01816D02*
D03*
X01866D02*
D03*
X01916D02*
D03*
X01966D02*
D03*
X02016D02*
D03*
X02066D02*
D03*
X02116D02*
D03*
X02166D02*
D03*
X02216D02*
D03*
X01666Y025391D02*
D03*
X01716D02*
D03*
X01766D02*
D03*
X01816D02*
D03*
X01866D02*
D03*
X01916D02*
D03*
X01966D02*
D03*
X02016D02*
D03*
X02066D02*
D03*
X02116D02*
D03*
X02166D02*
D03*
X02216D02*
D03*
D33*
X019255Y03415D02*
D03*
X018665D02*
D03*
X016969D02*
D03*
X01756D02*
D03*
X012715Y03115D02*
D03*
X013305D02*
D03*
D34*
X014388Y0335D02*
D03*
X011632D02*
D03*
D35*
X02146Y03095D02*
D03*
Y02965D02*
D03*
Y03185D02*
D03*
Y03315D02*
D03*
D36*
X024732Y0301D02*
D03*
Y0306D02*
D03*
Y0311D02*
D03*
Y0316D02*
D03*
X022587D02*
D03*
Y0311D02*
D03*
Y0306D02*
D03*
Y0301D02*
D03*
D37*
X01998Y0356D02*
D03*
X01624D02*
D03*
D38*
X01528Y02903D02*
D03*
Y029345D02*
D03*
Y02966D02*
D03*
Y029975D02*
D03*
Y03029D02*
D03*
Y030605D02*
D03*
Y03092D02*
D03*
Y031235D02*
D03*
Y03155D02*
D03*
Y031865D02*
D03*
Y03218D02*
D03*
X01999D02*
D03*
Y031865D02*
D03*
Y03155D02*
D03*
Y031235D02*
D03*
Y03092D02*
D03*
Y030605D02*
D03*
Y03029D02*
D03*
Y029975D02*
D03*
Y02966D02*
D03*
Y029345D02*
D03*
Y02903D02*
D03*
D39*
X01606Y032959D02*
D03*
X016375D02*
D03*
X01669D02*
D03*
X017005D02*
D03*
X01732D02*
D03*
X017635D02*
D03*
X01795D02*
D03*
X018265D02*
D03*
X01858D02*
D03*
X018895D02*
D03*
X01921D02*
D03*
Y02825D02*
D03*
X018895D02*
D03*
X01858D02*
D03*
X018265D02*
D03*
X01795D02*
D03*
X017635D02*
D03*
X01732D02*
D03*
X017005D02*
D03*
X01669D02*
D03*
X016375D02*
D03*
X01606D02*
D03*
D64*
X018985Y030295D02*
X019984D01*
X01875Y03006D02*
X018985Y030295D01*
X018265Y02825D02*
Y031905D01*
X01866Y0323D01*
X02586Y0327D02*
X02659Y03197D01*
X02999D01*
X02971Y0324D02*
X03191D01*
X02886Y03325D02*
X02971Y0324D01*
X03865Y03155D02*
X03911Y03201D01*
X025365Y03155D02*
X03865D01*
X03291Y03275D02*
X033425Y032235D01*
X033513D01*
X024915Y0311D02*
X025365Y03155D01*
X03Y02949D02*
Y03102D01*
X02931Y0288D02*
X03Y02949D01*
X03111Y0263D02*
X03194Y02713D01*
Y03108D01*
X02393Y03242D02*
X02561Y0341D01*
X022563Y02412D02*
X02393Y025487D01*
Y03242D01*
X02253Y02672D02*
X02366Y02785D01*
Y03255D02*
X02546Y03435D01*
X02366Y02785D02*
Y03255D01*
X02336Y0254D02*
Y026913D01*
X02261Y02465D02*
X02336Y0254D01*
Y02821D02*
X02337Y02822D01*
Y03266D01*
X02536Y03465D01*
X023058Y028702D02*
X023059Y028701D01*
X02256Y028705D02*
X022562Y028702D01*
X023058D01*
X02431Y0314D02*
X02432Y03141D01*
X02436D02*
X02455Y0316D01*
X02432Y03141D02*
X02436D01*
X019215Y028055D02*
X01955Y02772D01*
X02287D01*
X020169Y024631D02*
Y025382D01*
X02016Y025391D02*
X020169Y025382D01*
X02013Y02412D02*
X022563D01*
X01966Y02459D02*
Y025391D01*
Y02459D02*
X02013Y02412D01*
X019818Y023862D02*
X024222D01*
X01916Y02452D02*
Y025391D01*
Y02452D02*
X019818Y023862D01*
X01879Y02302D02*
Y02307D01*
X01766Y0242D02*
X01879Y02307D01*
X02015Y02303D02*
X02533D01*
X02534Y02302D01*
X0197Y02253D02*
Y02276D01*
X01866Y0238D02*
X0197Y02276D01*
X02116Y02253D02*
X02531D01*
X02534Y02256D01*
X024222Y023862D02*
X02586Y0255D01*
X02017Y02358D02*
X02528D01*
X02536Y0235D01*
X02116Y02455D02*
Y025391D01*
X01716Y02672D02*
X02253D01*
X016958Y02705D02*
X018093D01*
X018889Y027846D02*
Y028245D01*
X018093Y02705D02*
X018889Y027846D01*
X01643Y02691D02*
X016818D01*
X016958Y02705D01*
X017315Y02781D02*
Y028245D01*
X017098Y027592D02*
X017315Y02781D01*
X0164Y02731D02*
X018038D01*
X01858Y027851D01*
X017315Y028245D02*
X01732Y02825D01*
X01858Y027851D02*
Y02825D01*
X013425Y0184D02*
X01343Y018395D01*
X014415D01*
X01442Y01839D01*
X013425Y017498D02*
X013426Y017499D01*
X014439D01*
X01444Y0175D01*
X01357Y01578D02*
X0155Y01385D01*
Y01257D02*
Y01385D01*
X013425Y017498D02*
X01347D01*
X01357Y017398D01*
Y01578D02*
Y017398D01*
X01037Y01726D02*
Y02043D01*
Y01726D02*
X01183Y0158D01*
X01179Y02185D02*
X01306D01*
X01037Y02043D02*
X01179Y02185D01*
X01328Y019282D02*
X013595D01*
X01233Y01592D02*
X01396Y01429D01*
Y01385D02*
Y01429D01*
X01233Y01592D02*
Y01899D01*
X012642Y019302D01*
X013425D01*
X0148Y01521D02*
X01561Y0144D01*
X0148Y02934D02*
X01512Y02966D01*
X0148Y01521D02*
Y02934D01*
X01526Y0254D02*
X01527Y02541D01*
Y029019D02*
X01528Y02903D01*
X01527Y02541D02*
Y029019D01*
X01556Y018102D02*
X016056Y017606D01*
X01556Y018102D02*
Y02248D01*
X01936Y01225D02*
Y01516D01*
X01614Y01838D02*
Y01838D01*
Y01838D02*
X01936Y01516D01*
X015008Y012078D02*
X0155Y01257D01*
X012285Y012078D02*
X015008D01*
X01679Y013545D02*
X01806Y012275D01*
X016771Y013545D02*
X01679D01*
X02166Y01993D02*
X02986D01*
X02116Y0196D02*
X02886D01*
X027852Y024392D02*
X02786Y0244D01*
X02686Y01825D02*
Y0184D01*
X01401Y02678D02*
X01422Y02657D01*
X01298Y02678D02*
X01401D01*
X012285Y013102D02*
X013212D01*
X01396Y01385D01*
X01867Y03352D02*
Y034135D01*
X01866Y034145D02*
X01867Y034135D01*
X018889Y028245D02*
X018895Y02825D01*
X01347Y02778D02*
X01424Y02701D01*
X01294Y02778D02*
X01347D01*
X02172Y02639D02*
X02216Y02595D01*
X01642Y02639D02*
X02172D01*
X01606Y02675D02*
X01642Y02639D01*
X013562Y029074D02*
X01446Y028176D01*
Y0277D02*
Y028176D01*
X019357Y02116D02*
X01966Y021463D01*
X019318Y02116D02*
X019357D01*
X018511Y02085D02*
X025255D01*
X01816Y021201D02*
X018511Y02085D01*
X025255D02*
X025905Y0215D01*
X019215Y028055D02*
Y028245D01*
X01921Y02825D02*
X019215Y028245D01*
X012568Y025337D02*
Y0287D01*
Y025337D02*
X013055Y02485D01*
X01236Y029508D02*
X013542Y028326D01*
X01236Y029508D02*
Y03025D01*
X013562Y029074D02*
X01471Y030222D01*
X013542Y028326D02*
X013552D01*
Y029074D02*
X013562D01*
X012568Y0287D02*
X012578D01*
X01916Y018705D02*
X01916Y018705D01*
Y0181D02*
Y018705D01*
X01916Y019295D02*
Y0199D01*
X01916Y0199D01*
X01966Y021463D02*
Y021709D01*
X01306Y02185D02*
Y02255D01*
X01431Y0238D01*
X01181Y0231D02*
Y0307D01*
Y0231D02*
X01306Y02185D01*
X01816Y0245D02*
Y025391D01*
Y025665D02*
Y0261D01*
Y025637D02*
X018473Y02595D01*
X01528Y030605D02*
X015755D01*
X01216Y03115D02*
X01226D01*
X012715D01*
X01761Y028736D02*
Y02875D01*
X015755Y030605D02*
X01666Y0297D01*
X011632Y031678D02*
X01216Y03115D01*
X01181Y0307D02*
X01226Y03115D01*
X011632Y031678D02*
Y0335D01*
X017635Y027739D02*
X01766Y027714D01*
X01761Y028736D02*
X017635Y028712D01*
Y02825D02*
Y028712D01*
X01766Y0277D02*
Y027714D01*
X017635Y027739D02*
Y02825D01*
Y032725D02*
X01811Y03225D01*
X017635Y032959D02*
Y033127D01*
Y032725D02*
Y032959D01*
X040615Y01259D02*
X043263D01*
X04396Y013288D01*
Y01773D01*
X03731Y01675D02*
X03912Y01856D01*
Y02077D01*
X039441D01*
X0434Y01829D02*
X04396Y01773D01*
X039441Y02077D02*
X041921Y01829D01*
X04286D02*
X0434D01*
X041921D02*
X04286D01*
X018473Y02595D02*
X020347D01*
X020427Y03092D02*
X020446Y0309D01*
X02046D01*
X019813Y030929D02*
X019981D01*
X01999Y03092D02*
X020427D01*
X019981Y030929D02*
X01999Y03092D01*
X019255Y033605D02*
Y03415D01*
Y033605D02*
X01951Y03335D01*
Y031232D02*
X019813Y030929D01*
X01951Y031232D02*
Y03335D01*
X020632Y025419D02*
X02066Y025391D01*
X020347Y02595D02*
X020632Y025665D01*
Y025419D02*
Y025665D01*
X02455Y0316D02*
X024732D01*
X03591Y01375D02*
Y01565D01*
X03721Y01225D02*
Y01375D01*
X018844Y010664D02*
X037424D01*
X042774Y016624D02*
X04286Y01671D01*
X037424Y010664D02*
X042774Y016014D01*
Y016624D01*
X016056Y013453D02*
Y017606D01*
Y013453D02*
X018844Y010664D01*
X024732Y0311D02*
X024915D01*
X03721Y0111D02*
Y012225D01*
X01916Y021709D02*
Y0225D01*
X013477Y03092D02*
X01471D01*
Y030222D02*
Y03092D01*
X01528D01*
X01236Y032D02*
X012397Y031963D01*
X012797D01*
X013202Y031194D02*
X013477Y03092D01*
X012797Y031963D02*
X013202Y031558D01*
Y031194D02*
Y031558D01*
X015796Y0309D02*
X01581D01*
X01871Y0306D02*
X018712Y030602D01*
X01951D01*
X01528Y03092D02*
X015777D01*
X015796Y0309D01*
X01916Y030952D02*
X01951Y030602D01*
X01961Y012D02*
X02021Y0114D01*
X01936Y012225D02*
X019585Y012D01*
X01961D01*
X02021Y0114D02*
X02726D01*
X02796Y0121D01*
X027985D01*
X01936Y012225D02*
Y01225D01*
X027985Y0121D02*
X02821Y012325D01*
X028435Y0121D01*
X02821Y012325D02*
Y01235D01*
X02916Y0114D02*
X03636D01*
X028435Y0121D02*
X02846D01*
X02916Y0114D01*
X03636D02*
X03696Y012D01*
X036985D01*
X03721Y012225D01*
X01951Y030602D02*
X019987D01*
X01916Y030952D02*
Y0317D01*
X019987Y030602D02*
X01999Y030605D01*
X01986Y03265D02*
X02036Y03315D01*
X021435Y02965D02*
X02146D01*
X021685Y029425D01*
X022059Y029295D02*
X02256D01*
X021685Y029425D02*
X02193D01*
X022059Y029295D01*
X02048Y030605D02*
X021435Y02965D01*
X01999Y030605D02*
X02048D01*
X02036Y03315D02*
X02146D01*
X02256Y029295D02*
Y030073D01*
X022587Y0301D01*
X01966Y019D02*
Y01995D01*
X01866Y01805D02*
Y01995D01*
X01811Y02025D02*
X02836D01*
X01716Y0212D02*
X01811Y02025D01*
X02836D02*
X02986Y02175D01*
X02886Y03325D02*
Y0334D01*
X03036Y03275D02*
X03291D01*
X02986Y03325D02*
X03036Y03275D01*
X02986Y03325D02*
Y0334D01*
X01866Y02115D02*
Y021709D01*
X03276Y02565D02*
Y02665D01*
X03246Y025535D02*
Y0283D01*
Y025535D02*
X03316Y024835D01*
X03346Y01815D02*
Y02495D01*
X03276Y02565D02*
X03346Y02495D01*
X03316Y01825D02*
Y024835D01*
X03166Y01635D02*
X03346Y01815D01*
X03086Y01635D02*
X03166D01*
X031562Y016652D02*
X03316Y01825D01*
X03086Y02665D02*
Y0274D01*
X02976Y0263D02*
X03111D01*
X029925Y016652D02*
X031562D01*
X02986Y0166D02*
X029874D01*
X029925Y016652D01*
X03061Y0283D02*
X03146D01*
X02986Y02755D02*
X03061Y0283D01*
X02986Y0274D02*
Y02755D01*
X02586Y0327D02*
Y0334D01*
X03286Y01835D02*
Y0247D01*
X02886Y01695D02*
X03146D01*
X03286Y01835D01*
X03136Y01725D02*
X03251Y0184D01*
X02786Y01725D02*
X03136D01*
X03251Y0184D02*
Y02455D01*
X02931Y026D02*
X03156D01*
X03286Y0247D01*
X02886Y02645D02*
X02931Y026D01*
X02886Y02645D02*
Y0274D01*
X01756Y0336D02*
Y03415D01*
Y0323D02*
X01795Y03191D01*
Y02825D02*
Y03191D01*
X02476Y0257D02*
Y0277D01*
X02586Y0288D01*
X02931D01*
X02586Y0255D02*
Y0274D01*
X02686Y01825D02*
X02756Y01755D01*
X03126D02*
X03221Y0185D01*
X02756Y01755D02*
X03126D01*
X03221Y0185D02*
Y0244D01*
X03136Y0257D02*
X03251Y02455D01*
X02831Y0257D02*
X03136D01*
X02736Y019D02*
X02786Y0185D01*
Y0184D02*
Y0185D01*
Y02615D02*
X02831Y0257D01*
X02886Y021294D02*
Y0244D01*
X028116Y02055D02*
X02886Y021294D01*
X02731Y02535D02*
X03126D01*
X03221Y0244D01*
X02786Y02615D02*
Y0274D01*
X02066Y0193D02*
X03061D01*
X03086Y0184D02*
Y01905D01*
X03061Y0193D02*
X03086Y01905D01*
X02686Y0258D02*
Y0274D01*
Y0258D02*
X02731Y02535D01*
X01366Y03025D02*
X01371Y0303D01*
X01431D01*
X019984Y030295D02*
X01999Y03029D01*
X01366Y032D02*
X01471D01*
X01581D02*
X01606D01*
X017005Y031055D01*
X03559Y0125D02*
X035685D01*
X03463Y01346D02*
X03559Y0125D01*
X03463Y01346D02*
X03463D01*
X035685Y0125D02*
X03591Y012275D01*
Y01225D02*
Y012275D01*
X02691Y01235D02*
Y012375D01*
X025835Y01345D02*
X02691Y012375D01*
X02581Y01345D02*
X025835D01*
X020476Y02903D02*
X020496Y02905D01*
X01999Y02903D02*
X020476D01*
X01806Y01225D02*
Y012275D01*
X01866Y01805D02*
X01911Y0176D01*
X02621D01*
X02686Y01825D01*
X02166Y02115D02*
Y021709D01*
X01512Y02966D02*
X01528D01*
X01601Y0289D02*
X01646D01*
X01571Y0286D02*
X01601Y0289D01*
X01646D02*
X01669Y02867D01*
X01571Y022906D02*
Y0286D01*
X01669Y02825D02*
Y02867D01*
X02976Y03465D02*
X03086Y03355D01*
X02536Y03465D02*
X02976D01*
X02706Y03435D02*
X02786Y03355D01*
X02546Y03435D02*
X02706D01*
X03086Y0334D02*
Y03355D01*
X02191Y02465D02*
X02261D01*
X02166Y0249D02*
X02191Y02465D01*
X02166Y0249D02*
Y025391D01*
X02786Y0334D02*
Y03355D01*
X02631Y0341D02*
X02686Y03355D01*
X02561Y0341D02*
X02631D01*
X02686Y0334D02*
Y03355D01*
X01716Y025391D02*
Y0259D01*
X02586Y0244D02*
X025905Y024355D01*
Y0215D02*
Y024355D01*
X01766Y0242D02*
Y025391D01*
X017652Y025383D02*
X01766Y025391D01*
X02216D02*
Y02595D01*
X01606Y02675D02*
Y02825D01*
X02022Y01844D02*
X02582D01*
X01966Y019D02*
X02022Y01844D01*
X02582D02*
X02586Y0184D01*
X01866Y0238D02*
Y025391D01*
X02016Y019D02*
X02736D01*
X02986Y02175D02*
Y0244D01*
X01716Y0212D02*
Y021709D01*
X017671Y021239D02*
Y021699D01*
X01836Y02055D02*
X028116D01*
X017671Y021239D02*
X01836Y02055D01*
X01766Y021709D02*
X017671Y021699D01*
X01816Y021201D02*
Y021709D01*
X02016Y02115D02*
Y021709D01*
X02066Y02115D02*
Y021709D01*
X02116Y02115D02*
Y021709D01*
X01606Y0254D02*
X016651D01*
X01571Y022906D02*
X016632Y021984D01*
Y021738D02*
X01666Y021709D01*
X016632Y021738D02*
Y021984D01*
X016651Y0254D02*
X01666Y025391D01*
X017005Y02825D02*
Y031055D01*
X01366Y032851D02*
X014309Y0335D01*
X01366Y032D02*
Y032851D01*
D65*
X016969Y03415D02*
X016975Y034145D01*
Y033595D02*
Y034145D01*
Y033595D02*
X01698Y03359D01*
X02291Y01706D02*
X02525Y01472D01*
X03309D02*
X03341Y0144D01*
X02525Y01472D02*
X03309D01*
X01966Y021709D02*
Y02195D01*
X02206Y016978D02*
X024638Y0144D01*
X02206Y016978D02*
Y017D01*
X017242Y035287D02*
Y035287D01*
X01756Y03415D02*
Y034969D01*
X017242Y035287D02*
X01756Y034969D01*
X016929Y0356D02*
X017242Y035287D01*
X018665Y03415D02*
Y034955D01*
X018978Y035268D02*
Y035287D01*
X018665Y034955D02*
X018978Y035268D01*
Y035287D02*
X019291Y0356D01*
X01998D01*
X01866Y034145D02*
X018665Y03415D01*
X01624Y0356D02*
X016929D01*
X014309Y0335D02*
X014388D01*
X024732Y0301D02*
X025322D01*
X025622Y0298D01*
X02576D01*
X024732Y0306D02*
X025422D01*
X025622Y0308D01*
X02576D01*
X021735Y0316D02*
X022587D01*
X021485Y03185D02*
X021735Y0316D01*
X021685Y0311D02*
X022587D01*
X02115Y031235D02*
X02146Y030925D01*
Y030875D02*
X021685Y0311D01*
X02146Y030875D02*
Y030925D01*
Y03085D02*
Y030875D01*
X01999Y031235D02*
X02115D01*
X02146Y03185D02*
X021485D01*
X021435D02*
X02146D01*
X01999Y03155D02*
X021135D01*
X021435Y03185D01*
D66*
X03086Y0184D02*
D03*
X02986D02*
D03*
X02886D02*
D03*
X02786D02*
D03*
X02686D02*
D03*
X02586D02*
D03*
X03086Y0244D02*
D03*
X02986D02*
D03*
X02886D02*
D03*
X02786D02*
D03*
X02686D02*
D03*
X02586D02*
D03*
Y0334D02*
D03*
X02686D02*
D03*
X02786D02*
D03*
X02886D02*
D03*
X02986D02*
D03*
X03086D02*
D03*
X02586Y0274D02*
D03*
X02686D02*
D03*
X02786D02*
D03*
X02886D02*
D03*
X02986D02*
D03*
X03086D02*
D03*
D67*
X01086Y02778D02*
D03*
D68*
X01086Y02678D02*
D03*
D69*
X012167Y014598D02*
D03*
Y010582D02*
D03*
X01071D02*
D03*
Y014598D02*
D03*
D70*
X04216Y03585D02*
D03*
Y011D02*
D03*
X01356Y03585D02*
D03*
X01426Y011D02*
D03*
D71*
X013055Y02485D02*
D03*
D72*
X01306Y02185D02*
D03*
D73*
X04286Y01829D02*
D03*
Y0151D02*
D03*
Y01671D02*
D03*
D74*
X02576Y0309D02*
D03*
Y0299D02*
D03*
D75*
X01875Y03006D02*
D03*
X02999Y03197D02*
D03*
X033513Y032235D02*
D03*
X03Y03102D02*
D03*
X03194Y03108D02*
D03*
X01698Y03359D02*
D03*
X02336Y026913D02*
D03*
Y02821D02*
D03*
X023059Y028701D02*
D03*
X02431Y0314D02*
D03*
X02291Y01706D02*
D03*
X02287Y02772D02*
D03*
X020169Y024631D02*
D03*
X01879Y02302D02*
D03*
X02015Y02303D02*
D03*
X0197Y02253D02*
D03*
X02534Y02302D02*
D03*
Y02256D02*
D03*
X02116Y02253D02*
D03*
X02017Y02358D02*
D03*
X02116Y02455D02*
D03*
X01716Y02672D02*
D03*
X017098Y027592D02*
D03*
X0164Y02731D02*
D03*
X01442Y01839D02*
D03*
X01444Y0175D02*
D03*
X01357Y01578D02*
D03*
X01183Y0158D02*
D03*
X01526Y0254D02*
D03*
X01556Y02248D02*
D03*
X01614Y01838D02*
D03*
X0155Y01257D02*
D03*
X016771Y013545D02*
D03*
X01716Y0259D02*
D03*
X01916Y0199D02*
D03*
X02166Y01993D02*
D03*
X02886Y0196D02*
D03*
X02986Y01993D02*
D03*
X01643Y02691D02*
D03*
X01422Y02657D02*
D03*
X01298Y02678D02*
D03*
X01867Y03352D02*
D03*
X01294Y02778D02*
D03*
X01424Y02701D02*
D03*
X01446Y0277D02*
D03*
X019318Y02116D02*
D03*
X01916Y0181D02*
D03*
X01561Y0144D02*
D03*
X01431Y0238D02*
D03*
X01816Y0245D02*
D03*
Y0261D02*
D03*
X01666Y0297D02*
D03*
X01766Y0277D02*
D03*
X01761Y02875D02*
D03*
X01811Y03225D02*
D03*
X03731Y01675D02*
D03*
X040615Y01259D02*
D03*
X02046Y0309D02*
D03*
X03591Y01565D02*
D03*
X03721Y0111D02*
D03*
X01916Y0225D02*
D03*
X01871Y0306D02*
D03*
X01581Y0309D02*
D03*
X01916Y0317D02*
D03*
X01986Y03265D02*
D03*
X01966Y01995D02*
D03*
X01866D02*
D03*
Y02115D02*
D03*
X03276Y02665D02*
D03*
X03246Y0283D02*
D03*
X03191Y0324D02*
D03*
X03086Y01635D02*
D03*
Y02665D02*
D03*
X02976Y0263D02*
D03*
X02986Y0166D02*
D03*
X03146Y0283D02*
D03*
X02886Y01695D02*
D03*
X01756Y0336D02*
D03*
Y0323D02*
D03*
X02476Y0257D02*
D03*
X02786Y01725D02*
D03*
X01431Y0303D02*
D03*
X01581Y032D02*
D03*
X01471D02*
D03*
X03463Y01346D02*
D03*
X02581Y01345D02*
D03*
X020476Y02903D02*
D03*
X024638Y0144D02*
D03*
X02206Y017D02*
D03*
X03341Y0144D02*
D03*
X02166Y02115D02*
D03*
X02536Y0235D02*
D03*
X02116Y02115D02*
D03*
X02066D02*
D03*
X02016D02*
D03*
X02116Y0196D02*
D03*
X02066Y0193D02*
D03*
X02016Y019D02*
D03*
X01606Y0254D02*
D03*
X01866Y0323D02*
D03*
M02*
