G04*
G04 #@! TF.GenerationSoftware,Altium Limited,Altium Designer,20.2.6 (244)*
G04*
G04 Layer_Color=2752767*
%FSTAX24Y24*%
%MOIN*%
G70*
G04*
G04 #@! TF.SameCoordinates,210E5C92-376B-490F-B415-5E6AA8125FEF*
G04*
G04*
G04 #@! TF.FilePolarity,Positive*
G04*
G01*
G75*
%ADD91C,0.0020*%
%ADD92C,0.0027*%
D91*
X03078Y01832D02*
Y01848D01*
X03094D01*
Y01832D01*
X03078D01*
X02978D02*
Y01848D01*
X02994D01*
Y01832D01*
X02978D01*
X02878D02*
Y01848D01*
X02894D01*
Y01832D01*
X02878D01*
X02778D02*
Y01848D01*
X02794D01*
Y01832D01*
X02778D01*
X02678D02*
Y01848D01*
X02694D01*
Y01832D01*
X02678D01*
X02578D02*
Y01848D01*
X02594D01*
Y01832D01*
X02578D01*
X03078Y02432D02*
Y02448D01*
X03094D01*
Y02432D01*
X03078D01*
X02978D02*
Y02448D01*
X02994D01*
Y02432D01*
X02978D01*
X02878D02*
Y02448D01*
X02894D01*
Y02432D01*
X02878D01*
X02778D02*
Y02448D01*
X02794D01*
Y02432D01*
X02778D01*
X02678D02*
Y02448D01*
X02694D01*
Y02432D01*
X02678D01*
X02578D02*
Y02448D01*
X02594D01*
Y02432D01*
X02578D01*
X012167Y014518D02*
X012087Y014678D01*
X012247D01*
X012167Y014518D01*
Y010502D02*
X012087Y010662D01*
X012247D01*
X012167Y010502D01*
X01071D02*
X01063Y010662D01*
X01079D01*
X01071Y010502D01*
Y014518D02*
X01063Y014678D01*
X01079D01*
X01071Y014518D01*
X04216Y03577D02*
X0422Y03581D01*
X04224D01*
X0422Y03585D01*
X04224Y03589D01*
X0422D01*
X04216Y03593D01*
X04212Y03589D01*
X04208D01*
X04212Y03585D01*
X04208Y03581D01*
X04212D01*
X04216Y03577D01*
Y01092D02*
X0422Y01096D01*
X04224D01*
X0422Y011D01*
X04224Y01104D01*
X0422D01*
X04216Y01108D01*
X04212Y01104D01*
X04208D01*
X04212Y011D01*
X04208Y01096D01*
X04212D01*
X04216Y01092D01*
X012975Y02477D02*
X013015Y02485D01*
X012975Y02493D01*
X013055Y02489D01*
X013135Y02493D01*
X013095Y02485D01*
X013135Y02477D01*
X013055Y02481D01*
X012975Y02477D01*
X01298Y02177D02*
X01302Y02185D01*
X01298Y02193D01*
X01306Y02189D01*
X01314Y02193D01*
X0131Y02185D01*
X01314Y02177D01*
X01306Y02181D01*
X01298Y02177D01*
X01356Y03577D02*
X0136Y03581D01*
X01364D01*
X0136Y03585D01*
X01364Y03589D01*
X0136D01*
X01356Y03593D01*
X01352Y03589D01*
X01348D01*
X01352Y03585D01*
X01348Y03581D01*
X01352D01*
X01356Y03577D01*
X01426Y01092D02*
X0143Y01096D01*
X01434D01*
X0143Y011D01*
X01434Y01104D01*
X0143D01*
X01426Y01108D01*
X01422Y01104D01*
X01418D01*
X01422Y011D01*
X01418Y01096D01*
X01422D01*
X01426Y01092D01*
X04282Y01825D02*
Y01821D01*
X0429D01*
Y01825D01*
X04294D01*
Y01833D01*
X0429D01*
Y01837D01*
X04282D01*
Y01833D01*
X04278D01*
Y01825D01*
X04282D01*
Y01506D02*
Y01502D01*
X0429D01*
Y01506D01*
X04294D01*
Y01514D01*
X0429D01*
Y01518D01*
X04282D01*
Y01514D01*
X04278D01*
Y01506D01*
X04282D01*
Y01667D02*
Y01663D01*
X0429D01*
Y01667D01*
X04294D01*
Y01675D01*
X0429D01*
Y01679D01*
X04282D01*
Y01675D01*
X04278D01*
Y01667D01*
X04282D01*
X02568Y03082D02*
X02572D01*
X02576Y03086D01*
X0258Y03082D01*
X02584D01*
Y03086D01*
X0258Y0309D01*
X02584Y03094D01*
Y03098D01*
X0258D01*
X02576Y03094D01*
X02572Y03098D01*
X02568D01*
Y03094D01*
X02572Y0309D01*
X02568Y03086D01*
Y03082D01*
Y02982D02*
X02572D01*
X02576Y02986D01*
X0258Y02982D01*
X02584D01*
Y02986D01*
X0258Y0299D01*
X02584Y02994D01*
Y02998D01*
X0258D01*
X02576Y02994D01*
X02572Y02998D01*
X02568D01*
Y02994D01*
X02572Y0299D01*
X02568Y02986D01*
Y02982D01*
X02578Y03332D02*
Y03348D01*
X02594D01*
Y03332D01*
X02578D01*
X02678D02*
Y03348D01*
X02694D01*
Y03332D01*
X02678D01*
X02778D02*
Y03348D01*
X02794D01*
Y03332D01*
X02778D01*
X02878D02*
Y03348D01*
X02894D01*
Y03332D01*
X02878D01*
X02978D02*
Y03348D01*
X02994D01*
Y03332D01*
X02978D01*
X03078D02*
Y03348D01*
X03094D01*
Y03332D01*
X03078D01*
X02578Y02732D02*
Y02748D01*
X02594D01*
Y02732D01*
X02578D01*
X02678D02*
Y02748D01*
X02694D01*
Y02732D01*
X02678D01*
X02778D02*
Y02748D01*
X02794D01*
Y02732D01*
X02778D01*
X02878D02*
Y02748D01*
X02894D01*
Y02732D01*
X02878D01*
X02978D02*
Y02748D01*
X02994D01*
Y02732D01*
X02978D01*
X03078D02*
Y02748D01*
X03094D01*
Y02732D01*
X03078D01*
X01867Y03006D02*
X01875Y03014D01*
X01883Y03006D01*
X01875Y02998D01*
X01867Y03006D01*
X02991Y03197D02*
X02999Y03205D01*
X03007Y03197D01*
X02999Y03189D01*
X02991Y03197D01*
X033433Y032235D02*
X033513Y032315D01*
X033593Y032235D01*
X033513Y032155D01*
X033433Y032235D01*
X02992Y03102D02*
X03Y0311D01*
X03008Y03102D01*
X03Y03094D01*
X02992Y03102D01*
X03186Y03108D02*
X03194Y03116D01*
X03202Y03108D01*
X03194Y031D01*
X03186Y03108D01*
X0169Y03351D02*
Y03367D01*
X01706D01*
Y03351D01*
X0169D01*
X01694Y03355D02*
Y03363D01*
X01702D01*
Y03355D01*
X01694D01*
X02328Y026913D02*
X02336Y026992D01*
X02344Y026913D01*
X02336Y026832D01*
X02328Y026913D01*
Y02821D02*
X02336Y02829D01*
X02344Y02821D01*
X02336Y02813D01*
X02328Y02821D01*
X022979Y028701D02*
X023059Y028781D01*
X023139Y028701D01*
X023059Y028621D01*
X022979Y028701D01*
X02423Y0314D02*
X02431Y03148D01*
X02439Y0314D01*
X02431Y03132D01*
X02423Y0314D01*
X02283Y01706D02*
X02291Y01714D01*
X02299Y01706D01*
X02291Y01698D01*
X02283Y01706D01*
X02279Y02772D02*
X02287Y0278D01*
X02295Y02772D01*
X02287Y02764D01*
X02279Y02772D01*
X020089Y024631D02*
X020169Y024711D01*
X020249Y024631D01*
X020169Y024551D01*
X020089Y024631D01*
X01871Y02302D02*
X01879Y0231D01*
X01887Y02302D01*
X01879Y02294D01*
X01871Y02302D01*
X02007Y02303D02*
X02015Y02311D01*
X02023Y02303D01*
X02015Y02295D01*
X02007Y02303D01*
X01962Y02253D02*
X0197Y02261D01*
X01978Y02253D01*
X0197Y02245D01*
X01962Y02253D01*
X02526Y02302D02*
X02534Y0231D01*
X02542Y02302D01*
X02534Y02294D01*
X02526Y02302D01*
Y02256D02*
X02534Y02264D01*
X02542Y02256D01*
X02534Y02248D01*
X02526Y02256D01*
X02108Y02253D02*
X02116Y02261D01*
X02124Y02253D01*
X02116Y02245D01*
X02108Y02253D01*
X02009Y02358D02*
X02017Y02366D01*
X02025Y02358D01*
X02017Y0235D01*
X02009Y02358D01*
X02108Y02455D02*
X02116Y02463D01*
X02124Y02455D01*
X02116Y02447D01*
X02108Y02455D01*
X01708Y02672D02*
X01716Y0268D01*
X01724Y02672D01*
X01716Y02664D01*
X01708Y02672D01*
X017018Y027592D02*
X017098Y027672D01*
X017178Y027592D01*
X017098Y027512D01*
X017018Y027592D01*
X01632Y02731D02*
X0164Y02739D01*
X01648Y02731D01*
X0164Y02723D01*
X01632Y02731D01*
X01434Y01831D02*
Y01847D01*
X0145D01*
Y01831D01*
X01434D01*
X01438Y01835D02*
Y01843D01*
X01446D01*
Y01835D01*
X01438D01*
X01436Y01742D02*
Y01758D01*
X01452D01*
Y01742D01*
X01436D01*
X0144Y01746D02*
Y01754D01*
X01448D01*
Y01746D01*
X0144D01*
X01349Y0157D02*
Y01586D01*
X01365D01*
Y0157D01*
X01349D01*
X01353Y01574D02*
Y01582D01*
X01361D01*
Y01574D01*
X01353D01*
X01175Y01572D02*
Y01588D01*
X01191D01*
Y01572D01*
X01175D01*
X01179Y01576D02*
Y01584D01*
X01187D01*
Y01576D01*
X01179D01*
X01518Y0254D02*
X01526Y02548D01*
X01534Y0254D01*
X01526Y02532D01*
X01518Y0254D01*
X01548Y02248D02*
X01556Y02256D01*
X01564Y02248D01*
X01556Y0224D01*
X01548Y02248D01*
X01606Y01838D02*
X01614Y01846D01*
X01622Y01838D01*
X01614Y0183D01*
X01606Y01838D01*
X01542Y01257D02*
X0155Y01265D01*
X01558Y01257D01*
X0155Y01249D01*
X01542Y01257D01*
X016691Y013545D02*
X016771Y013625D01*
X016851Y013545D01*
X016771Y013465D01*
X016691Y013545D01*
X01708Y0259D02*
X01716Y02598D01*
X01724Y0259D01*
X01716Y02582D01*
X01708Y0259D01*
X01908Y0199D02*
X01916Y01998D01*
X01924Y0199D01*
X01916Y01982D01*
X01908Y0199D01*
X02158Y01993D02*
X02166Y02001D01*
X02174Y01993D01*
X02166Y01985D01*
X02158Y01993D01*
X02878Y0196D02*
X02886Y01968D01*
X02894Y0196D01*
X02886Y01952D01*
X02878Y0196D01*
X02978Y01993D02*
X02986Y02001D01*
X02994Y01993D01*
X02986Y01985D01*
X02978Y01993D01*
X01635Y02691D02*
X01643Y02699D01*
X01651Y02691D01*
X01643Y02683D01*
X01635Y02691D01*
X01414Y02657D02*
X01422Y02665D01*
X0143Y02657D01*
X01422Y02649D01*
X01414Y02657D01*
X0129Y02678D02*
X01298Y02686D01*
X01306Y02678D01*
X01298Y0267D01*
X0129Y02678D01*
X01859Y03352D02*
X01867Y0336D01*
X01875Y03352D01*
X01867Y03344D01*
X01859Y03352D01*
X01286Y02778D02*
X01294Y02786D01*
X01302Y02778D01*
X01294Y0277D01*
X01286Y02778D01*
X01416Y02701D02*
X01424Y02709D01*
X01432Y02701D01*
X01424Y02693D01*
X01416Y02701D01*
X01438Y0277D02*
X01446Y02778D01*
X01454Y0277D01*
X01446Y02762D01*
X01438Y0277D01*
X019238Y02116D02*
X019318Y02124D01*
X019398Y02116D01*
X019318Y02108D01*
X019238Y02116D01*
X01908Y0181D02*
X01916Y01818D01*
X01924Y0181D01*
X01916Y01802D01*
X01908Y0181D01*
X01553Y0144D02*
X01561Y01448D01*
X01569Y0144D01*
X01561Y01432D01*
X01553Y0144D01*
X01423Y0238D02*
X01431Y02388D01*
X01439Y0238D01*
X01431Y02372D01*
X01423Y0238D01*
X01808Y0245D02*
X01816Y02458D01*
X01824Y0245D01*
X01816Y02442D01*
X01808Y0245D01*
Y0261D02*
X01816Y02618D01*
X01824Y0261D01*
X01816Y02602D01*
X01808Y0261D01*
X01658Y0297D02*
X01666Y02978D01*
X01674Y0297D01*
X01666Y02962D01*
X01658Y0297D01*
X01758Y0277D02*
X01766Y02778D01*
X01774Y0277D01*
X01766Y02762D01*
X01758Y0277D01*
X01753Y02875D02*
X01761Y02883D01*
X01769Y02875D01*
X01761Y02867D01*
X01753Y02875D01*
X01803Y03225D02*
X01811Y03233D01*
X01819Y03225D01*
X01811Y03217D01*
X01803Y03225D01*
X03723Y01675D02*
X03731Y01683D01*
X03739Y01675D01*
X03731Y01667D01*
X03723Y01675D01*
X040535Y01259D02*
X040615Y01267D01*
X040695Y01259D01*
X040615Y01251D01*
X040535Y01259D01*
X02038Y0309D02*
X02046Y03098D01*
X02054Y0309D01*
X02046Y03082D01*
X02038Y0309D01*
X03583Y01565D02*
X03591Y01573D01*
X03599Y01565D01*
X03591Y01557D01*
X03583Y01565D01*
X03713Y0111D02*
X03721Y01118D01*
X03729Y0111D01*
X03721Y01102D01*
X03713Y0111D01*
X01908Y0225D02*
X01916Y02258D01*
X01924Y0225D01*
X01916Y02242D01*
X01908Y0225D01*
X01863Y0306D02*
X01871Y03068D01*
X01879Y0306D01*
X01871Y03052D01*
X01863Y0306D01*
X01573Y0309D02*
X01581Y03098D01*
X01589Y0309D01*
X01581Y03082D01*
X01573Y0309D01*
X01908Y0317D02*
X01916Y03178D01*
X01924Y0317D01*
X01916Y03162D01*
X01908Y0317D01*
X01978Y03265D02*
X01986Y03273D01*
X01994Y03265D01*
X01986Y03257D01*
X01978Y03265D01*
X01958Y01995D02*
X01966Y02003D01*
X01974Y01995D01*
X01966Y01987D01*
X01958Y01995D01*
X01858D02*
X01866Y02003D01*
X01874Y01995D01*
X01866Y01987D01*
X01858Y01995D01*
Y02115D02*
X01866Y02123D01*
X01874Y02115D01*
X01866Y02107D01*
X01858Y02115D01*
X03268Y02665D02*
X03276Y02673D01*
X03284Y02665D01*
X03276Y02657D01*
X03268Y02665D01*
X03238Y0283D02*
X03246Y02838D01*
X03254Y0283D01*
X03246Y02822D01*
X03238Y0283D01*
X03183Y0324D02*
X03191Y03248D01*
X03199Y0324D01*
X03191Y03232D01*
X03183Y0324D01*
X03078Y01635D02*
X03086Y01643D01*
X03094Y01635D01*
X03086Y01627D01*
X03078Y01635D01*
Y02665D02*
X03086Y02673D01*
X03094Y02665D01*
X03086Y02657D01*
X03078Y02665D01*
X02968Y0263D02*
X02976Y02638D01*
X02984Y0263D01*
X02976Y02622D01*
X02968Y0263D01*
X02978Y0166D02*
X02986Y01668D01*
X02994Y0166D01*
X02986Y01652D01*
X02978Y0166D01*
X03138Y0283D02*
X03146Y02838D01*
X03154Y0283D01*
X03146Y02822D01*
X03138Y0283D01*
X02878Y01695D02*
X02886Y01703D01*
X02894Y01695D01*
X02886Y01687D01*
X02878Y01695D01*
X01748Y0336D02*
X01756Y03368D01*
X01764Y0336D01*
X01756Y03352D01*
X01748Y0336D01*
Y0323D02*
X01756Y03238D01*
X01764Y0323D01*
X01756Y03222D01*
X01748Y0323D01*
X02468Y0257D02*
X02476Y02578D01*
X02484Y0257D01*
X02476Y02562D01*
X02468Y0257D01*
X02778Y01725D02*
X02786Y01733D01*
X02794Y01725D01*
X02786Y01717D01*
X02778Y01725D01*
X01423Y0303D02*
X01431Y03038D01*
X01439Y0303D01*
X01431Y03022D01*
X01423Y0303D01*
X01573Y032D02*
X01581Y03208D01*
X01589Y032D01*
X01581Y03192D01*
X01573Y032D01*
X01463D02*
X01471Y03208D01*
X01479Y032D01*
X01471Y03192D01*
X01463Y032D01*
X03455Y01346D02*
X03463Y01354D01*
X03471Y01346D01*
X03463Y01338D01*
X03455Y01346D01*
X02573Y01345D02*
X02581Y01353D01*
X02589Y01345D01*
X02581Y01337D01*
X02573Y01345D01*
X020396Y02903D02*
X020476Y02911D01*
X020556Y02903D01*
X020476Y02895D01*
X020396Y02903D01*
X024558Y0144D02*
X024638Y01448D01*
X024718Y0144D01*
X024638Y01432D01*
X024558Y0144D01*
X02198Y017D02*
X02206Y01708D01*
X02214Y017D01*
X02206Y01692D01*
X02198Y017D01*
X03333Y0144D02*
X03341Y01448D01*
X03349Y0144D01*
X03341Y01432D01*
X03333Y0144D01*
X02158Y02115D02*
X02166Y02123D01*
X02174Y02115D01*
X02166Y02107D01*
X02158Y02115D01*
X02528Y0235D02*
X02536Y02358D01*
X02544Y0235D01*
X02536Y02342D01*
X02528Y0235D01*
X02108Y02115D02*
X02116Y02123D01*
X02124Y02115D01*
X02116Y02107D01*
X02108Y02115D01*
X02058D02*
X02066Y02123D01*
X02074Y02115D01*
X02066Y02107D01*
X02058Y02115D01*
X02008D02*
X02016Y02123D01*
X02024Y02115D01*
X02016Y02107D01*
X02008Y02115D01*
X02108Y0196D02*
X02116Y01968D01*
X02124Y0196D01*
X02116Y01952D01*
X02108Y0196D01*
X02058Y0193D02*
X02066Y01938D01*
X02074Y0193D01*
X02066Y01922D01*
X02058Y0193D01*
X02008Y019D02*
X02016Y01908D01*
X02024Y019D01*
X02016Y01892D01*
X02008Y019D01*
X01598Y0254D02*
X01606Y02548D01*
X01614Y0254D01*
X01606Y02532D01*
X01598Y0254D01*
X01858Y0323D02*
X01866Y03238D01*
X01874Y0323D01*
X01866Y03222D01*
X01858Y0323D01*
D92*
X01094Y02778D02*
G03*
X01094Y02778I-00008J0D01*
G01*
X01094Y02678D02*
G03*
X01094Y02678I-00008J0D01*
G01*
M02*
