G04*
G04 #@! TF.GenerationSoftware,Altium Limited,Altium Designer,20.2.6 (244)*
G04*
G04 Layer_Color=255*
%FSTAX24Y24*%
%MOIN*%
G70*
G04*
G04 #@! TF.SameCoordinates,210E5C92-376B-490F-B415-5E6AA8125FEF*
G04*
G04*
G04 #@! TF.FilePolarity,Positive*
G04*
G01*
G75*
%ADD24R,0.0980X0.1260*%
%ADD25R,0.0980X0.0350*%
%ADD26R,0.0374X0.0354*%
G04:AMPARAMS|DCode=27|XSize=59.1mil|YSize=47.2mil|CornerRadius=4.7mil|HoleSize=0mil|Usage=FLASHONLY|Rotation=0.000|XOffset=0mil|YOffset=0mil|HoleType=Round|Shape=RoundedRectangle|*
%AMROUNDEDRECTD27*
21,1,0.0591,0.0378,0,0,0.0*
21,1,0.0496,0.0472,0,0,0.0*
1,1,0.0094,0.0248,-0.0189*
1,1,0.0094,-0.0248,-0.0189*
1,1,0.0094,-0.0248,0.0189*
1,1,0.0094,0.0248,0.0189*
%
%ADD27ROUNDEDRECTD27*%
G04:AMPARAMS|DCode=28|XSize=59.1mil|YSize=13.8mil|CornerRadius=1.4mil|HoleSize=0mil|Usage=FLASHONLY|Rotation=0.000|XOffset=0mil|YOffset=0mil|HoleType=Round|Shape=RoundedRectangle|*
%AMROUNDEDRECTD28*
21,1,0.0591,0.0110,0,0,0.0*
21,1,0.0563,0.0138,0,0,0.0*
1,1,0.0028,0.0282,-0.0055*
1,1,0.0028,-0.0282,-0.0055*
1,1,0.0028,-0.0282,0.0055*
1,1,0.0028,0.0282,0.0055*
%
%ADD28ROUNDEDRECTD28*%
%ADD29R,0.0600X0.0650*%
%ADD30R,0.1882X0.1240*%
%ADD31R,0.0551X0.0433*%
%ADD32O,0.0236X0.0728*%
%ADD33R,0.0433X0.0551*%
%ADD34R,0.0472X0.0315*%
%ADD35R,0.0650X0.0600*%
%ADD36R,0.0575X0.0210*%
%ADD37R,0.2205X0.0827*%
%ADD38O,0.0512X0.0177*%
%ADD39O,0.0177X0.0512*%
%ADD66O,0.0600X0.0900*%
%ADD67R,0.0700X0.0700*%
%ADD68C,0.0700*%
G04:AMPARAMS|DCode=69|XSize=94.5mil|YSize=63mil|CornerRadius=15.7mil|HoleSize=0mil|Usage=FLASHONLY|Rotation=0.000|XOffset=0mil|YOffset=0mil|HoleType=Round|Shape=RoundedRectangle|*
%AMROUNDEDRECTD69*
21,1,0.0945,0.0315,0,0,0.0*
21,1,0.0630,0.0630,0,0,0.0*
1,1,0.0315,0.0315,-0.0157*
1,1,0.0315,-0.0315,-0.0157*
1,1,0.0315,-0.0315,0.0157*
1,1,0.0315,0.0315,0.0157*
%
%ADD69ROUNDEDRECTD69*%
%ADD70C,0.0600*%
%ADD71R,0.0591X0.0591*%
%ADD72C,0.0591*%
%ADD73O,0.0787X0.1200*%
%ADD74C,0.0709*%
D24*
X011255Y0184D02*
D03*
D25*
X013425Y019302D02*
D03*
Y0184D02*
D03*
Y017498D02*
D03*
D26*
X013552Y028326D02*
D03*
X012568Y0287D02*
D03*
X013552Y029074D02*
D03*
D27*
X012285Y013515D02*
D03*
Y011665D02*
D03*
D28*
Y013102D02*
D03*
Y012846D02*
D03*
Y01259D02*
D03*
Y012334D02*
D03*
Y012078D02*
D03*
D29*
X03721Y01375D02*
D03*
X03591D02*
D03*
X01366Y032D02*
D03*
X01236D02*
D03*
X01366Y03025D02*
D03*
X01236D02*
D03*
X01936Y01225D02*
D03*
X01806D02*
D03*
X02821Y01235D02*
D03*
X02691D02*
D03*
X03721Y01225D02*
D03*
X03591D02*
D03*
D30*
X03911Y03201D02*
D03*
X03912Y02077D02*
D03*
D31*
X01916Y018705D02*
D03*
Y019295D02*
D03*
X02256Y028705D02*
D03*
Y029295D02*
D03*
D32*
X01666Y021709D02*
D03*
X01716D02*
D03*
X01766D02*
D03*
X01816D02*
D03*
X01866D02*
D03*
X01916D02*
D03*
X01966D02*
D03*
X02016D02*
D03*
X02066D02*
D03*
X02116D02*
D03*
X02166D02*
D03*
X02216D02*
D03*
X01666Y025391D02*
D03*
X01716D02*
D03*
X01766D02*
D03*
X01816D02*
D03*
X01866D02*
D03*
X01916D02*
D03*
X01966D02*
D03*
X02016D02*
D03*
X02066D02*
D03*
X02116D02*
D03*
X02166D02*
D03*
X02216D02*
D03*
D33*
X019255Y03415D02*
D03*
X018665D02*
D03*
X016969D02*
D03*
X01756D02*
D03*
X012715Y03115D02*
D03*
X013305D02*
D03*
D34*
X014388Y0335D02*
D03*
X011632D02*
D03*
D35*
X02146Y03095D02*
D03*
Y02965D02*
D03*
Y03185D02*
D03*
Y03315D02*
D03*
D36*
X024732Y0301D02*
D03*
Y0306D02*
D03*
Y0311D02*
D03*
Y0316D02*
D03*
X022587D02*
D03*
Y0311D02*
D03*
Y0306D02*
D03*
Y0301D02*
D03*
D37*
X01998Y0356D02*
D03*
X01624D02*
D03*
D38*
X01528Y02903D02*
D03*
Y029345D02*
D03*
Y02966D02*
D03*
Y029975D02*
D03*
Y03029D02*
D03*
Y030605D02*
D03*
Y03092D02*
D03*
Y031235D02*
D03*
Y03155D02*
D03*
Y031865D02*
D03*
Y03218D02*
D03*
X01999D02*
D03*
Y031865D02*
D03*
Y03155D02*
D03*
Y031235D02*
D03*
Y03092D02*
D03*
Y030605D02*
D03*
Y03029D02*
D03*
Y029975D02*
D03*
Y02966D02*
D03*
Y029345D02*
D03*
Y02903D02*
D03*
D39*
X01606Y032959D02*
D03*
X016375D02*
D03*
X01669D02*
D03*
X017005D02*
D03*
X01732D02*
D03*
X017635D02*
D03*
X01795D02*
D03*
X018265D02*
D03*
X01858D02*
D03*
X018895D02*
D03*
X01921D02*
D03*
Y02825D02*
D03*
X018895D02*
D03*
X01858D02*
D03*
X018265D02*
D03*
X01795D02*
D03*
X017635D02*
D03*
X01732D02*
D03*
X017005D02*
D03*
X01669D02*
D03*
X016375D02*
D03*
X01606D02*
D03*
D66*
X03086Y0184D02*
D03*
X02986D02*
D03*
X02886D02*
D03*
X02786D02*
D03*
X02686D02*
D03*
X02586D02*
D03*
X03086Y0244D02*
D03*
X02986D02*
D03*
X02886D02*
D03*
X02786D02*
D03*
X02686D02*
D03*
X02586D02*
D03*
Y0334D02*
D03*
X02686D02*
D03*
X02786D02*
D03*
X02886D02*
D03*
X02986D02*
D03*
X03086D02*
D03*
X02586Y0274D02*
D03*
X02686D02*
D03*
X02786D02*
D03*
X02886D02*
D03*
X02986D02*
D03*
X03086D02*
D03*
D67*
X01086Y02778D02*
D03*
D68*
X01086Y02678D02*
D03*
D69*
X012167Y014598D02*
D03*
Y010582D02*
D03*
X01071D02*
D03*
Y014598D02*
D03*
D70*
X04216Y03585D02*
D03*
Y011D02*
D03*
X01356Y03585D02*
D03*
X01426Y011D02*
D03*
D71*
X013055Y02485D02*
D03*
D72*
X01306Y02185D02*
D03*
D73*
X04286Y01829D02*
D03*
Y0151D02*
D03*
Y01671D02*
D03*
D74*
X02576Y0309D02*
D03*
Y0299D02*
D03*
M02*
