M48
;Layer_Color=9474304
;FILE_FORMAT=2:4
INCH,LZ
;TYPE=PLATED
T1F00S00C0.0157
T2F00S00C0.0197
T3F00S00C0.0310
T4F00S00C0.0315
T6F00S00C0.0320
T7F00S00C0.0400
T9F00S00C0.1378
%
T01
X0155Y01257
X01561Y0144
X016771Y013545
X024638Y0144
X02581Y01345
X03341Y0144
X03463Y01346
X03721Y0111
X040615Y01259
X03731Y01675
X03591Y01565
X03276Y02665
X03246Y0283
X03146
X03194Y03108
X03Y03102
X02976Y0263
X03086Y02665
X02476Y0257
X02336Y026913
Y02821
X023059Y028701
X02287Y02772
X020476Y02903
X02046Y0309
X01871Y0306
X01875Y03006
X01666Y0297
X01761Y02875
X01766Y0277
X017098Y027592
X01716Y02672
X01716Y0259
X01816Y0261
Y0245
X01879Y02302
X01916Y0225
X0197Y02253
X02015Y02303
X02017Y02358
X020169Y024631
X02116Y02455
X02116Y02253
X02116Y02115
X02166
X02066
X02016
X019318Y02116
X01866Y02115
Y01995
X01916Y0199
X01966Y01995
X02016Y019
X02066Y0193
X02116Y0196
X02166Y01993
X02206Y017
X02291Y01706
X01916Y0181
X01614Y01838
X01606Y0254
X01643Y02691
X0164Y02731
X01581Y0309
X02536Y0235
X02534Y02302
Y02256
X02886Y0196
X02986Y01993
Y0166
X03086Y01635
X02886Y01695
X02786Y01725
X01556Y02248
X01431Y0238
X01526Y0254
X01422Y02657
X01424Y02701
X01446Y0277
X01294Y02778
X01298Y02678
X01431Y0303
X01471Y032
X01581
X01756Y0323
X01811Y03225
X01866Y0323
X01916Y0317
X01986Y03265
X01867Y03352
X01756Y0336
X02431Y0314
X02999Y03197
X03191Y0324
X033513Y032235
T02
X01183Y0158
X01357Y01578
X01444Y0175
X01442Y01839
X01698Y03359
T03
X02586Y0184
X02686
X02786
X02886
X02986
X03086
Y0244
X02986
X02886
X02786
X02686
X02586
Y0274
X02686
X02786
X02886
X02986
X03086
Y0334
X02986
X02886
X02786
X02686
X02586
T04
X01306Y02185
X013055Y02485
T06
X02576Y0299
Y0309
T07
X01086Y02678
X01086Y02778
T09
X01426Y011
X04216
X01356Y03585
X04216
M30
