G04*
G04 #@! TF.GenerationSoftware,Altium Limited,Altium Designer,20.2.6 (244)*
G04*
G04 Layer_Color=255*
%FSTAX24Y24*%
%MOIN*%
G70*
G04*
G04 #@! TF.SameCoordinates,210E5C92-376B-490F-B415-5E6AA8125FEF*
G04*
G04*
G04 #@! TF.FilePolarity,Positive*
G04*
G01*
G75*
%ADD66O,0.0600X0.0900*%
%ADD67R,0.0700X0.0700*%
%ADD68C,0.0700*%
G04:AMPARAMS|DCode=69|XSize=94.5mil|YSize=63mil|CornerRadius=15.7mil|HoleSize=0mil|Usage=FLASHONLY|Rotation=0.000|XOffset=0mil|YOffset=0mil|HoleType=Round|Shape=RoundedRectangle|*
%AMROUNDEDRECTD69*
21,1,0.0945,0.0315,0,0,0.0*
21,1,0.0630,0.0630,0,0,0.0*
1,1,0.0315,0.0315,-0.0157*
1,1,0.0315,-0.0315,-0.0157*
1,1,0.0315,-0.0315,0.0157*
1,1,0.0315,0.0315,0.0157*
%
%ADD69ROUNDEDRECTD69*%
%ADD70C,0.0600*%
%ADD71R,0.0591X0.0591*%
%ADD72C,0.0591*%
%ADD73O,0.0787X0.1200*%
%ADD74C,0.0709*%
%ADD76R,0.0827X0.0551*%
%ADD77R,0.0500X0.0550*%
D66*
X03086Y0184D02*
D03*
X02986D02*
D03*
X02886D02*
D03*
X02786D02*
D03*
X02686D02*
D03*
X02586D02*
D03*
X03086Y0244D02*
D03*
X02986D02*
D03*
X02886D02*
D03*
X02786D02*
D03*
X02686D02*
D03*
X02586D02*
D03*
Y0334D02*
D03*
X02686D02*
D03*
X02786D02*
D03*
X02886D02*
D03*
X02986D02*
D03*
X03086D02*
D03*
X02586Y0274D02*
D03*
X02686D02*
D03*
X02786D02*
D03*
X02886D02*
D03*
X02986D02*
D03*
X03086D02*
D03*
D67*
X01086Y02778D02*
D03*
D68*
X01086Y02678D02*
D03*
D69*
X012167Y014598D02*
D03*
Y010582D02*
D03*
X01071D02*
D03*
Y014598D02*
D03*
D70*
X04216Y03585D02*
D03*
Y011D02*
D03*
X01356Y03585D02*
D03*
X01426Y011D02*
D03*
D71*
X013055Y02485D02*
D03*
D72*
X01306Y02185D02*
D03*
D73*
X04286Y01829D02*
D03*
Y0151D02*
D03*
Y01671D02*
D03*
D74*
X02576Y0309D02*
D03*
Y0299D02*
D03*
D76*
X022101Y012D02*
D03*
X01621Y013968D02*
D03*
X022101D02*
D03*
X01621Y012D02*
D03*
X031101D02*
D03*
X02521Y013968D02*
D03*
X031101D02*
D03*
X02521Y012D02*
D03*
X039851D02*
D03*
X03396Y013968D02*
D03*
X039851D02*
D03*
X03396Y012D02*
D03*
D77*
X03681Y01625D02*
D03*
X03591D02*
D03*
M02*
