G04*
G04 #@! TF.GenerationSoftware,Altium Limited,Altium Designer,20.2.6 (244)*
G04*
G04 Layer_Color=32896*
%FSTAX24Y24*%
%MOIN*%
G70*
G04*
G04 #@! TF.SameCoordinates,210E5C92-376B-490F-B415-5E6AA8125FEF*
G04*
G04*
G04 #@! TF.FilePolarity,Positive*
G04*
G01*
G75*
%ADD15C,0.0079*%
%ADD16C,0.0040*%
%ADD17C,0.0050*%
%ADD18C,0.0100*%
%ADD19C,0.0070*%
%ADD64C,0.0150*%
%ADD80C,0.0120*%
G36*
X02906Y02161D02*
X0284Y02227D01*
X02838D01*
X02773Y02162D01*
Y02161D01*
X0281D01*
Y02055D01*
X02869D01*
Y02161D01*
X02906D01*
D02*
G37*
G36*
Y03061D02*
X0284Y03127D01*
X02838D01*
X02773Y03062D01*
Y03061D01*
X0281D01*
Y02955D01*
X02869D01*
Y03061D01*
X02906D01*
D02*
G37*
D15*
X015349Y01198D02*
G03*
X015349Y01198I-000039J0D01*
G01*
X024349D02*
G03*
X024349Y01198I-000039J0D01*
G01*
X033099D02*
G03*
X033099Y01198I-000039J0D01*
G01*
X022278Y016118D02*
X022343Y016184D01*
X022474D01*
X02254Y016118D01*
Y016052D01*
X022474Y015987D01*
X022343D01*
X022278Y015921D01*
Y015856D01*
X022343Y01579D01*
X022474D01*
X02254Y015856D01*
X022146Y016052D02*
Y015856D01*
X022081Y01579D01*
X022015Y015856D01*
X02195Y01579D01*
X021884Y015856D01*
Y016052D01*
X021753Y016118D02*
X021687Y016184D01*
X021556D01*
X02149Y016118D01*
Y016052D01*
X021556Y015987D01*
X021622D01*
X021556D01*
X02149Y015921D01*
Y015856D01*
X021556Y01579D01*
X021687D01*
X021753Y015856D01*
X031278Y016118D02*
X031343Y016184D01*
X031474D01*
X03154Y016118D01*
Y016052D01*
X031474Y015987D01*
X031343D01*
X031278Y015921D01*
Y015856D01*
X031343Y01579D01*
X031474D01*
X03154Y015856D01*
X031146Y016052D02*
Y015856D01*
X031081Y01579D01*
X031015Y015856D01*
X03095Y01579D01*
X030884Y015856D01*
Y016052D01*
X03049Y01579D02*
X030753D01*
X03049Y016052D01*
Y016118D01*
X030556Y016184D01*
X030687D01*
X030753Y016118D01*
X040028D02*
X040093Y016184D01*
X040224D01*
X04029Y016118D01*
Y016052D01*
X040224Y015987D01*
X040093D01*
X040028Y015921D01*
Y015856D01*
X040093Y01579D01*
X040224D01*
X04029Y015856D01*
X039896Y016052D02*
Y015856D01*
X039831Y01579D01*
X039765Y015856D01*
X0397Y01579D01*
X039634Y015856D01*
Y016052D01*
X039503Y01579D02*
X039372D01*
X039437D01*
Y016184D01*
X039503Y016118D01*
X03832Y025754D02*
Y02536D01*
X038123D01*
X038058Y025426D01*
Y025688D01*
X038123Y025754D01*
X03832D01*
X037664Y02536D02*
X037926D01*
X037664Y025622D01*
Y025688D01*
X03773Y025754D01*
X037861D01*
X037926Y025688D01*
X03832Y034754D02*
Y03436D01*
X038123D01*
X038058Y034426D01*
Y034688D01*
X038123Y034754D01*
X03832D01*
X037926Y03436D02*
X037795D01*
X037861D01*
Y034754D01*
X037926Y034688D01*
D16*
X03591Y01655D02*
Y0166D01*
X03681D01*
Y01655D02*
Y0166D01*
X03591Y0159D02*
Y01595D01*
Y0159D02*
X03681D01*
Y01595D01*
D17*
X02153Y010656D02*
Y015386D01*
X01679D02*
X02153D01*
X01679Y010656D02*
Y015386D01*
Y010656D02*
X02153D01*
X03053D02*
Y015386D01*
X02579D02*
X03053D01*
X02579Y010656D02*
Y015386D01*
Y010656D02*
X03053D01*
X03928D02*
Y015386D01*
X03454D02*
X03928D01*
X03454Y010656D02*
Y015386D01*
Y010656D02*
X03928D01*
D18*
X04366Y0157D02*
X05056D01*
X04363Y0177D02*
X05056D01*
X05061Y0157D02*
X05096Y01605D01*
X05061Y0177D02*
X05096Y01735D01*
X05046Y0177D02*
X05061D01*
X04896Y0169D02*
X05096D01*
X04886Y0168D02*
X04896Y0169D01*
X04886Y0167D02*
Y0168D01*
Y0167D02*
X04901Y01655D01*
X05091D01*
X05096Y01605D02*
Y01655D01*
Y0169D02*
Y01735D01*
X04371Y0157D02*
X04396Y01545D01*
X04411D01*
X04431Y01565D01*
X04441D01*
X04461Y01545D01*
X04476D01*
X04496Y01565D01*
X04511D01*
X04531Y01545D01*
X04551D01*
X04571Y01565D01*
X04591Y01545D01*
X04601D01*
X04621Y01565D01*
Y0177D01*
X04571Y01565D02*
Y0177D01*
X04506Y0157D02*
Y01775D01*
X04441Y0157D02*
Y01765D01*
X04601Y01795D02*
X04621Y01775D01*
X04591Y01795D02*
X04601D01*
X04571Y01775D02*
X04591Y01795D01*
X04551D02*
X04571Y01775D01*
X04531Y01795D02*
X04551D01*
X04511Y01775D02*
X04531Y01795D01*
X04496Y01775D02*
X04511D01*
X04476Y01795D02*
X04496Y01775D01*
X04461Y01795D02*
X04476D01*
X04441Y01775D02*
X04461Y01795D01*
X04431Y01775D02*
X04441D01*
X04411Y01795D02*
X04431Y01775D01*
X04396Y01795D02*
X04411D01*
X04371Y0177D02*
X04396Y01795D01*
X03272Y035862D02*
Y036265D01*
X032518D01*
X032451Y036198D01*
Y036064D01*
X032518Y035997D01*
X03272D01*
X032115Y035862D02*
X03225D01*
X032317Y035929D01*
Y036064D01*
X03225Y036131D01*
X032115D01*
X032048Y036064D01*
Y035997D01*
X032317D01*
X031914Y036131D02*
Y035862D01*
Y035997D01*
X031847Y036064D01*
X03178Y036131D01*
X031712D01*
X031511Y035728D02*
Y036131D01*
X031309D01*
X031242Y036064D01*
Y035929D01*
X031309Y035862D01*
X031511D01*
X030906D02*
X031041D01*
X031108Y035929D01*
Y036064D01*
X031041Y036131D01*
X030906D01*
X030839Y036064D01*
Y035997D01*
X031108D01*
X030638Y036198D02*
Y036131D01*
X030705D01*
X030571D01*
X030638D01*
Y035929D01*
X030571Y035862D01*
X030369Y036131D02*
Y035929D01*
X030302Y035862D01*
X0301D01*
Y036131D01*
X029899D02*
X029765D01*
X029697Y036064D01*
Y035862D01*
X029899D01*
X029966Y035929D01*
X029899Y035997D01*
X029697D01*
X029563Y035862D02*
X029429D01*
X029496D01*
Y036265D01*
X029563D01*
X028555Y036198D02*
X028623Y036265D01*
X028757D01*
X028824Y036198D01*
Y035929D01*
X028757Y035862D01*
X028623D01*
X028555Y035929D01*
X028354Y036131D02*
X02822D01*
X028152Y036064D01*
Y035862D01*
X028354D01*
X028421Y035929D01*
X028354Y035997D01*
X028152D01*
X028018Y035862D02*
X027884D01*
X027951D01*
Y036265D01*
X028018D01*
X027481Y035862D02*
X027615D01*
X027682Y035929D01*
Y036064D01*
X027615Y036131D01*
X027481D01*
X027414Y036064D01*
Y035997D01*
X027682D01*
X027279Y035862D02*
Y036131D01*
X027078D01*
X027011Y036064D01*
Y035862D01*
X026608Y036265D02*
Y035862D01*
X026809D01*
X026876Y035929D01*
Y036064D01*
X026809Y036131D01*
X026608D01*
X026406D02*
X026272D01*
X026205Y036064D01*
Y035862D01*
X026406D01*
X026473Y035929D01*
X026406Y035997D01*
X026205D01*
X02607Y036131D02*
Y035862D01*
Y035997D01*
X026003Y036064D01*
X025936Y036131D01*
X025869D01*
X025264D02*
X02513Y035862D01*
X024995Y036131D01*
X02466Y035862D02*
X024794D01*
X024861Y035929D01*
Y036064D01*
X024794Y036131D01*
X02466D01*
X024592Y036064D01*
Y035997D01*
X024861D01*
X024458Y036131D02*
Y035862D01*
Y035997D01*
X024391Y036064D01*
X024324Y036131D01*
X024257D01*
X024055Y036198D02*
X023988Y036265D01*
X023854D01*
X023786Y036198D01*
Y035929D01*
X023854Y035862D01*
X023988D01*
X024055Y035929D01*
Y036198D01*
X023652Y035862D02*
X023518D01*
X023585D01*
Y036265D01*
X023652Y036198D01*
X03272Y035407D02*
Y035004D01*
X032518D01*
X032451Y035072D01*
Y03534D01*
X032518Y035407D01*
X03272D01*
X032115Y035004D02*
X03225D01*
X032317Y035072D01*
Y035206D01*
X03225Y035273D01*
X032115D01*
X032048Y035206D01*
Y035139D01*
X032317D01*
X031914Y035004D02*
X031712D01*
X031645Y035072D01*
X031712Y035139D01*
X031847D01*
X031914Y035206D01*
X031847Y035273D01*
X031645D01*
X031511Y035004D02*
X031377D01*
X031444D01*
Y035273D01*
X031511D01*
X031041Y03487D02*
X030974D01*
X030906Y034937D01*
Y035273D01*
X031108D01*
X031175Y035206D01*
Y035072D01*
X031108Y035004D01*
X030906D01*
X030772D02*
Y035273D01*
X030571D01*
X030503Y035206D01*
Y035004D01*
X030168D02*
X030302D01*
X030369Y035072D01*
Y035206D01*
X030302Y035273D01*
X030168D01*
X0301Y035206D01*
Y035139D01*
X030369D01*
X029697Y035407D02*
Y035004D01*
X029899D01*
X029966Y035072D01*
Y035206D01*
X029899Y035273D01*
X029697D01*
X02916Y035407D02*
Y035004D01*
X028958D01*
X028891Y035072D01*
Y035139D01*
Y035206D01*
X028958Y035273D01*
X02916D01*
X028757D02*
Y035072D01*
X02869Y035004D01*
X028488D01*
Y034937D01*
X028555Y03487D01*
X028623D01*
X028488Y035004D02*
Y035273D01*
X028354D02*
X028287D01*
Y035206D01*
X028354D01*
Y035273D01*
Y035072D02*
X028287D01*
Y035004D01*
X028354D01*
Y035072D01*
X027615Y035407D02*
Y035139D01*
X027481Y035004D01*
X027346Y035139D01*
Y035407D01*
X027212D02*
X026943D01*
X027078D01*
Y035004D01*
X026809D02*
Y035407D01*
X026675Y035273D01*
X02654Y035407D01*
Y035004D01*
X026406Y035407D02*
Y035004D01*
Y035139D01*
X026137Y035407D01*
X026339Y035206D01*
X026137Y035004D01*
X026003Y035407D02*
Y035004D01*
Y035206D01*
X025936Y035273D01*
X025801D01*
X025734Y035206D01*
Y035004D01*
X025533D02*
X025398D01*
X025331Y035072D01*
Y035206D01*
X025398Y035273D01*
X025533D01*
X0256Y035206D01*
Y035072D01*
X025533Y035004D01*
X025197D02*
X025063D01*
X02513D01*
Y035273D01*
X025197D01*
X024458Y035206D02*
X024189D01*
X023652Y035407D02*
Y035004D01*
X023451D01*
X023383Y035072D01*
Y03534D01*
X023451Y035407D01*
X023652D01*
X023249Y035004D02*
Y035407D01*
X023048D01*
X02298Y03534D01*
Y035206D01*
X023048Y035139D01*
X023249D01*
X022577Y035407D02*
X022846D01*
Y035004D01*
X022577D01*
X022846Y035206D02*
X022712D01*
X022174Y035407D02*
X022443D01*
Y035004D01*
X022174D01*
X022443Y035206D02*
X022309D01*
X021637Y035407D02*
Y035004D01*
X021368D01*
X021167Y035273D02*
X021032D01*
X020965Y035206D01*
Y035004D01*
X021167D01*
X021234Y035072D01*
X021167Y035139D01*
X020965D01*
X020831Y035407D02*
Y035004D01*
X020629D01*
X020562Y035072D01*
Y035139D01*
Y035206D01*
X020629Y035273D01*
X020831D01*
X03194Y01816D02*
X03174D01*
X03184D01*
Y01876D01*
X03194Y01866D01*
X02471Y01874D02*
X02491Y01864D01*
X02511Y01844D01*
Y01824D01*
X02501Y01814D01*
X02481D01*
X02471Y01824D01*
Y01834D01*
X02481Y01844D01*
X02511D01*
X02471Y02774D02*
X02491Y02764D01*
X02511Y02744D01*
Y02724D01*
X02501Y02714D01*
X02481D01*
X02471Y02724D01*
Y02734D01*
X02481Y02744D01*
X02511D01*
X03194Y02716D02*
X03174D01*
X03184D01*
Y02776D01*
X03194Y02766D01*
X035428Y016003D02*
Y016397D01*
X035232D01*
X035166Y016331D01*
Y0162D01*
X035232Y016134D01*
X035428D01*
X034838Y016397D02*
X034969D01*
X035035Y016331D01*
Y016069D01*
X034969Y016003D01*
X034838D01*
X034772Y016069D01*
Y016331D01*
X034838Y016397D01*
X034641D02*
Y016003D01*
X03451Y016134D01*
X034379Y016003D01*
Y016397D01*
X033985D02*
X034248D01*
Y016003D01*
X033985D01*
X034248Y0162D02*
X034116D01*
X033854Y016003D02*
Y016397D01*
X033657D01*
X033592Y016331D01*
Y0162D01*
X033657Y016134D01*
X033854D01*
X033723D02*
X033592Y016003D01*
X04268Y0207D02*
Y0203D01*
X04248Y0201D01*
X04228Y0203D01*
Y0207D01*
X04208Y0201D02*
Y0205D01*
X04188Y0207D01*
X04168Y0205D01*
Y0201D01*
Y0204D01*
X04208D01*
X04148Y0201D02*
Y0207D01*
X04118D01*
X041081Y0206D01*
Y0204D01*
X04118Y0203D01*
X04148D01*
X04128D02*
X041081Y0201D01*
D19*
X01836Y0179D02*
X03836D01*
X01836D02*
X03836D01*
X01836Y0249D02*
X03836D01*
X01836Y0179D02*
Y0249D01*
X03836Y0179D02*
Y0249D01*
X01836D02*
X03836D01*
X04107Y01952D02*
X04124Y01969D01*
X04107Y01388D02*
Y01952D01*
Y01388D02*
X04125Y0137D01*
X04343D01*
Y01969D01*
X04124D02*
X04343D01*
Y01571D02*
X04363D01*
Y0177D01*
X04343D02*
X04363D01*
X04343Y01769D02*
X04363D01*
X01836Y0339D02*
X03836D01*
Y0269D02*
Y0339D01*
X01836Y0269D02*
Y0339D01*
X03836D01*
X01836Y0269D02*
X03836D01*
X01836D02*
X03836D01*
D64*
X02686Y0216D02*
Y0232D01*
Y0216D02*
Y0232D01*
X02486Y0216D02*
Y0232D01*
Y0216D02*
Y0232D01*
X02506Y0234D02*
X02666D01*
X02506Y0214D02*
X02666D01*
X02506D02*
X02666D01*
X02506Y0194D02*
X02666D01*
X02686Y0196D02*
Y0212D01*
Y0196D02*
Y0212D01*
X02486Y0196D02*
Y0212D01*
Y0196D02*
Y0212D01*
X02686Y0216D02*
Y0232D01*
Y0216D02*
Y0232D01*
X02486Y0216D02*
Y0232D01*
Y0216D02*
Y0232D01*
X02506Y0234D02*
X02666D01*
X02506Y0214D02*
X02666D01*
X02506D02*
X02666D01*
X02506Y0194D02*
X02666D01*
X02686Y0196D02*
Y0212D01*
Y0196D02*
Y0212D01*
X02486Y0196D02*
Y0212D01*
Y0196D02*
Y0212D01*
X03186Y0216D02*
Y0232D01*
Y0216D02*
Y0232D01*
X02986Y0216D02*
Y0232D01*
Y0216D02*
Y0232D01*
X03006Y0234D02*
X03166D01*
X03006Y0214D02*
X03166D01*
X03006D02*
X03166D01*
X03006Y0194D02*
X03166D01*
X03186Y0196D02*
Y0212D01*
Y0196D02*
Y0212D01*
X02986Y0196D02*
Y0212D01*
Y0196D02*
Y0212D01*
X03186Y0216D02*
Y0232D01*
Y0216D02*
Y0232D01*
X02986Y0216D02*
Y0232D01*
Y0216D02*
Y0232D01*
X03006Y0234D02*
X03166D01*
X03006Y0214D02*
X03166D01*
X03006D02*
X03166D01*
X03006Y0194D02*
X03166D01*
X03186Y0196D02*
Y0212D01*
Y0196D02*
Y0212D01*
X02986Y0196D02*
Y0212D01*
Y0196D02*
Y0212D01*
X03686Y0216D02*
Y0232D01*
Y0216D02*
Y0232D01*
X03486Y0216D02*
Y0232D01*
Y0216D02*
Y0232D01*
X03506Y0234D02*
X03666D01*
X03506Y0214D02*
X03666D01*
X03506D02*
X03666D01*
X03506Y0194D02*
X03666D01*
X03686Y0196D02*
Y0212D01*
Y0196D02*
Y0212D01*
X03486Y0196D02*
Y0212D01*
Y0196D02*
Y0212D01*
X03686Y0216D02*
Y0232D01*
Y0216D02*
Y0232D01*
X03486Y0216D02*
Y0232D01*
Y0216D02*
Y0232D01*
X03506Y0234D02*
X03666D01*
X03506Y0214D02*
X03666D01*
X03506D02*
X03666D01*
X03506Y0194D02*
X03666D01*
X03686Y0196D02*
Y0212D01*
Y0196D02*
Y0212D01*
X03486Y0196D02*
Y0212D01*
Y0196D02*
Y0212D01*
X02686Y0216D02*
Y0232D01*
Y0216D02*
Y0232D01*
X02486Y0216D02*
Y0232D01*
Y0216D02*
Y0232D01*
X02506Y0234D02*
X02666D01*
X02506Y0214D02*
X02666D01*
X02506D02*
X02666D01*
X02506Y0194D02*
X02666D01*
X02686Y0196D02*
Y0212D01*
Y0196D02*
Y0212D01*
X02486Y0196D02*
Y0212D01*
Y0196D02*
Y0212D01*
X02686Y0216D02*
Y0232D01*
Y0216D02*
Y0232D01*
X02486Y0216D02*
Y0232D01*
Y0216D02*
Y0232D01*
X02506Y0234D02*
X02666D01*
X02506Y0214D02*
X02666D01*
X02506D02*
X02666D01*
X02506Y0194D02*
X02666D01*
X02686Y0196D02*
Y0212D01*
Y0196D02*
Y0212D01*
X02486Y0196D02*
Y0212D01*
Y0196D02*
Y0212D01*
X02186Y0216D02*
Y0232D01*
Y0216D02*
Y0232D01*
X01986Y0216D02*
Y0232D01*
Y0216D02*
Y0232D01*
X02006Y0234D02*
X02166D01*
X02006Y0214D02*
X02166D01*
X02006D02*
X02166D01*
X02006Y0194D02*
X02166D01*
X02186Y0196D02*
Y0212D01*
Y0196D02*
Y0212D01*
X01986Y0196D02*
Y0212D01*
Y0196D02*
Y0212D01*
X02186Y0216D02*
Y0232D01*
Y0216D02*
Y0232D01*
X01986Y0216D02*
Y0232D01*
Y0216D02*
Y0232D01*
X02006Y0234D02*
X02166D01*
X02006Y0214D02*
X02166D01*
X02006D02*
X02166D01*
X02006Y0194D02*
X02166D01*
X02186Y0196D02*
Y0212D01*
Y0196D02*
Y0212D01*
X01986Y0196D02*
Y0212D01*
Y0196D02*
Y0212D01*
X02186Y0216D02*
Y0232D01*
Y0216D02*
Y0232D01*
X01986Y0216D02*
Y0232D01*
Y0216D02*
Y0232D01*
X02006Y0234D02*
X02166D01*
X02006Y0214D02*
X02166D01*
X02006D02*
X02166D01*
X02006Y0194D02*
X02166D01*
X02186Y0196D02*
Y0212D01*
Y0196D02*
Y0212D01*
X01986Y0196D02*
Y0212D01*
Y0196D02*
Y0212D01*
X02186Y0216D02*
Y0232D01*
Y0216D02*
Y0232D01*
X01986Y0216D02*
Y0232D01*
Y0216D02*
Y0232D01*
X02006Y0234D02*
X02166D01*
X02006Y0214D02*
X02166D01*
X02006D02*
X02166D01*
X02006Y0194D02*
X02166D01*
X02186Y0196D02*
Y0212D01*
Y0196D02*
Y0212D01*
X01986Y0196D02*
Y0212D01*
Y0196D02*
Y0212D01*
Y0286D02*
Y0302D01*
Y0286D02*
Y0302D01*
X02186Y0286D02*
Y0302D01*
Y0286D02*
Y0302D01*
X02006Y0284D02*
X02166D01*
X02006Y0304D02*
X02166D01*
X02006D02*
X02166D01*
X02006Y0324D02*
X02166D01*
X01986Y0306D02*
Y0322D01*
Y0306D02*
Y0322D01*
X02186Y0306D02*
Y0322D01*
Y0306D02*
Y0322D01*
X01986Y0286D02*
Y0302D01*
Y0286D02*
Y0302D01*
X02186Y0286D02*
Y0302D01*
Y0286D02*
Y0302D01*
X02006Y0284D02*
X02166D01*
X02006Y0304D02*
X02166D01*
X02006D02*
X02166D01*
X02006Y0324D02*
X02166D01*
X01986Y0306D02*
Y0322D01*
Y0306D02*
Y0322D01*
X02186Y0306D02*
Y0322D01*
Y0306D02*
Y0322D01*
X01986Y0286D02*
Y0302D01*
Y0286D02*
Y0302D01*
X02186Y0286D02*
Y0302D01*
Y0286D02*
Y0302D01*
X02006Y0284D02*
X02166D01*
X02006Y0304D02*
X02166D01*
X02006D02*
X02166D01*
X02006Y0324D02*
X02166D01*
X01986Y0306D02*
Y0322D01*
Y0306D02*
Y0322D01*
X02186Y0306D02*
Y0322D01*
Y0306D02*
Y0322D01*
X01986Y0286D02*
Y0302D01*
Y0286D02*
Y0302D01*
X02186Y0286D02*
Y0302D01*
Y0286D02*
Y0302D01*
X02006Y0284D02*
X02166D01*
X02006Y0304D02*
X02166D01*
X02006D02*
X02166D01*
X02006Y0324D02*
X02166D01*
X01986Y0306D02*
Y0322D01*
Y0306D02*
Y0322D01*
X02186Y0306D02*
Y0322D01*
Y0306D02*
Y0322D01*
X02486Y0286D02*
Y0302D01*
Y0286D02*
Y0302D01*
X02686Y0286D02*
Y0302D01*
Y0286D02*
Y0302D01*
X02506Y0284D02*
X02666D01*
X02506Y0304D02*
X02666D01*
X02506D02*
X02666D01*
X02506Y0324D02*
X02666D01*
X02486Y0306D02*
Y0322D01*
Y0306D02*
Y0322D01*
X02686Y0306D02*
Y0322D01*
Y0306D02*
Y0322D01*
X02486Y0286D02*
Y0302D01*
Y0286D02*
Y0302D01*
X02686Y0286D02*
Y0302D01*
Y0286D02*
Y0302D01*
X02506Y0284D02*
X02666D01*
X02506Y0304D02*
X02666D01*
X02506D02*
X02666D01*
X02506Y0324D02*
X02666D01*
X02486Y0306D02*
Y0322D01*
Y0306D02*
Y0322D01*
X02686Y0306D02*
Y0322D01*
Y0306D02*
Y0322D01*
X03486Y0286D02*
Y0302D01*
Y0286D02*
Y0302D01*
X03686Y0286D02*
Y0302D01*
Y0286D02*
Y0302D01*
X03506Y0284D02*
X03666D01*
X03506Y0304D02*
X03666D01*
X03506D02*
X03666D01*
X03506Y0324D02*
X03666D01*
X03486Y0306D02*
Y0322D01*
Y0306D02*
Y0322D01*
X03686Y0306D02*
Y0322D01*
Y0306D02*
Y0322D01*
X03486Y0286D02*
Y0302D01*
Y0286D02*
Y0302D01*
X03686Y0286D02*
Y0302D01*
Y0286D02*
Y0302D01*
X03506Y0284D02*
X03666D01*
X03506Y0304D02*
X03666D01*
X03506D02*
X03666D01*
X03506Y0324D02*
X03666D01*
X03486Y0306D02*
Y0322D01*
Y0306D02*
Y0322D01*
X03686Y0306D02*
Y0322D01*
Y0306D02*
Y0322D01*
X02986Y0286D02*
Y0302D01*
Y0286D02*
Y0302D01*
X03186Y0286D02*
Y0302D01*
Y0286D02*
Y0302D01*
X03006Y0284D02*
X03166D01*
X03006Y0304D02*
X03166D01*
X03006D02*
X03166D01*
X03006Y0324D02*
X03166D01*
X02986Y0306D02*
Y0322D01*
Y0306D02*
Y0322D01*
X03186Y0306D02*
Y0322D01*
Y0306D02*
Y0322D01*
X02986Y0286D02*
Y0302D01*
Y0286D02*
Y0302D01*
X03186Y0286D02*
Y0302D01*
Y0286D02*
Y0302D01*
X03006Y0284D02*
X03166D01*
X03006Y0304D02*
X03166D01*
X03006D02*
X03166D01*
X03006Y0324D02*
X03166D01*
X02986Y0306D02*
Y0322D01*
Y0306D02*
Y0322D01*
X03186Y0306D02*
Y0322D01*
Y0306D02*
Y0322D01*
X02486Y0286D02*
Y0302D01*
Y0286D02*
Y0302D01*
X02686Y0286D02*
Y0302D01*
Y0286D02*
Y0302D01*
X02506Y0284D02*
X02666D01*
X02506Y0304D02*
X02666D01*
X02506D02*
X02666D01*
X02506Y0324D02*
X02666D01*
X02486Y0306D02*
Y0322D01*
Y0306D02*
Y0322D01*
X02686Y0306D02*
Y0322D01*
Y0306D02*
Y0322D01*
X02486Y0286D02*
Y0302D01*
Y0286D02*
Y0302D01*
X02686Y0286D02*
Y0302D01*
Y0286D02*
Y0302D01*
X02506Y0284D02*
X02666D01*
X02506Y0304D02*
X02666D01*
X02506D02*
X02666D01*
X02506Y0324D02*
X02666D01*
X02486Y0306D02*
Y0322D01*
Y0306D02*
Y0322D01*
X02686Y0306D02*
Y0322D01*
Y0306D02*
Y0322D01*
D80*
X03453Y01942D02*
G03*
X03453Y01942I-00006J0D01*
G01*
X02953Y0194D02*
G03*
X02953Y0194I-00006J0D01*
G01*
X02449D02*
G03*
X02449Y0194I-00006J0D01*
G01*
X01953D02*
G03*
X01953Y0194I-00006J0D01*
G01*
Y0284D02*
G03*
X01953Y0284I-00006J0D01*
G01*
X02449D02*
G03*
X02449Y0284I-00006J0D01*
G01*
X02953D02*
G03*
X02953Y0284I-00006J0D01*
G01*
X03453Y02842D02*
G03*
X03453Y02842I-00006J0D01*
G01*
M02*
